SplineFontDB: 3.2
FontName: picotype-bold
FullName: picotype
FamilyName: picotype
Weight: Bold
Copyright: (c) 2025 pico cherry
Version: 0.8
ItalicAngle: 0
UnderlinePosition: 77
UnderlineWidth: 51
Ascent: 896
Descent: 128
InvalidEm: 0
sfntRevision: 0x0000cccd
LayerCount: 2
Layer: 0 1 "Back" 1
Layer: 1 1 "Fore" 0
XUID: [1021 123 -1791954757 5632039]
StyleMap: 0x0040
FSType: 4
OS2Version: 2
OS2_WeightWidthSlopeOnly: 0
OS2_UseTypoMetrics: 0
CreationTime: 3052857
ModificationTime: 1749543974
PfmFamily: 81
TTFWeight: 700
TTFWidth: 5
LineGap: 0
VLineGap: 0
Panose: 0 0 4 0 0 0 0 0 0 0
OS2TypoAscent: 896
OS2TypoAOffset: 0
OS2TypoDescent: -128
OS2TypoDOffset: 0
OS2TypoLinegap: 0
OS2WinAscent: 896
OS2WinAOffset: 0
OS2WinDescent: 128
OS2WinDOffset: 0
HheadAscent: 896
HheadAOffset: 0
HheadDescent: -128
HheadDOffset: 0
OS2SubXSize: 512
OS2SubYSize: 512
OS2SubXOff: 0
OS2SubYOff: -64
OS2SupXSize: 512
OS2SupYSize: 512
OS2SupXOff: 0
OS2SupYOff: 512
OS2StrikeYSize: 51
OS2StrikeYPos: 204
OS2CapHeight: 768
OS2XHeight: 640
OS2Vendor: 'YAL.'
OS2CodePages: 200101ff.cdff0000
OS2UnicodeRanges: 00000007.00000000.00000000.00000000
MarkAttachClasses: 1
DEI: 91125
ShortTable: maxp 16
  1
  0
  268
  100
  25
  0
  0
  2
  0
  0
  0
  0
  0
  0
  0
  0
EndShort
LangName: 1033 "" "" "Regular" "picotype-bold" "" "Version 0.8" "" "" "" "pico cherry" "pixel font in a 8x5 grid" "" "https://picocherry.com" "(c) 2025 pico cherry" "" "" "picotype" "bold" "" "pico cherry"
Encoding: UnicodeBmp
UnicodeInterp: none
NameList: AGL For New Fonts
DisplaySize: -48
AntiAlias: 1
FitToEm: 0
WinInfo: 52 26 12
BeginPrivate: 0
EndPrivate
BeginChars: 65537 268

StartChar: exclam
Encoding: 33 33 3
Width: 768
GlyphClass: 1
Flags: W
LayerCount: 2
Fore
SplineSet
128 768 m 1,0,-1
 256 768 l 1,1,-1
 256 640 l 1,2,-1
 128 640 l 1,3,-1
 128 768 l 1,0,-1
256 768 m 1,4,-1
 384 768 l 1,5,-1
 384 640 l 1,6,-1
 256 640 l 1,7,-1
 256 768 l 1,4,-1
128 640 m 1,8,-1
 256 640 l 1,9,-1
 256 512 l 1,10,-1
 128 512 l 1,11,-1
 128 640 l 1,8,-1
256 640 m 1,12,-1
 384 640 l 1,13,-1
 384 512 l 1,14,-1
 256 512 l 1,15,-1
 256 640 l 1,12,-1
128 512 m 1,16,-1
 256 512 l 1,17,-1
 256 384 l 1,18,-1
 128 384 l 1,19,-1
 128 512 l 1,16,-1
256 512 m 1,20,-1
 384 512 l 1,21,-1
 384 384 l 1,22,-1
 256 384 l 1,23,-1
 256 512 l 1,20,-1
128 384 m 1,24,-1
 256 384 l 1,25,-1
 256 256 l 1,26,-1
 128 256 l 1,27,-1
 128 384 l 1,24,-1
256 384 m 1,28,-1
 384 384 l 1,29,-1
 384 256 l 1,30,-1
 256 256 l 1,31,-1
 256 384 l 1,28,-1
128 128 m 1,32,-1
 256 128 l 1,33,-1
 256 0 l 1,34,-1
 128 0 l 1,35,-1
 128 128 l 1,32,-1
256 128 m 1,36,-1
 384 128 l 1,37,-1
 384 0 l 1,38,-1
 256 0 l 1,39,-1
 256 128 l 1,36,-1
EndSplineSet
Validated: 5
EndChar

StartChar: quotedbl
Encoding: 34 34 4
Width: 768
GlyphClass: 1
Flags: W
LayerCount: 2
Fore
SplineSet
128 896 m 1,0,-1
 256 896 l 1,1,-1
 256 768 l 1,2,-1
 128 768 l 1,3,-1
 128 896 l 1,0,-1
384 896 m 1,4,-1
 512 896 l 1,5,-1
 512 768 l 1,6,-1
 384 768 l 1,7,-1
 384 896 l 1,4,-1
128 768 m 1,8,-1
 256 768 l 1,9,-1
 256 640 l 1,10,-1
 128 640 l 1,11,-1
 128 768 l 1,8,-1
384 768 m 1,12,-1
 512 768 l 1,13,-1
 512 640 l 1,14,-1
 384 640 l 1,15,-1
 384 768 l 1,12,-1
EndSplineSet
Validated: 5
EndChar

StartChar: numbersign
Encoding: 35 35 5
Width: 768
GlyphClass: 1
Flags: W
LayerCount: 2
Fore
SplineSet
128 640 m 1,0,-1
 256 640 l 1,1,-1
 256 512 l 1,2,-1
 128 512 l 1,3,-1
 128 640 l 1,0,-1
384 640 m 1,4,-1
 512 640 l 1,5,-1
 512 512 l 1,6,-1
 384 512 l 1,7,-1
 384 640 l 1,4,-1
0 512 m 1,8,-1
 128 512 l 1,9,-1
 128 384 l 1,10,-1
 0 384 l 1,11,-1
 0 512 l 1,8,-1
128 512 m 1,12,-1
 256 512 l 1,13,-1
 256 384 l 1,14,-1
 128 384 l 1,15,-1
 128 512 l 1,12,-1
256 512 m 1,16,-1
 384 512 l 1,17,-1
 384 384 l 1,18,-1
 256 384 l 1,19,-1
 256 512 l 1,16,-1
384 512 m 1,20,-1
 512 512 l 1,21,-1
 512 384 l 1,22,-1
 384 384 l 1,23,-1
 384 512 l 1,20,-1
512 512 m 1,24,-1
 640 512 l 1,25,-1
 640 384 l 1,26,-1
 512 384 l 1,27,-1
 512 512 l 1,24,-1
128 384 m 1,28,-1
 256 384 l 1,29,-1
 256 256 l 1,30,-1
 128 256 l 1,31,-1
 128 384 l 1,28,-1
384 384 m 1,32,-1
 512 384 l 1,33,-1
 512 256 l 1,34,-1
 384 256 l 1,35,-1
 384 384 l 1,32,-1
0 256 m 1,36,-1
 128 256 l 1,37,-1
 128 128 l 1,38,-1
 0 128 l 1,39,-1
 0 256 l 1,36,-1
128 256 m 1,40,-1
 256 256 l 1,41,-1
 256 128 l 1,42,-1
 128 128 l 1,43,-1
 128 256 l 1,40,-1
256 256 m 1,44,-1
 384 256 l 1,45,-1
 384 128 l 1,46,-1
 256 128 l 1,47,-1
 256 256 l 1,44,-1
384 256 m 1,48,-1
 512 256 l 1,49,-1
 512 128 l 1,50,-1
 384 128 l 1,51,-1
 384 256 l 1,48,-1
512 256 m 1,52,-1
 640 256 l 1,53,-1
 640 128 l 1,54,-1
 512 128 l 1,55,-1
 512 256 l 1,52,-1
128 128 m 1,56,-1
 256 128 l 1,57,-1
 256 0 l 1,58,-1
 128 0 l 1,59,-1
 128 128 l 1,56,-1
384 128 m 1,60,-1
 512 128 l 1,61,-1
 512 0 l 1,62,-1
 384 0 l 1,63,-1
 384 128 l 1,60,-1
EndSplineSet
Validated: 5
EndChar

StartChar: dollar
Encoding: 36 36 6
Width: 768
GlyphClass: 1
Flags: W
LayerCount: 2
Fore
SplineSet
256 768 m 1,0,-1
 384 768 l 1,1,-1
 384 640 l 1,2,-1
 256 640 l 1,3,-1
 256 768 l 1,0,-1
128 640 m 1,4,-1
 256 640 l 1,5,-1
 256 512 l 1,6,-1
 128 512 l 1,7,-1
 128 640 l 1,4,-1
256 640 m 1,8,-1
 384 640 l 1,9,-1
 384 512 l 1,10,-1
 256 512 l 1,11,-1
 256 640 l 1,8,-1
384 640 m 1,12,-1
 512 640 l 1,13,-1
 512 512 l 1,14,-1
 384 512 l 1,15,-1
 384 640 l 1,12,-1
512 640 m 1,16,-1
 640 640 l 1,17,-1
 640 512 l 1,18,-1
 512 512 l 1,19,-1
 512 640 l 1,16,-1
0 512 m 1,20,-1
 128 512 l 1,21,-1
 128 384 l 1,22,-1
 0 384 l 1,23,-1
 0 512 l 1,20,-1
128 512 m 1,24,-1
 256 512 l 1,25,-1
 256 384 l 1,26,-1
 128 384 l 1,27,-1
 128 512 l 1,24,-1
256 512 m 1,28,-1
 384 512 l 1,29,-1
 384 384 l 1,30,-1
 256 384 l 1,31,-1
 256 512 l 1,28,-1
128 384 m 1,32,-1
 256 384 l 1,33,-1
 256 256 l 1,34,-1
 128 256 l 1,35,-1
 128 384 l 1,32,-1
256 384 m 1,36,-1
 384 384 l 1,37,-1
 384 256 l 1,38,-1
 256 256 l 1,39,-1
 256 384 l 1,36,-1
384 384 m 1,40,-1
 512 384 l 1,41,-1
 512 256 l 1,42,-1
 384 256 l 1,43,-1
 384 384 l 1,40,-1
256 256 m 1,44,-1
 384 256 l 1,45,-1
 384 128 l 1,46,-1
 256 128 l 1,47,-1
 256 256 l 1,44,-1
384 256 m 1,48,-1
 512 256 l 1,49,-1
 512 128 l 1,50,-1
 384 128 l 1,51,-1
 384 256 l 1,48,-1
512 256 m 1,52,-1
 640 256 l 1,53,-1
 640 128 l 1,54,-1
 512 128 l 1,55,-1
 512 256 l 1,52,-1
0 128 m 1,56,-1
 128 128 l 1,57,-1
 128 0 l 1,58,-1
 0 0 l 1,59,-1
 0 128 l 1,56,-1
128 128 m 1,60,-1
 256 128 l 1,61,-1
 256 0 l 1,62,-1
 128 0 l 1,63,-1
 128 128 l 1,60,-1
256 128 m 1,64,-1
 384 128 l 1,65,-1
 384 0 l 1,66,-1
 256 0 l 1,67,-1
 256 128 l 1,64,-1
384 128 m 1,68,-1
 512 128 l 1,69,-1
 512 0 l 1,70,-1
 384 0 l 1,71,-1
 384 128 l 1,68,-1
256 0 m 1,72,-1
 384 0 l 1,73,-1
 384 -128 l 1,74,-1
 256 -128 l 1,75,-1
 256 0 l 1,72,-1
EndSplineSet
Validated: 5
EndChar

StartChar: percent
Encoding: 37 37 7
Width: 768
GlyphClass: 1
Flags: W
LayerCount: 2
Fore
SplineSet
0 640 m 1,0,-1
 128 640 l 1,1,-1
 128 512 l 1,2,-1
 0 512 l 1,3,-1
 0 640 l 1,0,-1
512 640 m 1,4,-1
 640 640 l 1,5,-1
 640 512 l 1,6,-1
 512 512 l 1,7,-1
 512 640 l 1,4,-1
384 512 m 1,8,-1
 512 512 l 1,9,-1
 512 384 l 1,10,-1
 384 384 l 1,11,-1
 384 512 l 1,8,-1
512 512 m 1,12,-1
 640 512 l 1,13,-1
 640 384 l 1,14,-1
 512 384 l 1,15,-1
 512 512 l 1,12,-1
256 384 m 1,16,-1
 384 384 l 1,17,-1
 384 256 l 1,18,-1
 256 256 l 1,19,-1
 256 384 l 1,16,-1
384 384 m 1,20,-1
 512 384 l 1,21,-1
 512 256 l 1,22,-1
 384 256 l 1,23,-1
 384 384 l 1,20,-1
128 256 m 1,24,-1
 256 256 l 1,25,-1
 256 128 l 1,26,-1
 128 128 l 1,27,-1
 128 256 l 1,24,-1
256 256 m 1,28,-1
 384 256 l 1,29,-1
 384 128 l 1,30,-1
 256 128 l 1,31,-1
 256 256 l 1,28,-1
0 128 m 1,32,-1
 128 128 l 1,33,-1
 128 0 l 1,34,-1
 0 0 l 1,35,-1
 0 128 l 1,32,-1
128 128 m 1,36,-1
 256 128 l 1,37,-1
 256 0 l 1,38,-1
 128 0 l 1,39,-1
 128 128 l 1,36,-1
512 128 m 1,40,-1
 640 128 l 1,41,-1
 640 0 l 1,42,-1
 512 0 l 1,43,-1
 512 128 l 1,40,-1
EndSplineSet
Validated: 5
EndChar

StartChar: ampersand
Encoding: 38 38 8
Width: 768
GlyphClass: 1
Flags: W
LayerCount: 2
Fore
SplineSet
128 768 m 1,0,-1
 256 768 l 1,1,-1
 256 640 l 1,2,-1
 128 640 l 1,3,-1
 128 768 l 1,0,-1
256 768 m 1,4,-1
 384 768 l 1,5,-1
 384 640 l 1,6,-1
 256 640 l 1,7,-1
 256 768 l 1,4,-1
0 640 m 1,8,-1
 128 640 l 1,9,-1
 128 512 l 1,10,-1
 0 512 l 1,11,-1
 0 640 l 1,8,-1
384 640 m 1,12,-1
 512 640 l 1,13,-1
 512 512 l 1,14,-1
 384 512 l 1,15,-1
 384 640 l 1,12,-1
128 512 m 1,16,-1
 256 512 l 1,17,-1
 256 384 l 1,18,-1
 128 384 l 1,19,-1
 128 512 l 1,16,-1
0 384 m 1,20,-1
 128 384 l 1,21,-1
 128 256 l 1,22,-1
 0 256 l 1,23,-1
 0 384 l 1,20,-1
256 384 m 1,24,-1
 384 384 l 1,25,-1
 384 256 l 1,26,-1
 256 256 l 1,27,-1
 256 384 l 1,24,-1
512 384 m 1,28,-1
 640 384 l 1,29,-1
 640 256 l 1,30,-1
 512 256 l 1,31,-1
 512 384 l 1,28,-1
0 256 m 1,32,-1
 128 256 l 1,33,-1
 128 128 l 1,34,-1
 0 128 l 1,35,-1
 0 256 l 1,32,-1
128 256 m 1,36,-1
 256 256 l 1,37,-1
 256 128 l 1,38,-1
 128 128 l 1,39,-1
 128 256 l 1,36,-1
384 256 m 1,40,-1
 512 256 l 1,41,-1
 512 128 l 1,42,-1
 384 128 l 1,43,-1
 384 256 l 1,40,-1
128 128 m 1,44,-1
 256 128 l 1,45,-1
 256 0 l 1,46,-1
 128 0 l 1,47,-1
 128 128 l 1,44,-1
256 128 m 1,48,-1
 384 128 l 1,49,-1
 384 0 l 1,50,-1
 256 0 l 1,51,-1
 256 128 l 1,48,-1
512 128 m 1,52,-1
 640 128 l 1,53,-1
 640 0 l 1,54,-1
 512 0 l 1,55,-1
 512 128 l 1,52,-1
EndSplineSet
Validated: 5
EndChar

StartChar: quotesingle
Encoding: 39 39 9
Width: 768
GlyphClass: 1
Flags: W
LayerCount: 2
Fore
SplineSet
128 896 m 1,0,-1
 256 896 l 1,1,-1
 256 768 l 1,2,-1
 128 768 l 1,3,-1
 128 896 l 1,0,-1
128 768 m 1,4,-1
 256 768 l 1,5,-1
 256 640 l 1,6,-1
 128 640 l 1,7,-1
 128 768 l 1,4,-1
EndSplineSet
Validated: 5
EndChar

StartChar: parenleft
Encoding: 40 40 10
Width: 768
GlyphClass: 1
Flags: W
LayerCount: 2
Fore
SplineSet
384 896 m 1,0,-1
 512 896 l 1,1,-1
 512 768 l 1,2,-1
 384 768 l 1,3,-1
 384 896 l 1,0,-1
512 896 m 1,4,-1
 640 896 l 1,5,-1
 640 768 l 1,6,-1
 512 768 l 1,7,-1
 512 896 l 1,4,-1
256 768 m 1,8,-1
 384 768 l 1,9,-1
 384 640 l 1,10,-1
 256 640 l 1,11,-1
 256 768 l 1,8,-1
384 768 m 1,12,-1
 512 768 l 1,13,-1
 512 640 l 1,14,-1
 384 640 l 1,15,-1
 384 768 l 1,12,-1
128 640 m 1,16,-1
 256 640 l 1,17,-1
 256 512 l 1,18,-1
 128 512 l 1,19,-1
 128 640 l 1,16,-1
256 640 m 1,20,-1
 384 640 l 1,21,-1
 384 512 l 1,22,-1
 256 512 l 1,23,-1
 256 640 l 1,20,-1
128 512 m 1,24,-1
 256 512 l 1,25,-1
 256 384 l 1,26,-1
 128 384 l 1,27,-1
 128 512 l 1,24,-1
256 512 m 1,28,-1
 384 512 l 1,29,-1
 384 384 l 1,30,-1
 256 384 l 1,31,-1
 256 512 l 1,28,-1
128 384 m 1,32,-1
 256 384 l 1,33,-1
 256 256 l 1,34,-1
 128 256 l 1,35,-1
 128 384 l 1,32,-1
256 384 m 1,36,-1
 384 384 l 1,37,-1
 384 256 l 1,38,-1
 256 256 l 1,39,-1
 256 384 l 1,36,-1
256 256 m 1,40,-1
 384 256 l 1,41,-1
 384 128 l 1,42,-1
 256 128 l 1,43,-1
 256 256 l 1,40,-1
384 256 m 1,44,-1
 512 256 l 1,45,-1
 512 128 l 1,46,-1
 384 128 l 1,47,-1
 384 256 l 1,44,-1
384 128 m 1,48,-1
 512 128 l 1,49,-1
 512 0 l 1,50,-1
 384 0 l 1,51,-1
 384 128 l 1,48,-1
512 128 m 1,52,-1
 640 128 l 1,53,-1
 640 0 l 1,54,-1
 512 0 l 1,55,-1
 512 128 l 1,52,-1
EndSplineSet
Validated: 5
EndChar

StartChar: parenright
Encoding: 41 41 11
Width: 768
GlyphClass: 1
Flags: W
LayerCount: 2
Fore
SplineSet
0 896 m 1,0,-1
 128 896 l 1,1,-1
 128 768 l 1,2,-1
 0 768 l 1,3,-1
 0 896 l 1,0,-1
128 896 m 1,4,-1
 256 896 l 1,5,-1
 256 768 l 1,6,-1
 128 768 l 1,7,-1
 128 896 l 1,4,-1
128 768 m 1,8,-1
 256 768 l 1,9,-1
 256 640 l 1,10,-1
 128 640 l 1,11,-1
 128 768 l 1,8,-1
256 768 m 1,12,-1
 384 768 l 1,13,-1
 384 640 l 1,14,-1
 256 640 l 1,15,-1
 256 768 l 1,12,-1
256 640 m 1,16,-1
 384 640 l 1,17,-1
 384 512 l 1,18,-1
 256 512 l 1,19,-1
 256 640 l 1,16,-1
384 640 m 1,20,-1
 512 640 l 1,21,-1
 512 512 l 1,22,-1
 384 512 l 1,23,-1
 384 640 l 1,20,-1
256 512 m 1,24,-1
 384 512 l 1,25,-1
 384 384 l 1,26,-1
 256 384 l 1,27,-1
 256 512 l 1,24,-1
384 512 m 1,28,-1
 512 512 l 1,29,-1
 512 384 l 1,30,-1
 384 384 l 1,31,-1
 384 512 l 1,28,-1
256 384 m 1,32,-1
 384 384 l 1,33,-1
 384 256 l 1,34,-1
 256 256 l 1,35,-1
 256 384 l 1,32,-1
384 384 m 1,36,-1
 512 384 l 1,37,-1
 512 256 l 1,38,-1
 384 256 l 1,39,-1
 384 384 l 1,36,-1
128 256 m 1,40,-1
 256 256 l 1,41,-1
 256 128 l 1,42,-1
 128 128 l 1,43,-1
 128 256 l 1,40,-1
256 256 m 1,44,-1
 384 256 l 1,45,-1
 384 128 l 1,46,-1
 256 128 l 1,47,-1
 256 256 l 1,44,-1
0 128 m 1,48,-1
 128 128 l 1,49,-1
 128 0 l 1,50,-1
 0 0 l 1,51,-1
 0 128 l 1,48,-1
128 128 m 1,52,-1
 256 128 l 1,53,-1
 256 0 l 1,54,-1
 128 0 l 1,55,-1
 128 128 l 1,52,-1
EndSplineSet
Validated: 5
EndChar

StartChar: asterisk
Encoding: 42 42 12
Width: 768
GlyphClass: 1
Flags: W
LayerCount: 2
Fore
SplineSet
256 896 m 1,0,-1
 384 896 l 1,1,-1
 384 768 l 1,2,-1
 256 768 l 1,3,-1
 256 896 l 1,0,-1
128 768 m 1,4,-1
 256 768 l 1,5,-1
 256 640 l 1,6,-1
 128 640 l 1,7,-1
 128 768 l 1,4,-1
256 768 m 1,8,-1
 384 768 l 1,9,-1
 384 640 l 1,10,-1
 256 640 l 1,11,-1
 256 768 l 1,8,-1
384 768 m 1,12,-1
 512 768 l 1,13,-1
 512 640 l 1,14,-1
 384 640 l 1,15,-1
 384 768 l 1,12,-1
256 640 m 1,16,-1
 384 640 l 1,17,-1
 384 512 l 1,18,-1
 256 512 l 1,19,-1
 256 640 l 1,16,-1
EndSplineSet
Validated: 5
EndChar

StartChar: plus
Encoding: 43 43 13
Width: 768
GlyphClass: 1
Flags: W
LayerCount: 2
Fore
SplineSet
256 640 m 1,0,-1
 384 640 l 1,1,-1
 384 512 l 1,2,-1
 256 512 l 1,3,-1
 256 640 l 1,0,-1
256 512 m 1,4,-1
 384 512 l 1,5,-1
 384 384 l 1,6,-1
 256 384 l 1,7,-1
 256 512 l 1,4,-1
0 384 m 1,8,-1
 128 384 l 1,9,-1
 128 256 l 1,10,-1
 0 256 l 1,11,-1
 0 384 l 1,8,-1
128 384 m 1,12,-1
 256 384 l 1,13,-1
 256 256 l 1,14,-1
 128 256 l 1,15,-1
 128 384 l 1,12,-1
256 384 m 1,16,-1
 384 384 l 1,17,-1
 384 256 l 1,18,-1
 256 256 l 1,19,-1
 256 384 l 1,16,-1
384 384 m 1,20,-1
 512 384 l 1,21,-1
 512 256 l 1,22,-1
 384 256 l 1,23,-1
 384 384 l 1,20,-1
512 384 m 1,24,-1
 640 384 l 1,25,-1
 640 256 l 1,26,-1
 512 256 l 1,27,-1
 512 384 l 1,24,-1
256 256 m 1,28,-1
 384 256 l 1,29,-1
 384 128 l 1,30,-1
 256 128 l 1,31,-1
 256 256 l 1,28,-1
256 128 m 1,32,-1
 384 128 l 1,33,-1
 384 0 l 1,34,-1
 256 0 l 1,35,-1
 256 128 l 1,32,-1
EndSplineSet
Validated: 5
EndChar

StartChar: comma
Encoding: 44 44 14
Width: 768
GlyphClass: 1
Flags: W
LayerCount: 2
Fore
SplineSet
0 256 m 1,0,-1
 128 256 l 1,1,-1
 128 128 l 1,2,-1
 0 128 l 1,3,-1
 0 256 l 1,0,-1
128 256 m 1,4,-1
 256 256 l 1,5,-1
 256 128 l 1,6,-1
 128 128 l 1,7,-1
 128 256 l 1,4,-1
0 128 m 1,8,-1
 128 128 l 1,9,-1
 128 0 l 1,10,-1
 0 0 l 1,11,-1
 0 128 l 1,8,-1
128 128 m 1,12,-1
 256 128 l 1,13,-1
 256 0 l 1,14,-1
 128 0 l 1,15,-1
 128 128 l 1,12,-1
128 0 m 1,16,-1
 256 0 l 1,17,-1
 256 -128 l 1,18,-1
 128 -128 l 1,19,-1
 128 0 l 1,16,-1
EndSplineSet
Validated: 5
EndChar

StartChar: hyphen
Encoding: 45 45 15
Width: 768
GlyphClass: 1
Flags: W
LayerCount: 2
Fore
SplineSet
128 384 m 1,0,-1
 256 384 l 1,1,-1
 256 256 l 1,2,-1
 128 256 l 1,3,-1
 128 384 l 1,0,-1
256 384 m 1,4,-1
 384 384 l 1,5,-1
 384 256 l 1,6,-1
 256 256 l 1,7,-1
 256 384 l 1,4,-1
384 384 m 1,8,-1
 512 384 l 1,9,-1
 512 256 l 1,10,-1
 384 256 l 1,11,-1
 384 384 l 1,8,-1
EndSplineSet
Validated: 5
EndChar

StartChar: period
Encoding: 46 46 16
Width: 768
GlyphClass: 1
Flags: W
LayerCount: 2
Fore
SplineSet
0 256 m 1,0,-1
 128 256 l 1,1,-1
 128 128 l 1,2,-1
 0 128 l 1,3,-1
 0 256 l 1,0,-1
128 256 m 1,4,-1
 256 256 l 1,5,-1
 256 128 l 1,6,-1
 128 128 l 1,7,-1
 128 256 l 1,4,-1
0 128 m 1,8,-1
 128 128 l 1,9,-1
 128 0 l 1,10,-1
 0 0 l 1,11,-1
 0 128 l 1,8,-1
128 128 m 1,12,-1
 256 128 l 1,13,-1
 256 0 l 1,14,-1
 128 0 l 1,15,-1
 128 128 l 1,12,-1
EndSplineSet
Validated: 5
EndChar

StartChar: slash
Encoding: 47 47 17
Width: 768
GlyphClass: 1
Flags: W
LayerCount: 2
Fore
SplineSet
384 768 m 1,0,-1
 512 768 l 1,1,-1
 512 640 l 1,2,-1
 384 640 l 1,3,-1
 384 768 l 1,0,-1
384 640 m 1,4,-1
 512 640 l 1,5,-1
 512 512 l 1,6,-1
 384 512 l 1,7,-1
 384 640 l 1,4,-1
256 512 m 1,8,-1
 384 512 l 1,9,-1
 384 384 l 1,10,-1
 256 384 l 1,11,-1
 256 512 l 1,8,-1
256 384 m 1,12,-1
 384 384 l 1,13,-1
 384 256 l 1,14,-1
 256 256 l 1,15,-1
 256 384 l 1,12,-1
128 256 m 1,16,-1
 256 256 l 1,17,-1
 256 128 l 1,18,-1
 128 128 l 1,19,-1
 128 256 l 1,16,-1
128 128 m 1,20,-1
 256 128 l 1,21,-1
 256 0 l 1,22,-1
 128 0 l 1,23,-1
 128 128 l 1,20,-1
EndSplineSet
Validated: 5
EndChar

StartChar: zero
Encoding: 48 48 18
Width: 768
GlyphClass: 1
Flags: W
LayerCount: 2
Fore
SplineSet
128 768 m 1,0,-1
 256 768 l 1,1,-1
 256 640 l 1,2,-1
 128 640 l 1,3,-1
 128 768 l 1,0,-1
256 768 m 1,4,-1
 384 768 l 1,5,-1
 384 640 l 1,6,-1
 256 640 l 1,7,-1
 256 768 l 1,4,-1
384 768 m 1,8,-1
 512 768 l 1,9,-1
 512 640 l 1,10,-1
 384 640 l 1,11,-1
 384 768 l 1,8,-1
0 640 m 1,12,-1
 128 640 l 1,13,-1
 128 512 l 1,14,-1
 0 512 l 1,15,-1
 0 640 l 1,12,-1
128 640 m 1,16,-1
 256 640 l 1,17,-1
 256 512 l 1,18,-1
 128 512 l 1,19,-1
 128 640 l 1,16,-1
512 640 m 1,20,-1
 640 640 l 1,21,-1
 640 512 l 1,22,-1
 512 512 l 1,23,-1
 512 640 l 1,20,-1
0 512 m 1,24,-1
 128 512 l 1,25,-1
 128 384 l 1,26,-1
 0 384 l 1,27,-1
 0 512 l 1,24,-1
128 512 m 1,28,-1
 256 512 l 1,29,-1
 256 384 l 1,30,-1
 128 384 l 1,31,-1
 128 512 l 1,28,-1
256 512 m 1,32,-1
 384 512 l 1,33,-1
 384 384 l 1,34,-1
 256 384 l 1,35,-1
 256 512 l 1,32,-1
512 512 m 1,36,-1
 640 512 l 1,37,-1
 640 384 l 1,38,-1
 512 384 l 1,39,-1
 512 512 l 1,36,-1
0 384 m 1,40,-1
 128 384 l 1,41,-1
 128 256 l 1,42,-1
 0 256 l 1,43,-1
 0 384 l 1,40,-1
128 384 m 1,44,-1
 256 384 l 1,45,-1
 256 256 l 1,46,-1
 128 256 l 1,47,-1
 128 384 l 1,44,-1
256 384 m 1,48,-1
 384 384 l 1,49,-1
 384 256 l 1,50,-1
 256 256 l 1,51,-1
 256 384 l 1,48,-1
512 384 m 1,52,-1
 640 384 l 1,53,-1
 640 256 l 1,54,-1
 512 256 l 1,55,-1
 512 384 l 1,52,-1
0 256 m 1,56,-1
 128 256 l 1,57,-1
 128 128 l 1,58,-1
 0 128 l 1,59,-1
 0 256 l 1,56,-1
128 256 m 1,60,-1
 256 256 l 1,61,-1
 256 128 l 1,62,-1
 128 128 l 1,63,-1
 128 256 l 1,60,-1
512 256 m 1,64,-1
 640 256 l 1,65,-1
 640 128 l 1,66,-1
 512 128 l 1,67,-1
 512 256 l 1,64,-1
128 128 m 1,68,-1
 256 128 l 1,69,-1
 256 0 l 1,70,-1
 128 0 l 1,71,-1
 128 128 l 1,68,-1
256 128 m 1,72,-1
 384 128 l 1,73,-1
 384 0 l 1,74,-1
 256 0 l 1,75,-1
 256 128 l 1,72,-1
384 128 m 1,76,-1
 512 128 l 1,77,-1
 512 0 l 1,78,-1
 384 0 l 1,79,-1
 384 128 l 1,76,-1
EndSplineSet
Validated: 5
EndChar

StartChar: one
Encoding: 49 49 19
Width: 768
GlyphClass: 1
Flags: W
LayerCount: 2
Fore
SplineSet
0 768 m 1,0,-1
 128 768 l 1,1,-1
 128 640 l 1,2,-1
 0 640 l 1,3,-1
 0 768 l 1,0,-1
128 768 m 1,4,-1
 256 768 l 1,5,-1
 256 640 l 1,6,-1
 128 640 l 1,7,-1
 128 768 l 1,4,-1
256 768 m 1,8,-1
 384 768 l 1,9,-1
 384 640 l 1,10,-1
 256 640 l 1,11,-1
 256 768 l 1,8,-1
128 640 m 1,12,-1
 256 640 l 1,13,-1
 256 512 l 1,14,-1
 128 512 l 1,15,-1
 128 640 l 1,12,-1
256 640 m 1,16,-1
 384 640 l 1,17,-1
 384 512 l 1,18,-1
 256 512 l 1,19,-1
 256 640 l 1,16,-1
128 512 m 1,20,-1
 256 512 l 1,21,-1
 256 384 l 1,22,-1
 128 384 l 1,23,-1
 128 512 l 1,20,-1
256 512 m 1,24,-1
 384 512 l 1,25,-1
 384 384 l 1,26,-1
 256 384 l 1,27,-1
 256 512 l 1,24,-1
128 384 m 1,28,-1
 256 384 l 1,29,-1
 256 256 l 1,30,-1
 128 256 l 1,31,-1
 128 384 l 1,28,-1
256 384 m 1,32,-1
 384 384 l 1,33,-1
 384 256 l 1,34,-1
 256 256 l 1,35,-1
 256 384 l 1,32,-1
128 256 m 1,36,-1
 256 256 l 1,37,-1
 256 128 l 1,38,-1
 128 128 l 1,39,-1
 128 256 l 1,36,-1
256 256 m 1,40,-1
 384 256 l 1,41,-1
 384 128 l 1,42,-1
 256 128 l 1,43,-1
 256 256 l 1,40,-1
0 128 m 1,44,-1
 128 128 l 1,45,-1
 128 0 l 1,46,-1
 0 0 l 1,47,-1
 0 128 l 1,44,-1
128 128 m 1,48,-1
 256 128 l 1,49,-1
 256 0 l 1,50,-1
 128 0 l 1,51,-1
 128 128 l 1,48,-1
256 128 m 1,52,-1
 384 128 l 1,53,-1
 384 0 l 1,54,-1
 256 0 l 1,55,-1
 256 128 l 1,52,-1
384 128 m 1,56,-1
 512 128 l 1,57,-1
 512 0 l 1,58,-1
 384 0 l 1,59,-1
 384 128 l 1,56,-1
EndSplineSet
Validated: 5
EndChar

StartChar: two
Encoding: 50 50 20
Width: 768
GlyphClass: 1
Flags: W
LayerCount: 2
Fore
SplineSet
128 768 m 1,0,-1
 256 768 l 1,1,-1
 256 640 l 1,2,-1
 128 640 l 1,3,-1
 128 768 l 1,0,-1
256 768 m 1,4,-1
 384 768 l 1,5,-1
 384 640 l 1,6,-1
 256 640 l 1,7,-1
 256 768 l 1,4,-1
384 768 m 1,8,-1
 512 768 l 1,9,-1
 512 640 l 1,10,-1
 384 640 l 1,11,-1
 384 768 l 1,8,-1
0 640 m 1,12,-1
 128 640 l 1,13,-1
 128 512 l 1,14,-1
 0 512 l 1,15,-1
 0 640 l 1,12,-1
384 640 m 1,16,-1
 512 640 l 1,17,-1
 512 512 l 1,18,-1
 384 512 l 1,19,-1
 384 640 l 1,16,-1
512 640 m 1,20,-1
 640 640 l 1,21,-1
 640 512 l 1,22,-1
 512 512 l 1,23,-1
 512 640 l 1,20,-1
384 512 m 1,24,-1
 512 512 l 1,25,-1
 512 384 l 1,26,-1
 384 384 l 1,27,-1
 384 512 l 1,24,-1
512 512 m 1,28,-1
 640 512 l 1,29,-1
 640 384 l 1,30,-1
 512 384 l 1,31,-1
 512 512 l 1,28,-1
128 384 m 1,32,-1
 256 384 l 1,33,-1
 256 256 l 1,34,-1
 128 256 l 1,35,-1
 128 384 l 1,32,-1
256 384 m 1,36,-1
 384 384 l 1,37,-1
 384 256 l 1,38,-1
 256 256 l 1,39,-1
 256 384 l 1,36,-1
384 384 m 1,40,-1
 512 384 l 1,41,-1
 512 256 l 1,42,-1
 384 256 l 1,43,-1
 384 384 l 1,40,-1
0 256 m 1,44,-1
 128 256 l 1,45,-1
 128 128 l 1,46,-1
 0 128 l 1,47,-1
 0 256 l 1,44,-1
128 256 m 1,48,-1
 256 256 l 1,49,-1
 256 128 l 1,50,-1
 128 128 l 1,51,-1
 128 256 l 1,48,-1
0 128 m 1,52,-1
 128 128 l 1,53,-1
 128 0 l 1,54,-1
 0 0 l 1,55,-1
 0 128 l 1,52,-1
128 128 m 1,56,-1
 256 128 l 1,57,-1
 256 0 l 1,58,-1
 128 0 l 1,59,-1
 128 128 l 1,56,-1
256 128 m 1,60,-1
 384 128 l 1,61,-1
 384 0 l 1,62,-1
 256 0 l 1,63,-1
 256 128 l 1,60,-1
384 128 m 1,64,-1
 512 128 l 1,65,-1
 512 0 l 1,66,-1
 384 0 l 1,67,-1
 384 128 l 1,64,-1
512 128 m 1,68,-1
 640 128 l 1,69,-1
 640 0 l 1,70,-1
 512 0 l 1,71,-1
 512 128 l 1,68,-1
EndSplineSet
Validated: 5
EndChar

StartChar: three
Encoding: 51 51 21
Width: 768
GlyphClass: 1
Flags: W
LayerCount: 2
Fore
SplineSet
128 768 m 1,0,-1
 256 768 l 1,1,-1
 256 640 l 1,2,-1
 128 640 l 1,3,-1
 128 768 l 1,0,-1
256 768 m 1,4,-1
 384 768 l 1,5,-1
 384 640 l 1,6,-1
 256 640 l 1,7,-1
 256 768 l 1,4,-1
384 768 m 1,8,-1
 512 768 l 1,9,-1
 512 640 l 1,10,-1
 384 640 l 1,11,-1
 384 768 l 1,8,-1
0 640 m 1,12,-1
 128 640 l 1,13,-1
 128 512 l 1,14,-1
 0 512 l 1,15,-1
 0 640 l 1,12,-1
384 640 m 1,16,-1
 512 640 l 1,17,-1
 512 512 l 1,18,-1
 384 512 l 1,19,-1
 384 640 l 1,16,-1
512 640 m 1,20,-1
 640 640 l 1,21,-1
 640 512 l 1,22,-1
 512 512 l 1,23,-1
 512 640 l 1,20,-1
384 512 m 1,24,-1
 512 512 l 1,25,-1
 512 384 l 1,26,-1
 384 384 l 1,27,-1
 384 512 l 1,24,-1
512 512 m 1,28,-1
 640 512 l 1,29,-1
 640 384 l 1,30,-1
 512 384 l 1,31,-1
 512 512 l 1,28,-1
256 384 m 1,32,-1
 384 384 l 1,33,-1
 384 256 l 1,34,-1
 256 256 l 1,35,-1
 256 384 l 1,32,-1
384 384 m 1,36,-1
 512 384 l 1,37,-1
 512 256 l 1,38,-1
 384 256 l 1,39,-1
 384 384 l 1,36,-1
0 256 m 1,40,-1
 128 256 l 1,41,-1
 128 128 l 1,42,-1
 0 128 l 1,43,-1
 0 256 l 1,40,-1
384 256 m 1,44,-1
 512 256 l 1,45,-1
 512 128 l 1,46,-1
 384 128 l 1,47,-1
 384 256 l 1,44,-1
512 256 m 1,48,-1
 640 256 l 1,49,-1
 640 128 l 1,50,-1
 512 128 l 1,51,-1
 512 256 l 1,48,-1
128 128 m 1,52,-1
 256 128 l 1,53,-1
 256 0 l 1,54,-1
 128 0 l 1,55,-1
 128 128 l 1,52,-1
256 128 m 1,56,-1
 384 128 l 1,57,-1
 384 0 l 1,58,-1
 256 0 l 1,59,-1
 256 128 l 1,56,-1
384 128 m 1,60,-1
 512 128 l 1,61,-1
 512 0 l 1,62,-1
 384 0 l 1,63,-1
 384 128 l 1,60,-1
EndSplineSet
Validated: 5
EndChar

StartChar: four
Encoding: 52 52 22
Width: 768
GlyphClass: 1
Flags: W
LayerCount: 2
Fore
SplineSet
384 768 m 1,0,-1
 512 768 l 1,1,-1
 512 640 l 1,2,-1
 384 640 l 1,3,-1
 384 768 l 1,0,-1
256 640 m 1,4,-1
 384 640 l 1,5,-1
 384 512 l 1,6,-1
 256 512 l 1,7,-1
 256 640 l 1,4,-1
384 640 m 1,8,-1
 512 640 l 1,9,-1
 512 512 l 1,10,-1
 384 512 l 1,11,-1
 384 640 l 1,8,-1
128 512 m 1,12,-1
 256 512 l 1,13,-1
 256 384 l 1,14,-1
 128 384 l 1,15,-1
 128 512 l 1,12,-1
256 512 m 1,16,-1
 384 512 l 1,17,-1
 384 384 l 1,18,-1
 256 384 l 1,19,-1
 256 512 l 1,16,-1
384 512 m 1,20,-1
 512 512 l 1,21,-1
 512 384 l 1,22,-1
 384 384 l 1,23,-1
 384 512 l 1,20,-1
0 384 m 1,24,-1
 128 384 l 1,25,-1
 128 256 l 1,26,-1
 0 256 l 1,27,-1
 0 384 l 1,24,-1
256 384 m 1,28,-1
 384 384 l 1,29,-1
 384 256 l 1,30,-1
 256 256 l 1,31,-1
 256 384 l 1,28,-1
384 384 m 1,32,-1
 512 384 l 1,33,-1
 512 256 l 1,34,-1
 384 256 l 1,35,-1
 384 384 l 1,32,-1
0 256 m 1,36,-1
 128 256 l 1,37,-1
 128 128 l 1,38,-1
 0 128 l 1,39,-1
 0 256 l 1,36,-1
128 256 m 1,40,-1
 256 256 l 1,41,-1
 256 128 l 1,42,-1
 128 128 l 1,43,-1
 128 256 l 1,40,-1
256 256 m 1,44,-1
 384 256 l 1,45,-1
 384 128 l 1,46,-1
 256 128 l 1,47,-1
 256 256 l 1,44,-1
384 256 m 1,48,-1
 512 256 l 1,49,-1
 512 128 l 1,50,-1
 384 128 l 1,51,-1
 384 256 l 1,48,-1
512 256 m 1,52,-1
 640 256 l 1,53,-1
 640 128 l 1,54,-1
 512 128 l 1,55,-1
 512 256 l 1,52,-1
256 128 m 1,56,-1
 384 128 l 1,57,-1
 384 0 l 1,58,-1
 256 0 l 1,59,-1
 256 128 l 1,56,-1
384 128 m 1,60,-1
 512 128 l 1,61,-1
 512 0 l 1,62,-1
 384 0 l 1,63,-1
 384 128 l 1,60,-1
EndSplineSet
Validated: 5
EndChar

StartChar: five
Encoding: 53 53 23
Width: 768
GlyphClass: 1
Flags: W
LayerCount: 2
Fore
SplineSet
0 768 m 1,0,-1
 128 768 l 1,1,-1
 128 640 l 1,2,-1
 0 640 l 1,3,-1
 0 768 l 1,0,-1
128 768 m 1,4,-1
 256 768 l 1,5,-1
 256 640 l 1,6,-1
 128 640 l 1,7,-1
 128 768 l 1,4,-1
256 768 m 1,8,-1
 384 768 l 1,9,-1
 384 640 l 1,10,-1
 256 640 l 1,11,-1
 256 768 l 1,8,-1
384 768 m 1,12,-1
 512 768 l 1,13,-1
 512 640 l 1,14,-1
 384 640 l 1,15,-1
 384 768 l 1,12,-1
0 640 m 1,16,-1
 128 640 l 1,17,-1
 128 512 l 1,18,-1
 0 512 l 1,19,-1
 0 640 l 1,16,-1
128 640 m 1,20,-1
 256 640 l 1,21,-1
 256 512 l 1,22,-1
 128 512 l 1,23,-1
 128 640 l 1,20,-1
0 512 m 1,24,-1
 128 512 l 1,25,-1
 128 384 l 1,26,-1
 0 384 l 1,27,-1
 0 512 l 1,24,-1
128 512 m 1,28,-1
 256 512 l 1,29,-1
 256 384 l 1,30,-1
 128 384 l 1,31,-1
 128 512 l 1,28,-1
0 384 m 1,32,-1
 128 384 l 1,33,-1
 128 256 l 1,34,-1
 0 256 l 1,35,-1
 0 384 l 1,32,-1
128 384 m 1,36,-1
 256 384 l 1,37,-1
 256 256 l 1,38,-1
 128 256 l 1,39,-1
 128 384 l 1,36,-1
256 384 m 1,40,-1
 384 384 l 1,41,-1
 384 256 l 1,42,-1
 256 256 l 1,43,-1
 256 384 l 1,40,-1
384 384 m 1,44,-1
 512 384 l 1,45,-1
 512 256 l 1,46,-1
 384 256 l 1,47,-1
 384 384 l 1,44,-1
512 256 m 1,48,-1
 640 256 l 1,49,-1
 640 128 l 1,50,-1
 512 128 l 1,51,-1
 512 256 l 1,48,-1
0 128 m 1,52,-1
 128 128 l 1,53,-1
 128 0 l 1,54,-1
 0 0 l 1,55,-1
 0 128 l 1,52,-1
128 128 m 1,56,-1
 256 128 l 1,57,-1
 256 0 l 1,58,-1
 128 0 l 1,59,-1
 128 128 l 1,56,-1
256 128 m 1,60,-1
 384 128 l 1,61,-1
 384 0 l 1,62,-1
 256 0 l 1,63,-1
 256 128 l 1,60,-1
384 128 m 1,64,-1
 512 128 l 1,65,-1
 512 0 l 1,66,-1
 384 0 l 1,67,-1
 384 128 l 1,64,-1
EndSplineSet
Validated: 5
EndChar

StartChar: six
Encoding: 54 54 24
Width: 768
GlyphClass: 1
Flags: W
LayerCount: 2
Fore
SplineSet
128 768 m 1,0,-1
 256 768 l 1,1,-1
 256 640 l 1,2,-1
 128 640 l 1,3,-1
 128 768 l 1,0,-1
256 768 m 1,4,-1
 384 768 l 1,5,-1
 384 640 l 1,6,-1
 256 640 l 1,7,-1
 256 768 l 1,4,-1
384 768 m 1,8,-1
 512 768 l 1,9,-1
 512 640 l 1,10,-1
 384 640 l 1,11,-1
 384 768 l 1,8,-1
0 640 m 1,12,-1
 128 640 l 1,13,-1
 128 512 l 1,14,-1
 0 512 l 1,15,-1
 0 640 l 1,12,-1
128 640 m 1,16,-1
 256 640 l 1,17,-1
 256 512 l 1,18,-1
 128 512 l 1,19,-1
 128 640 l 1,16,-1
0 512 m 1,20,-1
 128 512 l 1,21,-1
 128 384 l 1,22,-1
 0 384 l 1,23,-1
 0 512 l 1,20,-1
128 512 m 1,24,-1
 256 512 l 1,25,-1
 256 384 l 1,26,-1
 128 384 l 1,27,-1
 128 512 l 1,24,-1
0 384 m 1,28,-1
 128 384 l 1,29,-1
 128 256 l 1,30,-1
 0 256 l 1,31,-1
 0 384 l 1,28,-1
128 384 m 1,32,-1
 256 384 l 1,33,-1
 256 256 l 1,34,-1
 128 256 l 1,35,-1
 128 384 l 1,32,-1
256 384 m 1,36,-1
 384 384 l 1,37,-1
 384 256 l 1,38,-1
 256 256 l 1,39,-1
 256 384 l 1,36,-1
384 384 m 1,40,-1
 512 384 l 1,41,-1
 512 256 l 1,42,-1
 384 256 l 1,43,-1
 384 384 l 1,40,-1
0 256 m 1,44,-1
 128 256 l 1,45,-1
 128 128 l 1,46,-1
 0 128 l 1,47,-1
 0 256 l 1,44,-1
128 256 m 1,48,-1
 256 256 l 1,49,-1
 256 128 l 1,50,-1
 128 128 l 1,51,-1
 128 256 l 1,48,-1
512 256 m 1,52,-1
 640 256 l 1,53,-1
 640 128 l 1,54,-1
 512 128 l 1,55,-1
 512 256 l 1,52,-1
128 128 m 1,56,-1
 256 128 l 1,57,-1
 256 0 l 1,58,-1
 128 0 l 1,59,-1
 128 128 l 1,56,-1
256 128 m 1,60,-1
 384 128 l 1,61,-1
 384 0 l 1,62,-1
 256 0 l 1,63,-1
 256 128 l 1,60,-1
384 128 m 1,64,-1
 512 128 l 1,65,-1
 512 0 l 1,66,-1
 384 0 l 1,67,-1
 384 128 l 1,64,-1
EndSplineSet
Validated: 5
EndChar

StartChar: seven
Encoding: 55 55 25
Width: 768
GlyphClass: 1
Flags: W
LayerCount: 2
Fore
SplineSet
0 768 m 1,0,-1
 128 768 l 1,1,-1
 128 640 l 1,2,-1
 0 640 l 1,3,-1
 0 768 l 1,0,-1
128 768 m 1,4,-1
 256 768 l 1,5,-1
 256 640 l 1,6,-1
 128 640 l 1,7,-1
 128 768 l 1,4,-1
256 768 m 1,8,-1
 384 768 l 1,9,-1
 384 640 l 1,10,-1
 256 640 l 1,11,-1
 256 768 l 1,8,-1
384 768 m 1,12,-1
 512 768 l 1,13,-1
 512 640 l 1,14,-1
 384 640 l 1,15,-1
 384 768 l 1,12,-1
512 768 m 1,16,-1
 640 768 l 1,17,-1
 640 640 l 1,18,-1
 512 640 l 1,19,-1
 512 768 l 1,16,-1
384 640 m 1,20,-1
 512 640 l 1,21,-1
 512 512 l 1,22,-1
 384 512 l 1,23,-1
 384 640 l 1,20,-1
512 640 m 1,24,-1
 640 640 l 1,25,-1
 640 512 l 1,26,-1
 512 512 l 1,27,-1
 512 640 l 1,24,-1
256 512 m 1,28,-1
 384 512 l 1,29,-1
 384 384 l 1,30,-1
 256 384 l 1,31,-1
 256 512 l 1,28,-1
384 512 m 1,32,-1
 512 512 l 1,33,-1
 512 384 l 1,34,-1
 384 384 l 1,35,-1
 384 512 l 1,32,-1
128 384 m 1,36,-1
 256 384 l 1,37,-1
 256 256 l 1,38,-1
 128 256 l 1,39,-1
 128 384 l 1,36,-1
256 384 m 1,40,-1
 384 384 l 1,41,-1
 384 256 l 1,42,-1
 256 256 l 1,43,-1
 256 384 l 1,40,-1
128 256 m 1,44,-1
 256 256 l 1,45,-1
 256 128 l 1,46,-1
 128 128 l 1,47,-1
 128 256 l 1,44,-1
256 256 m 1,48,-1
 384 256 l 1,49,-1
 384 128 l 1,50,-1
 256 128 l 1,51,-1
 256 256 l 1,48,-1
128 128 m 1,52,-1
 256 128 l 1,53,-1
 256 0 l 1,54,-1
 128 0 l 1,55,-1
 128 128 l 1,52,-1
256 128 m 1,56,-1
 384 128 l 1,57,-1
 384 0 l 1,58,-1
 256 0 l 1,59,-1
 256 128 l 1,56,-1
EndSplineSet
Validated: 5
EndChar

StartChar: eight
Encoding: 56 56 26
Width: 768
GlyphClass: 1
Flags: W
LayerCount: 2
Fore
SplineSet
128 768 m 1,0,-1
 256 768 l 1,1,-1
 256 640 l 1,2,-1
 128 640 l 1,3,-1
 128 768 l 1,0,-1
256 768 m 1,4,-1
 384 768 l 1,5,-1
 384 640 l 1,6,-1
 256 640 l 1,7,-1
 256 768 l 1,4,-1
384 768 m 1,8,-1
 512 768 l 1,9,-1
 512 640 l 1,10,-1
 384 640 l 1,11,-1
 384 768 l 1,8,-1
0 640 m 1,12,-1
 128 640 l 1,13,-1
 128 512 l 1,14,-1
 0 512 l 1,15,-1
 0 640 l 1,12,-1
128 640 m 1,16,-1
 256 640 l 1,17,-1
 256 512 l 1,18,-1
 128 512 l 1,19,-1
 128 640 l 1,16,-1
512 640 m 1,20,-1
 640 640 l 1,21,-1
 640 512 l 1,22,-1
 512 512 l 1,23,-1
 512 640 l 1,20,-1
0 512 m 1,24,-1
 128 512 l 1,25,-1
 128 384 l 1,26,-1
 0 384 l 1,27,-1
 0 512 l 1,24,-1
128 512 m 1,28,-1
 256 512 l 1,29,-1
 256 384 l 1,30,-1
 128 384 l 1,31,-1
 128 512 l 1,28,-1
512 512 m 1,32,-1
 640 512 l 1,33,-1
 640 384 l 1,34,-1
 512 384 l 1,35,-1
 512 512 l 1,32,-1
128 384 m 1,36,-1
 256 384 l 1,37,-1
 256 256 l 1,38,-1
 128 256 l 1,39,-1
 128 384 l 1,36,-1
256 384 m 1,40,-1
 384 384 l 1,41,-1
 384 256 l 1,42,-1
 256 256 l 1,43,-1
 256 384 l 1,40,-1
384 384 m 1,44,-1
 512 384 l 1,45,-1
 512 256 l 1,46,-1
 384 256 l 1,47,-1
 384 384 l 1,44,-1
0 256 m 1,48,-1
 128 256 l 1,49,-1
 128 128 l 1,50,-1
 0 128 l 1,51,-1
 0 256 l 1,48,-1
128 256 m 1,52,-1
 256 256 l 1,53,-1
 256 128 l 1,54,-1
 128 128 l 1,55,-1
 128 256 l 1,52,-1
512 256 m 1,56,-1
 640 256 l 1,57,-1
 640 128 l 1,58,-1
 512 128 l 1,59,-1
 512 256 l 1,56,-1
128 128 m 1,60,-1
 256 128 l 1,61,-1
 256 0 l 1,62,-1
 128 0 l 1,63,-1
 128 128 l 1,60,-1
256 128 m 1,64,-1
 384 128 l 1,65,-1
 384 0 l 1,66,-1
 256 0 l 1,67,-1
 256 128 l 1,64,-1
384 128 m 1,68,-1
 512 128 l 1,69,-1
 512 0 l 1,70,-1
 384 0 l 1,71,-1
 384 128 l 1,68,-1
EndSplineSet
Validated: 5
EndChar

StartChar: nine
Encoding: 57 57 27
Width: 768
GlyphClass: 1
Flags: W
LayerCount: 2
Fore
SplineSet
128 768 m 1,0,-1
 256 768 l 1,1,-1
 256 640 l 1,2,-1
 128 640 l 1,3,-1
 128 768 l 1,0,-1
256 768 m 1,4,-1
 384 768 l 1,5,-1
 384 640 l 1,6,-1
 256 640 l 1,7,-1
 256 768 l 1,4,-1
384 768 m 1,8,-1
 512 768 l 1,9,-1
 512 640 l 1,10,-1
 384 640 l 1,11,-1
 384 768 l 1,8,-1
0 640 m 1,12,-1
 128 640 l 1,13,-1
 128 512 l 1,14,-1
 0 512 l 1,15,-1
 0 640 l 1,12,-1
384 640 m 1,16,-1
 512 640 l 1,17,-1
 512 512 l 1,18,-1
 384 512 l 1,19,-1
 384 640 l 1,16,-1
512 640 m 1,20,-1
 640 640 l 1,21,-1
 640 512 l 1,22,-1
 512 512 l 1,23,-1
 512 640 l 1,20,-1
0 512 m 1,24,-1
 128 512 l 1,25,-1
 128 384 l 1,26,-1
 0 384 l 1,27,-1
 0 512 l 1,24,-1
384 512 m 1,28,-1
 512 512 l 1,29,-1
 512 384 l 1,30,-1
 384 384 l 1,31,-1
 384 512 l 1,28,-1
512 512 m 1,32,-1
 640 512 l 1,33,-1
 640 384 l 1,34,-1
 512 384 l 1,35,-1
 512 512 l 1,32,-1
128 384 m 1,36,-1
 256 384 l 1,37,-1
 256 256 l 1,38,-1
 128 256 l 1,39,-1
 128 384 l 1,36,-1
256 384 m 1,40,-1
 384 384 l 1,41,-1
 384 256 l 1,42,-1
 256 256 l 1,43,-1
 256 384 l 1,40,-1
384 384 m 1,44,-1
 512 384 l 1,45,-1
 512 256 l 1,46,-1
 384 256 l 1,47,-1
 384 384 l 1,44,-1
512 384 m 1,48,-1
 640 384 l 1,49,-1
 640 256 l 1,50,-1
 512 256 l 1,51,-1
 512 384 l 1,48,-1
384 256 m 1,52,-1
 512 256 l 1,53,-1
 512 128 l 1,54,-1
 384 128 l 1,55,-1
 384 256 l 1,52,-1
512 256 m 1,56,-1
 640 256 l 1,57,-1
 640 128 l 1,58,-1
 512 128 l 1,59,-1
 512 256 l 1,56,-1
384 128 m 1,60,-1
 512 128 l 1,61,-1
 512 0 l 1,62,-1
 384 0 l 1,63,-1
 384 128 l 1,60,-1
512 128 m 1,64,-1
 640 128 l 1,65,-1
 640 0 l 1,66,-1
 512 0 l 1,67,-1
 512 128 l 1,64,-1
EndSplineSet
Validated: 5
EndChar

StartChar: colon
Encoding: 58 58 28
Width: 768
GlyphClass: 1
Flags: W
LayerCount: 2
Fore
SplineSet
128 640 m 1,0,-1
 256 640 l 1,1,-1
 256 512 l 1,2,-1
 128 512 l 1,3,-1
 128 640 l 1,0,-1
256 640 m 1,4,-1
 384 640 l 1,5,-1
 384 512 l 1,6,-1
 256 512 l 1,7,-1
 256 640 l 1,4,-1
128 512 m 1,8,-1
 256 512 l 1,9,-1
 256 384 l 1,10,-1
 128 384 l 1,11,-1
 128 512 l 1,8,-1
256 512 m 1,12,-1
 384 512 l 1,13,-1
 384 384 l 1,14,-1
 256 384 l 1,15,-1
 256 512 l 1,12,-1
128 256 m 1,16,-1
 256 256 l 1,17,-1
 256 128 l 1,18,-1
 128 128 l 1,19,-1
 128 256 l 1,16,-1
256 256 m 1,20,-1
 384 256 l 1,21,-1
 384 128 l 1,22,-1
 256 128 l 1,23,-1
 256 256 l 1,20,-1
128 128 m 1,24,-1
 256 128 l 1,25,-1
 256 0 l 1,26,-1
 128 0 l 1,27,-1
 128 128 l 1,24,-1
256 128 m 1,28,-1
 384 128 l 1,29,-1
 384 0 l 1,30,-1
 256 0 l 1,31,-1
 256 128 l 1,28,-1
EndSplineSet
Validated: 5
EndChar

StartChar: semicolon
Encoding: 59 59 29
Width: 768
GlyphClass: 1
Flags: W
LayerCount: 2
Fore
SplineSet
128 640 m 1,0,-1
 256 640 l 1,1,-1
 256 512 l 1,2,-1
 128 512 l 1,3,-1
 128 640 l 1,0,-1
256 640 m 1,4,-1
 384 640 l 1,5,-1
 384 512 l 1,6,-1
 256 512 l 1,7,-1
 256 640 l 1,4,-1
128 512 m 1,8,-1
 256 512 l 1,9,-1
 256 384 l 1,10,-1
 128 384 l 1,11,-1
 128 512 l 1,8,-1
256 512 m 1,12,-1
 384 512 l 1,13,-1
 384 384 l 1,14,-1
 256 384 l 1,15,-1
 256 512 l 1,12,-1
128 256 m 1,16,-1
 256 256 l 1,17,-1
 256 128 l 1,18,-1
 128 128 l 1,19,-1
 128 256 l 1,16,-1
256 256 m 1,20,-1
 384 256 l 1,21,-1
 384 128 l 1,22,-1
 256 128 l 1,23,-1
 256 256 l 1,20,-1
128 128 m 1,24,-1
 256 128 l 1,25,-1
 256 0 l 1,26,-1
 128 0 l 1,27,-1
 128 128 l 1,24,-1
256 128 m 1,28,-1
 384 128 l 1,29,-1
 384 0 l 1,30,-1
 256 0 l 1,31,-1
 256 128 l 1,28,-1
256 0 m 1,32,-1
 384 0 l 1,33,-1
 384 -128 l 1,34,-1
 256 -128 l 1,35,-1
 256 0 l 1,32,-1
EndSplineSet
Validated: 5
EndChar

StartChar: less
Encoding: 60 60 30
Width: 768
GlyphClass: 1
Flags: W
LayerCount: 2
Fore
SplineSet
256 640 m 1,0,-1
 384 640 l 1,1,-1
 384 512 l 1,2,-1
 256 512 l 1,3,-1
 256 640 l 1,0,-1
384 640 m 1,4,-1
 512 640 l 1,5,-1
 512 512 l 1,6,-1
 384 512 l 1,7,-1
 384 640 l 1,4,-1
128 512 m 1,8,-1
 256 512 l 1,9,-1
 256 384 l 1,10,-1
 128 384 l 1,11,-1
 128 512 l 1,8,-1
256 512 m 1,12,-1
 384 512 l 1,13,-1
 384 384 l 1,14,-1
 256 384 l 1,15,-1
 256 512 l 1,12,-1
0 384 m 1,16,-1
 128 384 l 1,17,-1
 128 256 l 1,18,-1
 0 256 l 1,19,-1
 0 384 l 1,16,-1
128 384 m 1,20,-1
 256 384 l 1,21,-1
 256 256 l 1,22,-1
 128 256 l 1,23,-1
 128 384 l 1,20,-1
128 256 m 1,24,-1
 256 256 l 1,25,-1
 256 128 l 1,26,-1
 128 128 l 1,27,-1
 128 256 l 1,24,-1
256 256 m 1,28,-1
 384 256 l 1,29,-1
 384 128 l 1,30,-1
 256 128 l 1,31,-1
 256 256 l 1,28,-1
256 128 m 1,32,-1
 384 128 l 1,33,-1
 384 0 l 1,34,-1
 256 0 l 1,35,-1
 256 128 l 1,32,-1
384 128 m 1,36,-1
 512 128 l 1,37,-1
 512 0 l 1,38,-1
 384 0 l 1,39,-1
 384 128 l 1,36,-1
EndSplineSet
Validated: 5
EndChar

StartChar: equal
Encoding: 61 61 31
Width: 768
GlyphClass: 1
Flags: W
LayerCount: 2
Fore
SplineSet
0 512 m 1,0,-1
 128 512 l 1,1,-1
 128 384 l 1,2,-1
 0 384 l 1,3,-1
 0 512 l 1,0,-1
128 512 m 1,4,-1
 256 512 l 1,5,-1
 256 384 l 1,6,-1
 128 384 l 1,7,-1
 128 512 l 1,4,-1
256 512 m 1,8,-1
 384 512 l 1,9,-1
 384 384 l 1,10,-1
 256 384 l 1,11,-1
 256 512 l 1,8,-1
384 512 m 1,12,-1
 512 512 l 1,13,-1
 512 384 l 1,14,-1
 384 384 l 1,15,-1
 384 512 l 1,12,-1
512 512 m 1,16,-1
 640 512 l 1,17,-1
 640 384 l 1,18,-1
 512 384 l 1,19,-1
 512 512 l 1,16,-1
0 256 m 1,20,-1
 128 256 l 1,21,-1
 128 128 l 1,22,-1
 0 128 l 1,23,-1
 0 256 l 1,20,-1
128 256 m 1,24,-1
 256 256 l 1,25,-1
 256 128 l 1,26,-1
 128 128 l 1,27,-1
 128 256 l 1,24,-1
256 256 m 1,28,-1
 384 256 l 1,29,-1
 384 128 l 1,30,-1
 256 128 l 1,31,-1
 256 256 l 1,28,-1
384 256 m 1,32,-1
 512 256 l 1,33,-1
 512 128 l 1,34,-1
 384 128 l 1,35,-1
 384 256 l 1,32,-1
512 256 m 1,36,-1
 640 256 l 1,37,-1
 640 128 l 1,38,-1
 512 128 l 1,39,-1
 512 256 l 1,36,-1
EndSplineSet
Validated: 5
EndChar

StartChar: greater
Encoding: 62 62 32
Width: 768
GlyphClass: 1
Flags: W
LayerCount: 2
Fore
SplineSet
128 640 m 1,0,-1
 256 640 l 1,1,-1
 256 512 l 1,2,-1
 128 512 l 1,3,-1
 128 640 l 1,0,-1
256 640 m 1,4,-1
 384 640 l 1,5,-1
 384 512 l 1,6,-1
 256 512 l 1,7,-1
 256 640 l 1,4,-1
256 512 m 1,8,-1
 384 512 l 1,9,-1
 384 384 l 1,10,-1
 256 384 l 1,11,-1
 256 512 l 1,8,-1
384 512 m 1,12,-1
 512 512 l 1,13,-1
 512 384 l 1,14,-1
 384 384 l 1,15,-1
 384 512 l 1,12,-1
384 384 m 1,16,-1
 512 384 l 1,17,-1
 512 256 l 1,18,-1
 384 256 l 1,19,-1
 384 384 l 1,16,-1
512 384 m 1,20,-1
 640 384 l 1,21,-1
 640 256 l 1,22,-1
 512 256 l 1,23,-1
 512 384 l 1,20,-1
256 256 m 1,24,-1
 384 256 l 1,25,-1
 384 128 l 1,26,-1
 256 128 l 1,27,-1
 256 256 l 1,24,-1
384 256 m 1,28,-1
 512 256 l 1,29,-1
 512 128 l 1,30,-1
 384 128 l 1,31,-1
 384 256 l 1,28,-1
128 128 m 1,32,-1
 256 128 l 1,33,-1
 256 0 l 1,34,-1
 128 0 l 1,35,-1
 128 128 l 1,32,-1
256 128 m 1,36,-1
 384 128 l 1,37,-1
 384 0 l 1,38,-1
 256 0 l 1,39,-1
 256 128 l 1,36,-1
EndSplineSet
Validated: 5
EndChar

StartChar: question
Encoding: 63 63 33
Width: 768
GlyphClass: 1
Flags: W
LayerCount: 2
Fore
SplineSet
128 768 m 1,0,-1
 256 768 l 1,1,-1
 256 640 l 1,2,-1
 128 640 l 1,3,-1
 128 768 l 1,0,-1
256 768 m 1,4,-1
 384 768 l 1,5,-1
 384 640 l 1,6,-1
 256 640 l 1,7,-1
 256 768 l 1,4,-1
384 768 m 1,8,-1
 512 768 l 1,9,-1
 512 640 l 1,10,-1
 384 640 l 1,11,-1
 384 768 l 1,8,-1
0 640 m 1,12,-1
 128 640 l 1,13,-1
 128 512 l 1,14,-1
 0 512 l 1,15,-1
 0 640 l 1,12,-1
384 640 m 1,16,-1
 512 640 l 1,17,-1
 512 512 l 1,18,-1
 384 512 l 1,19,-1
 384 640 l 1,16,-1
512 640 m 1,20,-1
 640 640 l 1,21,-1
 640 512 l 1,22,-1
 512 512 l 1,23,-1
 512 640 l 1,20,-1
256 512 m 1,24,-1
 384 512 l 1,25,-1
 384 384 l 1,26,-1
 256 384 l 1,27,-1
 256 512 l 1,24,-1
384 512 m 1,28,-1
 512 512 l 1,29,-1
 512 384 l 1,30,-1
 384 384 l 1,31,-1
 384 512 l 1,28,-1
512 512 m 1,32,-1
 640 512 l 1,33,-1
 640 384 l 1,34,-1
 512 384 l 1,35,-1
 512 512 l 1,32,-1
256 384 m 1,36,-1
 384 384 l 1,37,-1
 384 256 l 1,38,-1
 256 256 l 1,39,-1
 256 384 l 1,36,-1
384 384 m 1,40,-1
 512 384 l 1,41,-1
 512 256 l 1,42,-1
 384 256 l 1,43,-1
 384 384 l 1,40,-1
256 128 m 1,44,-1
 384 128 l 1,45,-1
 384 0 l 1,46,-1
 256 0 l 1,47,-1
 256 128 l 1,44,-1
384 128 m 1,48,-1
 512 128 l 1,49,-1
 512 0 l 1,50,-1
 384 0 l 1,51,-1
 384 128 l 1,48,-1
EndSplineSet
Validated: 5
EndChar

StartChar: at
Encoding: 64 64 34
Width: 768
GlyphClass: 1
Flags: W
LayerCount: 2
Fore
SplineSet
128 896 m 1,0,-1
 256 896 l 1,1,-1
 256 768 l 1,2,-1
 128 768 l 1,3,-1
 128 896 l 1,0,-1
256 896 m 1,4,-1
 384 896 l 1,5,-1
 384 768 l 1,6,-1
 256 768 l 1,7,-1
 256 896 l 1,4,-1
384 896 m 1,8,-1
 512 896 l 1,9,-1
 512 768 l 1,10,-1
 384 768 l 1,11,-1
 384 896 l 1,8,-1
0 768 m 1,12,-1
 128 768 l 1,13,-1
 128 640 l 1,14,-1
 0 640 l 1,15,-1
 0 768 l 1,12,-1
128 768 m 1,16,-1
 256 768 l 1,17,-1
 256 640 l 1,18,-1
 128 640 l 1,19,-1
 128 768 l 1,16,-1
512 768 m 1,20,-1
 640 768 l 1,21,-1
 640 640 l 1,22,-1
 512 640 l 1,23,-1
 512 768 l 1,20,-1
0 640 m 1,24,-1
 128 640 l 1,25,-1
 128 512 l 1,26,-1
 0 512 l 1,27,-1
 0 640 l 1,24,-1
128 640 m 1,28,-1
 256 640 l 1,29,-1
 256 512 l 1,30,-1
 128 512 l 1,31,-1
 128 640 l 1,28,-1
256 640 m 1,32,-1
 384 640 l 1,33,-1
 384 512 l 1,34,-1
 256 512 l 1,35,-1
 256 640 l 1,32,-1
384 640 m 1,36,-1
 512 640 l 1,37,-1
 512 512 l 1,38,-1
 384 512 l 1,39,-1
 384 640 l 1,36,-1
512 640 m 1,40,-1
 640 640 l 1,41,-1
 640 512 l 1,42,-1
 512 512 l 1,43,-1
 512 640 l 1,40,-1
0 512 m 1,44,-1
 128 512 l 1,45,-1
 128 384 l 1,46,-1
 0 384 l 1,47,-1
 0 512 l 1,44,-1
128 512 m 1,48,-1
 256 512 l 1,49,-1
 256 384 l 1,50,-1
 128 384 l 1,51,-1
 128 512 l 1,48,-1
256 512 m 1,52,-1
 384 512 l 1,53,-1
 384 384 l 1,54,-1
 256 384 l 1,55,-1
 256 512 l 1,52,-1
512 512 m 1,56,-1
 640 512 l 1,57,-1
 640 384 l 1,58,-1
 512 384 l 1,59,-1
 512 512 l 1,56,-1
0 384 m 1,60,-1
 128 384 l 1,61,-1
 128 256 l 1,62,-1
 0 256 l 1,63,-1
 0 384 l 1,60,-1
128 384 m 1,64,-1
 256 384 l 1,65,-1
 256 256 l 1,66,-1
 128 256 l 1,67,-1
 128 384 l 1,64,-1
256 384 m 1,68,-1
 384 384 l 1,69,-1
 384 256 l 1,70,-1
 256 256 l 1,71,-1
 256 384 l 1,68,-1
384 384 m 1,72,-1
 512 384 l 1,73,-1
 512 256 l 1,74,-1
 384 256 l 1,75,-1
 384 384 l 1,72,-1
512 384 m 1,76,-1
 640 384 l 1,77,-1
 640 256 l 1,78,-1
 512 256 l 1,79,-1
 512 384 l 1,76,-1
0 256 m 1,80,-1
 128 256 l 1,81,-1
 128 128 l 1,82,-1
 0 128 l 1,83,-1
 0 256 l 1,80,-1
128 256 m 1,84,-1
 256 256 l 1,85,-1
 256 128 l 1,86,-1
 128 128 l 1,87,-1
 128 256 l 1,84,-1
128 128 m 1,88,-1
 256 128 l 1,89,-1
 256 0 l 1,90,-1
 128 0 l 1,91,-1
 128 128 l 1,88,-1
256 128 m 1,92,-1
 384 128 l 1,93,-1
 384 0 l 1,94,-1
 256 0 l 1,95,-1
 256 128 l 1,92,-1
384 128 m 1,96,-1
 512 128 l 1,97,-1
 512 0 l 1,98,-1
 384 0 l 1,99,-1
 384 128 l 1,96,-1
EndSplineSet
Validated: 5
EndChar

StartChar: A
Encoding: 65 65 35
Width: 768
GlyphClass: 1
Flags: W
LayerCount: 2
Fore
SplineSet
128 768 m 1,0,-1
 256 768 l 1,1,-1
 256 640 l 1,2,-1
 128 640 l 1,3,-1
 128 768 l 1,0,-1
256 768 m 1,4,-1
 384 768 l 1,5,-1
 384 640 l 1,6,-1
 256 640 l 1,7,-1
 256 768 l 1,4,-1
384 768 m 1,8,-1
 512 768 l 1,9,-1
 512 640 l 1,10,-1
 384 640 l 1,11,-1
 384 768 l 1,8,-1
0 640 m 1,12,-1
 128 640 l 1,13,-1
 128 512 l 1,14,-1
 0 512 l 1,15,-1
 0 640 l 1,12,-1
128 640 m 1,16,-1
 256 640 l 1,17,-1
 256 512 l 1,18,-1
 128 512 l 1,19,-1
 128 640 l 1,16,-1
512 640 m 1,20,-1
 640 640 l 1,21,-1
 640 512 l 1,22,-1
 512 512 l 1,23,-1
 512 640 l 1,20,-1
0 512 m 1,24,-1
 128 512 l 1,25,-1
 128 384 l 1,26,-1
 0 384 l 1,27,-1
 0 512 l 1,24,-1
128 512 m 1,28,-1
 256 512 l 1,29,-1
 256 384 l 1,30,-1
 128 384 l 1,31,-1
 128 512 l 1,28,-1
512 512 m 1,32,-1
 640 512 l 1,33,-1
 640 384 l 1,34,-1
 512 384 l 1,35,-1
 512 512 l 1,32,-1
0 384 m 1,36,-1
 128 384 l 1,37,-1
 128 256 l 1,38,-1
 0 256 l 1,39,-1
 0 384 l 1,36,-1
128 384 m 1,40,-1
 256 384 l 1,41,-1
 256 256 l 1,42,-1
 128 256 l 1,43,-1
 128 384 l 1,40,-1
512 384 m 1,44,-1
 640 384 l 1,45,-1
 640 256 l 1,46,-1
 512 256 l 1,47,-1
 512 384 l 1,44,-1
0 256 m 1,48,-1
 128 256 l 1,49,-1
 128 128 l 1,50,-1
 0 128 l 1,51,-1
 0 256 l 1,48,-1
128 256 m 1,52,-1
 256 256 l 1,53,-1
 256 128 l 1,54,-1
 128 128 l 1,55,-1
 128 256 l 1,52,-1
256 256 m 1,56,-1
 384 256 l 1,57,-1
 384 128 l 1,58,-1
 256 128 l 1,59,-1
 256 256 l 1,56,-1
384 256 m 1,60,-1
 512 256 l 1,61,-1
 512 128 l 1,62,-1
 384 128 l 1,63,-1
 384 256 l 1,60,-1
512 256 m 1,64,-1
 640 256 l 1,65,-1
 640 128 l 1,66,-1
 512 128 l 1,67,-1
 512 256 l 1,64,-1
0 128 m 1,68,-1
 128 128 l 1,69,-1
 128 0 l 1,70,-1
 0 0 l 1,71,-1
 0 128 l 1,68,-1
128 128 m 1,72,-1
 256 128 l 1,73,-1
 256 0 l 1,74,-1
 128 0 l 1,75,-1
 128 128 l 1,72,-1
512 128 m 1,76,-1
 640 128 l 1,77,-1
 640 0 l 1,78,-1
 512 0 l 1,79,-1
 512 128 l 1,76,-1
EndSplineSet
Validated: 5
EndChar

StartChar: B
Encoding: 66 66 36
Width: 768
GlyphClass: 1
Flags: W
LayerCount: 2
Fore
SplineSet
0 768 m 1,0,-1
 128 768 l 1,1,-1
 128 640 l 1,2,-1
 0 640 l 1,3,-1
 0 768 l 1,0,-1
128 768 m 1,4,-1
 256 768 l 1,5,-1
 256 640 l 1,6,-1
 128 640 l 1,7,-1
 128 768 l 1,4,-1
256 768 m 1,8,-1
 384 768 l 1,9,-1
 384 640 l 1,10,-1
 256 640 l 1,11,-1
 256 768 l 1,8,-1
384 768 m 1,12,-1
 512 768 l 1,13,-1
 512 640 l 1,14,-1
 384 640 l 1,15,-1
 384 768 l 1,12,-1
0 640 m 1,16,-1
 128 640 l 1,17,-1
 128 512 l 1,18,-1
 0 512 l 1,19,-1
 0 640 l 1,16,-1
128 640 m 1,20,-1
 256 640 l 1,21,-1
 256 512 l 1,22,-1
 128 512 l 1,23,-1
 128 640 l 1,20,-1
512 640 m 1,24,-1
 640 640 l 1,25,-1
 640 512 l 1,26,-1
 512 512 l 1,27,-1
 512 640 l 1,24,-1
0 512 m 1,28,-1
 128 512 l 1,29,-1
 128 384 l 1,30,-1
 0 384 l 1,31,-1
 0 512 l 1,28,-1
128 512 m 1,32,-1
 256 512 l 1,33,-1
 256 384 l 1,34,-1
 128 384 l 1,35,-1
 128 512 l 1,32,-1
512 512 m 1,36,-1
 640 512 l 1,37,-1
 640 384 l 1,38,-1
 512 384 l 1,39,-1
 512 512 l 1,36,-1
0 384 m 1,40,-1
 128 384 l 1,41,-1
 128 256 l 1,42,-1
 0 256 l 1,43,-1
 0 384 l 1,40,-1
128 384 m 1,44,-1
 256 384 l 1,45,-1
 256 256 l 1,46,-1
 128 256 l 1,47,-1
 128 384 l 1,44,-1
256 384 m 1,48,-1
 384 384 l 1,49,-1
 384 256 l 1,50,-1
 256 256 l 1,51,-1
 256 384 l 1,48,-1
384 384 m 1,52,-1
 512 384 l 1,53,-1
 512 256 l 1,54,-1
 384 256 l 1,55,-1
 384 384 l 1,52,-1
0 256 m 1,56,-1
 128 256 l 1,57,-1
 128 128 l 1,58,-1
 0 128 l 1,59,-1
 0 256 l 1,56,-1
128 256 m 1,60,-1
 256 256 l 1,61,-1
 256 128 l 1,62,-1
 128 128 l 1,63,-1
 128 256 l 1,60,-1
512 256 m 1,64,-1
 640 256 l 1,65,-1
 640 128 l 1,66,-1
 512 128 l 1,67,-1
 512 256 l 1,64,-1
0 128 m 1,68,-1
 128 128 l 1,69,-1
 128 0 l 1,70,-1
 0 0 l 1,71,-1
 0 128 l 1,68,-1
128 128 m 1,72,-1
 256 128 l 1,73,-1
 256 0 l 1,74,-1
 128 0 l 1,75,-1
 128 128 l 1,72,-1
256 128 m 1,76,-1
 384 128 l 1,77,-1
 384 0 l 1,78,-1
 256 0 l 1,79,-1
 256 128 l 1,76,-1
384 128 m 1,80,-1
 512 128 l 1,81,-1
 512 0 l 1,82,-1
 384 0 l 1,83,-1
 384 128 l 1,80,-1
EndSplineSet
Validated: 5
EndChar

StartChar: C
Encoding: 67 67 37
Width: 768
GlyphClass: 1
Flags: W
LayerCount: 2
Fore
SplineSet
128 768 m 1,0,-1
 256 768 l 1,1,-1
 256 640 l 1,2,-1
 128 640 l 1,3,-1
 128 768 l 1,0,-1
256 768 m 1,4,-1
 384 768 l 1,5,-1
 384 640 l 1,6,-1
 256 640 l 1,7,-1
 256 768 l 1,4,-1
384 768 m 1,8,-1
 512 768 l 1,9,-1
 512 640 l 1,10,-1
 384 640 l 1,11,-1
 384 768 l 1,8,-1
0 640 m 1,12,-1
 128 640 l 1,13,-1
 128 512 l 1,14,-1
 0 512 l 1,15,-1
 0 640 l 1,12,-1
128 640 m 1,16,-1
 256 640 l 1,17,-1
 256 512 l 1,18,-1
 128 512 l 1,19,-1
 128 640 l 1,16,-1
512 640 m 1,20,-1
 640 640 l 1,21,-1
 640 512 l 1,22,-1
 512 512 l 1,23,-1
 512 640 l 1,20,-1
0 512 m 1,24,-1
 128 512 l 1,25,-1
 128 384 l 1,26,-1
 0 384 l 1,27,-1
 0 512 l 1,24,-1
128 512 m 1,28,-1
 256 512 l 1,29,-1
 256 384 l 1,30,-1
 128 384 l 1,31,-1
 128 512 l 1,28,-1
0 384 m 1,32,-1
 128 384 l 1,33,-1
 128 256 l 1,34,-1
 0 256 l 1,35,-1
 0 384 l 1,32,-1
128 384 m 1,36,-1
 256 384 l 1,37,-1
 256 256 l 1,38,-1
 128 256 l 1,39,-1
 128 384 l 1,36,-1
0 256 m 1,40,-1
 128 256 l 1,41,-1
 128 128 l 1,42,-1
 0 128 l 1,43,-1
 0 256 l 1,40,-1
128 256 m 1,44,-1
 256 256 l 1,45,-1
 256 128 l 1,46,-1
 128 128 l 1,47,-1
 128 256 l 1,44,-1
512 256 m 1,48,-1
 640 256 l 1,49,-1
 640 128 l 1,50,-1
 512 128 l 1,51,-1
 512 256 l 1,48,-1
128 128 m 1,52,-1
 256 128 l 1,53,-1
 256 0 l 1,54,-1
 128 0 l 1,55,-1
 128 128 l 1,52,-1
256 128 m 1,56,-1
 384 128 l 1,57,-1
 384 0 l 1,58,-1
 256 0 l 1,59,-1
 256 128 l 1,56,-1
384 128 m 1,60,-1
 512 128 l 1,61,-1
 512 0 l 1,62,-1
 384 0 l 1,63,-1
 384 128 l 1,60,-1
EndSplineSet
Validated: 5
EndChar

StartChar: D
Encoding: 68 68 38
Width: 768
GlyphClass: 1
Flags: W
LayerCount: 2
Fore
SplineSet
0 768 m 1,0,-1
 128 768 l 1,1,-1
 128 640 l 1,2,-1
 0 640 l 1,3,-1
 0 768 l 1,0,-1
128 768 m 1,4,-1
 256 768 l 1,5,-1
 256 640 l 1,6,-1
 128 640 l 1,7,-1
 128 768 l 1,4,-1
256 768 m 1,8,-1
 384 768 l 1,9,-1
 384 640 l 1,10,-1
 256 640 l 1,11,-1
 256 768 l 1,8,-1
0 640 m 1,12,-1
 128 640 l 1,13,-1
 128 512 l 1,14,-1
 0 512 l 1,15,-1
 0 640 l 1,12,-1
128 640 m 1,16,-1
 256 640 l 1,17,-1
 256 512 l 1,18,-1
 128 512 l 1,19,-1
 128 640 l 1,16,-1
384 640 m 1,20,-1
 512 640 l 1,21,-1
 512 512 l 1,22,-1
 384 512 l 1,23,-1
 384 640 l 1,20,-1
0 512 m 1,24,-1
 128 512 l 1,25,-1
 128 384 l 1,26,-1
 0 384 l 1,27,-1
 0 512 l 1,24,-1
128 512 m 1,28,-1
 256 512 l 1,29,-1
 256 384 l 1,30,-1
 128 384 l 1,31,-1
 128 512 l 1,28,-1
512 512 m 1,32,-1
 640 512 l 1,33,-1
 640 384 l 1,34,-1
 512 384 l 1,35,-1
 512 512 l 1,32,-1
0 384 m 1,36,-1
 128 384 l 1,37,-1
 128 256 l 1,38,-1
 0 256 l 1,39,-1
 0 384 l 1,36,-1
128 384 m 1,40,-1
 256 384 l 1,41,-1
 256 256 l 1,42,-1
 128 256 l 1,43,-1
 128 384 l 1,40,-1
512 384 m 1,44,-1
 640 384 l 1,45,-1
 640 256 l 1,46,-1
 512 256 l 1,47,-1
 512 384 l 1,44,-1
0 256 m 1,48,-1
 128 256 l 1,49,-1
 128 128 l 1,50,-1
 0 128 l 1,51,-1
 0 256 l 1,48,-1
128 256 m 1,52,-1
 256 256 l 1,53,-1
 256 128 l 1,54,-1
 128 128 l 1,55,-1
 128 256 l 1,52,-1
512 256 m 1,56,-1
 640 256 l 1,57,-1
 640 128 l 1,58,-1
 512 128 l 1,59,-1
 512 256 l 1,56,-1
0 128 m 1,60,-1
 128 128 l 1,61,-1
 128 0 l 1,62,-1
 0 0 l 1,63,-1
 0 128 l 1,60,-1
128 128 m 1,64,-1
 256 128 l 1,65,-1
 256 0 l 1,66,-1
 128 0 l 1,67,-1
 128 128 l 1,64,-1
256 128 m 1,68,-1
 384 128 l 1,69,-1
 384 0 l 1,70,-1
 256 0 l 1,71,-1
 256 128 l 1,68,-1
384 128 m 1,72,-1
 512 128 l 1,73,-1
 512 0 l 1,74,-1
 384 0 l 1,75,-1
 384 128 l 1,72,-1
EndSplineSet
Validated: 5
EndChar

StartChar: E
Encoding: 69 69 39
Width: 768
GlyphClass: 1
Flags: W
LayerCount: 2
Fore
SplineSet
0 768 m 1,0,-1
 128 768 l 1,1,-1
 128 640 l 1,2,-1
 0 640 l 1,3,-1
 0 768 l 1,0,-1
128 768 m 1,4,-1
 256 768 l 1,5,-1
 256 640 l 1,6,-1
 128 640 l 1,7,-1
 128 768 l 1,4,-1
256 768 m 1,8,-1
 384 768 l 1,9,-1
 384 640 l 1,10,-1
 256 640 l 1,11,-1
 256 768 l 1,8,-1
384 768 m 1,12,-1
 512 768 l 1,13,-1
 512 640 l 1,14,-1
 384 640 l 1,15,-1
 384 768 l 1,12,-1
512 768 m 1,16,-1
 640 768 l 1,17,-1
 640 640 l 1,18,-1
 512 640 l 1,19,-1
 512 768 l 1,16,-1
0 640 m 1,20,-1
 128 640 l 1,21,-1
 128 512 l 1,22,-1
 0 512 l 1,23,-1
 0 640 l 1,20,-1
128 640 m 1,24,-1
 256 640 l 1,25,-1
 256 512 l 1,26,-1
 128 512 l 1,27,-1
 128 640 l 1,24,-1
0 512 m 1,28,-1
 128 512 l 1,29,-1
 128 384 l 1,30,-1
 0 384 l 1,31,-1
 0 512 l 1,28,-1
128 512 m 1,32,-1
 256 512 l 1,33,-1
 256 384 l 1,34,-1
 128 384 l 1,35,-1
 128 512 l 1,32,-1
0 384 m 1,36,-1
 128 384 l 1,37,-1
 128 256 l 1,38,-1
 0 256 l 1,39,-1
 0 384 l 1,36,-1
128 384 m 1,40,-1
 256 384 l 1,41,-1
 256 256 l 1,42,-1
 128 256 l 1,43,-1
 128 384 l 1,40,-1
256 384 m 1,44,-1
 384 384 l 1,45,-1
 384 256 l 1,46,-1
 256 256 l 1,47,-1
 256 384 l 1,44,-1
384 384 m 1,48,-1
 512 384 l 1,49,-1
 512 256 l 1,50,-1
 384 256 l 1,51,-1
 384 384 l 1,48,-1
0 256 m 1,52,-1
 128 256 l 1,53,-1
 128 128 l 1,54,-1
 0 128 l 1,55,-1
 0 256 l 1,52,-1
128 256 m 1,56,-1
 256 256 l 1,57,-1
 256 128 l 1,58,-1
 128 128 l 1,59,-1
 128 256 l 1,56,-1
0 128 m 1,60,-1
 128 128 l 1,61,-1
 128 0 l 1,62,-1
 0 0 l 1,63,-1
 0 128 l 1,60,-1
128 128 m 1,64,-1
 256 128 l 1,65,-1
 256 0 l 1,66,-1
 128 0 l 1,67,-1
 128 128 l 1,64,-1
256 128 m 1,68,-1
 384 128 l 1,69,-1
 384 0 l 1,70,-1
 256 0 l 1,71,-1
 256 128 l 1,68,-1
384 128 m 1,72,-1
 512 128 l 1,73,-1
 512 0 l 1,74,-1
 384 0 l 1,75,-1
 384 128 l 1,72,-1
512 128 m 1,76,-1
 640 128 l 1,77,-1
 640 0 l 1,78,-1
 512 0 l 1,79,-1
 512 128 l 1,76,-1
EndSplineSet
Validated: 5
EndChar

StartChar: F
Encoding: 70 70 40
Width: 768
GlyphClass: 1
Flags: W
LayerCount: 2
Fore
SplineSet
0 768 m 1,0,-1
 128 768 l 1,1,-1
 128 640 l 1,2,-1
 0 640 l 1,3,-1
 0 768 l 1,0,-1
128 768 m 1,4,-1
 256 768 l 1,5,-1
 256 640 l 1,6,-1
 128 640 l 1,7,-1
 128 768 l 1,4,-1
256 768 m 1,8,-1
 384 768 l 1,9,-1
 384 640 l 1,10,-1
 256 640 l 1,11,-1
 256 768 l 1,8,-1
384 768 m 1,12,-1
 512 768 l 1,13,-1
 512 640 l 1,14,-1
 384 640 l 1,15,-1
 384 768 l 1,12,-1
512 768 m 1,16,-1
 640 768 l 1,17,-1
 640 640 l 1,18,-1
 512 640 l 1,19,-1
 512 768 l 1,16,-1
0 640 m 1,20,-1
 128 640 l 1,21,-1
 128 512 l 1,22,-1
 0 512 l 1,23,-1
 0 640 l 1,20,-1
128 640 m 1,24,-1
 256 640 l 1,25,-1
 256 512 l 1,26,-1
 128 512 l 1,27,-1
 128 640 l 1,24,-1
0 512 m 1,28,-1
 128 512 l 1,29,-1
 128 384 l 1,30,-1
 0 384 l 1,31,-1
 0 512 l 1,28,-1
128 512 m 1,32,-1
 256 512 l 1,33,-1
 256 384 l 1,34,-1
 128 384 l 1,35,-1
 128 512 l 1,32,-1
0 384 m 1,36,-1
 128 384 l 1,37,-1
 128 256 l 1,38,-1
 0 256 l 1,39,-1
 0 384 l 1,36,-1
128 384 m 1,40,-1
 256 384 l 1,41,-1
 256 256 l 1,42,-1
 128 256 l 1,43,-1
 128 384 l 1,40,-1
256 384 m 1,44,-1
 384 384 l 1,45,-1
 384 256 l 1,46,-1
 256 256 l 1,47,-1
 256 384 l 1,44,-1
384 384 m 1,48,-1
 512 384 l 1,49,-1
 512 256 l 1,50,-1
 384 256 l 1,51,-1
 384 384 l 1,48,-1
0 256 m 1,52,-1
 128 256 l 1,53,-1
 128 128 l 1,54,-1
 0 128 l 1,55,-1
 0 256 l 1,52,-1
128 256 m 1,56,-1
 256 256 l 1,57,-1
 256 128 l 1,58,-1
 128 128 l 1,59,-1
 128 256 l 1,56,-1
0 128 m 1,60,-1
 128 128 l 1,61,-1
 128 0 l 1,62,-1
 0 0 l 1,63,-1
 0 128 l 1,60,-1
128 128 m 1,64,-1
 256 128 l 1,65,-1
 256 0 l 1,66,-1
 128 0 l 1,67,-1
 128 128 l 1,64,-1
EndSplineSet
Validated: 5
EndChar

StartChar: G
Encoding: 71 71 41
Width: 768
GlyphClass: 1
Flags: W
LayerCount: 2
Fore
SplineSet
128 768 m 1,0,-1
 256 768 l 1,1,-1
 256 640 l 1,2,-1
 128 640 l 1,3,-1
 128 768 l 1,0,-1
256 768 m 1,4,-1
 384 768 l 1,5,-1
 384 640 l 1,6,-1
 256 640 l 1,7,-1
 256 768 l 1,4,-1
384 768 m 1,8,-1
 512 768 l 1,9,-1
 512 640 l 1,10,-1
 384 640 l 1,11,-1
 384 768 l 1,8,-1
0 640 m 1,12,-1
 128 640 l 1,13,-1
 128 512 l 1,14,-1
 0 512 l 1,15,-1
 0 640 l 1,12,-1
128 640 m 1,16,-1
 256 640 l 1,17,-1
 256 512 l 1,18,-1
 128 512 l 1,19,-1
 128 640 l 1,16,-1
0 512 m 1,20,-1
 128 512 l 1,21,-1
 128 384 l 1,22,-1
 0 384 l 1,23,-1
 0 512 l 1,20,-1
128 512 m 1,24,-1
 256 512 l 1,25,-1
 256 384 l 1,26,-1
 128 384 l 1,27,-1
 128 512 l 1,24,-1
0 384 m 1,28,-1
 128 384 l 1,29,-1
 128 256 l 1,30,-1
 0 256 l 1,31,-1
 0 384 l 1,28,-1
128 384 m 1,32,-1
 256 384 l 1,33,-1
 256 256 l 1,34,-1
 128 256 l 1,35,-1
 128 384 l 1,32,-1
384 384 m 1,36,-1
 512 384 l 1,37,-1
 512 256 l 1,38,-1
 384 256 l 1,39,-1
 384 384 l 1,36,-1
512 384 m 1,40,-1
 640 384 l 1,41,-1
 640 256 l 1,42,-1
 512 256 l 1,43,-1
 512 384 l 1,40,-1
0 256 m 1,44,-1
 128 256 l 1,45,-1
 128 128 l 1,46,-1
 0 128 l 1,47,-1
 0 256 l 1,44,-1
128 256 m 1,48,-1
 256 256 l 1,49,-1
 256 128 l 1,50,-1
 128 128 l 1,51,-1
 128 256 l 1,48,-1
512 256 m 1,52,-1
 640 256 l 1,53,-1
 640 128 l 1,54,-1
 512 128 l 1,55,-1
 512 256 l 1,52,-1
128 128 m 1,56,-1
 256 128 l 1,57,-1
 256 0 l 1,58,-1
 128 0 l 1,59,-1
 128 128 l 1,56,-1
256 128 m 1,60,-1
 384 128 l 1,61,-1
 384 0 l 1,62,-1
 256 0 l 1,63,-1
 256 128 l 1,60,-1
384 128 m 1,64,-1
 512 128 l 1,65,-1
 512 0 l 1,66,-1
 384 0 l 1,67,-1
 384 128 l 1,64,-1
EndSplineSet
Validated: 5
EndChar

StartChar: H
Encoding: 72 72 42
Width: 768
GlyphClass: 1
Flags: W
LayerCount: 2
Fore
SplineSet
0 768 m 1,0,-1
 128 768 l 1,1,-1
 128 640 l 1,2,-1
 0 640 l 1,3,-1
 0 768 l 1,0,-1
128 768 m 1,4,-1
 256 768 l 1,5,-1
 256 640 l 1,6,-1
 128 640 l 1,7,-1
 128 768 l 1,4,-1
512 768 m 1,8,-1
 640 768 l 1,9,-1
 640 640 l 1,10,-1
 512 640 l 1,11,-1
 512 768 l 1,8,-1
0 640 m 1,12,-1
 128 640 l 1,13,-1
 128 512 l 1,14,-1
 0 512 l 1,15,-1
 0 640 l 1,12,-1
128 640 m 1,16,-1
 256 640 l 1,17,-1
 256 512 l 1,18,-1
 128 512 l 1,19,-1
 128 640 l 1,16,-1
512 640 m 1,20,-1
 640 640 l 1,21,-1
 640 512 l 1,22,-1
 512 512 l 1,23,-1
 512 640 l 1,20,-1
0 512 m 1,24,-1
 128 512 l 1,25,-1
 128 384 l 1,26,-1
 0 384 l 1,27,-1
 0 512 l 1,24,-1
128 512 m 1,28,-1
 256 512 l 1,29,-1
 256 384 l 1,30,-1
 128 384 l 1,31,-1
 128 512 l 1,28,-1
512 512 m 1,32,-1
 640 512 l 1,33,-1
 640 384 l 1,34,-1
 512 384 l 1,35,-1
 512 512 l 1,32,-1
0 384 m 1,36,-1
 128 384 l 1,37,-1
 128 256 l 1,38,-1
 0 256 l 1,39,-1
 0 384 l 1,36,-1
128 384 m 1,40,-1
 256 384 l 1,41,-1
 256 256 l 1,42,-1
 128 256 l 1,43,-1
 128 384 l 1,40,-1
512 384 m 1,44,-1
 640 384 l 1,45,-1
 640 256 l 1,46,-1
 512 256 l 1,47,-1
 512 384 l 1,44,-1
0 256 m 1,48,-1
 128 256 l 1,49,-1
 128 128 l 1,50,-1
 0 128 l 1,51,-1
 0 256 l 1,48,-1
128 256 m 1,52,-1
 256 256 l 1,53,-1
 256 128 l 1,54,-1
 128 128 l 1,55,-1
 128 256 l 1,52,-1
256 256 m 1,56,-1
 384 256 l 1,57,-1
 384 128 l 1,58,-1
 256 128 l 1,59,-1
 256 256 l 1,56,-1
384 256 m 1,60,-1
 512 256 l 1,61,-1
 512 128 l 1,62,-1
 384 128 l 1,63,-1
 384 256 l 1,60,-1
512 256 m 1,64,-1
 640 256 l 1,65,-1
 640 128 l 1,66,-1
 512 128 l 1,67,-1
 512 256 l 1,64,-1
0 128 m 1,68,-1
 128 128 l 1,69,-1
 128 0 l 1,70,-1
 0 0 l 1,71,-1
 0 128 l 1,68,-1
128 128 m 1,72,-1
 256 128 l 1,73,-1
 256 0 l 1,74,-1
 128 0 l 1,75,-1
 128 128 l 1,72,-1
512 128 m 1,76,-1
 640 128 l 1,77,-1
 640 0 l 1,78,-1
 512 0 l 1,79,-1
 512 128 l 1,76,-1
EndSplineSet
Validated: 5
EndChar

StartChar: I
Encoding: 73 73 43
Width: 768
GlyphClass: 1
Flags: W
LayerCount: 2
Fore
SplineSet
0 768 m 1,0,-1
 128 768 l 1,1,-1
 128 640 l 1,2,-1
 0 640 l 1,3,-1
 0 768 l 1,0,-1
128 768 m 1,4,-1
 256 768 l 1,5,-1
 256 640 l 1,6,-1
 128 640 l 1,7,-1
 128 768 l 1,4,-1
256 768 m 1,8,-1
 384 768 l 1,9,-1
 384 640 l 1,10,-1
 256 640 l 1,11,-1
 256 768 l 1,8,-1
384 768 m 1,12,-1
 512 768 l 1,13,-1
 512 640 l 1,14,-1
 384 640 l 1,15,-1
 384 768 l 1,12,-1
512 768 m 1,16,-1
 640 768 l 1,17,-1
 640 640 l 1,18,-1
 512 640 l 1,19,-1
 512 768 l 1,16,-1
128 640 m 1,20,-1
 256 640 l 1,21,-1
 256 512 l 1,22,-1
 128 512 l 1,23,-1
 128 640 l 1,20,-1
256 640 m 1,24,-1
 384 640 l 1,25,-1
 384 512 l 1,26,-1
 256 512 l 1,27,-1
 256 640 l 1,24,-1
128 512 m 1,28,-1
 256 512 l 1,29,-1
 256 384 l 1,30,-1
 128 384 l 1,31,-1
 128 512 l 1,28,-1
256 512 m 1,32,-1
 384 512 l 1,33,-1
 384 384 l 1,34,-1
 256 384 l 1,35,-1
 256 512 l 1,32,-1
128 384 m 1,36,-1
 256 384 l 1,37,-1
 256 256 l 1,38,-1
 128 256 l 1,39,-1
 128 384 l 1,36,-1
256 384 m 1,40,-1
 384 384 l 1,41,-1
 384 256 l 1,42,-1
 256 256 l 1,43,-1
 256 384 l 1,40,-1
128 256 m 1,44,-1
 256 256 l 1,45,-1
 256 128 l 1,46,-1
 128 128 l 1,47,-1
 128 256 l 1,44,-1
256 256 m 1,48,-1
 384 256 l 1,49,-1
 384 128 l 1,50,-1
 256 128 l 1,51,-1
 256 256 l 1,48,-1
0 128 m 1,52,-1
 128 128 l 1,53,-1
 128 0 l 1,54,-1
 0 0 l 1,55,-1
 0 128 l 1,52,-1
128 128 m 1,56,-1
 256 128 l 1,57,-1
 256 0 l 1,58,-1
 128 0 l 1,59,-1
 128 128 l 1,56,-1
256 128 m 1,60,-1
 384 128 l 1,61,-1
 384 0 l 1,62,-1
 256 0 l 1,63,-1
 256 128 l 1,60,-1
384 128 m 1,64,-1
 512 128 l 1,65,-1
 512 0 l 1,66,-1
 384 0 l 1,67,-1
 384 128 l 1,64,-1
512 128 m 1,68,-1
 640 128 l 1,69,-1
 640 0 l 1,70,-1
 512 0 l 1,71,-1
 512 128 l 1,68,-1
EndSplineSet
Validated: 5
EndChar

StartChar: J
Encoding: 74 74 44
Width: 768
GlyphClass: 1
Flags: W
LayerCount: 2
Fore
SplineSet
256 768 m 1,0,-1
 384 768 l 1,1,-1
 384 640 l 1,2,-1
 256 640 l 1,3,-1
 256 768 l 1,0,-1
384 768 m 1,4,-1
 512 768 l 1,5,-1
 512 640 l 1,6,-1
 384 640 l 1,7,-1
 384 768 l 1,4,-1
512 768 m 1,8,-1
 640 768 l 1,9,-1
 640 640 l 1,10,-1
 512 640 l 1,11,-1
 512 768 l 1,8,-1
384 640 m 1,12,-1
 512 640 l 1,13,-1
 512 512 l 1,14,-1
 384 512 l 1,15,-1
 384 640 l 1,12,-1
512 640 m 1,16,-1
 640 640 l 1,17,-1
 640 512 l 1,18,-1
 512 512 l 1,19,-1
 512 640 l 1,16,-1
384 512 m 1,20,-1
 512 512 l 1,21,-1
 512 384 l 1,22,-1
 384 384 l 1,23,-1
 384 512 l 1,20,-1
512 512 m 1,24,-1
 640 512 l 1,25,-1
 640 384 l 1,26,-1
 512 384 l 1,27,-1
 512 512 l 1,24,-1
384 384 m 1,28,-1
 512 384 l 1,29,-1
 512 256 l 1,30,-1
 384 256 l 1,31,-1
 384 384 l 1,28,-1
512 384 m 1,32,-1
 640 384 l 1,33,-1
 640 256 l 1,34,-1
 512 256 l 1,35,-1
 512 384 l 1,32,-1
0 256 m 1,36,-1
 128 256 l 1,37,-1
 128 128 l 1,38,-1
 0 128 l 1,39,-1
 0 256 l 1,36,-1
384 256 m 1,40,-1
 512 256 l 1,41,-1
 512 128 l 1,42,-1
 384 128 l 1,43,-1
 384 256 l 1,40,-1
512 256 m 1,44,-1
 640 256 l 1,45,-1
 640 128 l 1,46,-1
 512 128 l 1,47,-1
 512 256 l 1,44,-1
128 128 m 1,48,-1
 256 128 l 1,49,-1
 256 0 l 1,50,-1
 128 0 l 1,51,-1
 128 128 l 1,48,-1
256 128 m 1,52,-1
 384 128 l 1,53,-1
 384 0 l 1,54,-1
 256 0 l 1,55,-1
 256 128 l 1,52,-1
384 128 m 1,56,-1
 512 128 l 1,57,-1
 512 0 l 1,58,-1
 384 0 l 1,59,-1
 384 128 l 1,56,-1
EndSplineSet
Validated: 5
EndChar

StartChar: K
Encoding: 75 75 45
Width: 768
GlyphClass: 1
Flags: W
LayerCount: 2
Fore
SplineSet
0 768 m 1,0,-1
 128 768 l 1,1,-1
 128 640 l 1,2,-1
 0 640 l 1,3,-1
 0 768 l 1,0,-1
128 768 m 1,4,-1
 256 768 l 1,5,-1
 256 640 l 1,6,-1
 128 640 l 1,7,-1
 128 768 l 1,4,-1
512 768 m 1,8,-1
 640 768 l 1,9,-1
 640 640 l 1,10,-1
 512 640 l 1,11,-1
 512 768 l 1,8,-1
0 640 m 1,12,-1
 128 640 l 1,13,-1
 128 512 l 1,14,-1
 0 512 l 1,15,-1
 0 640 l 1,12,-1
128 640 m 1,16,-1
 256 640 l 1,17,-1
 256 512 l 1,18,-1
 128 512 l 1,19,-1
 128 640 l 1,16,-1
512 640 m 1,20,-1
 640 640 l 1,21,-1
 640 512 l 1,22,-1
 512 512 l 1,23,-1
 512 640 l 1,20,-1
0 512 m 1,24,-1
 128 512 l 1,25,-1
 128 384 l 1,26,-1
 0 384 l 1,27,-1
 0 512 l 1,24,-1
128 512 m 1,28,-1
 256 512 l 1,29,-1
 256 384 l 1,30,-1
 128 384 l 1,31,-1
 128 512 l 1,28,-1
384 512 m 1,32,-1
 512 512 l 1,33,-1
 512 384 l 1,34,-1
 384 384 l 1,35,-1
 384 512 l 1,32,-1
0 384 m 1,36,-1
 128 384 l 1,37,-1
 128 256 l 1,38,-1
 0 256 l 1,39,-1
 0 384 l 1,36,-1
128 384 m 1,40,-1
 256 384 l 1,41,-1
 256 256 l 1,42,-1
 128 256 l 1,43,-1
 128 384 l 1,40,-1
256 384 m 1,44,-1
 384 384 l 1,45,-1
 384 256 l 1,46,-1
 256 256 l 1,47,-1
 256 384 l 1,44,-1
0 256 m 1,48,-1
 128 256 l 1,49,-1
 128 128 l 1,50,-1
 0 128 l 1,51,-1
 0 256 l 1,48,-1
128 256 m 1,52,-1
 256 256 l 1,53,-1
 256 128 l 1,54,-1
 128 128 l 1,55,-1
 128 256 l 1,52,-1
384 256 m 1,56,-1
 512 256 l 1,57,-1
 512 128 l 1,58,-1
 384 128 l 1,59,-1
 384 256 l 1,56,-1
0 128 m 1,60,-1
 128 128 l 1,61,-1
 128 0 l 1,62,-1
 0 0 l 1,63,-1
 0 128 l 1,60,-1
128 128 m 1,64,-1
 256 128 l 1,65,-1
 256 0 l 1,66,-1
 128 0 l 1,67,-1
 128 128 l 1,64,-1
512 128 m 1,68,-1
 640 128 l 1,69,-1
 640 0 l 1,70,-1
 512 0 l 1,71,-1
 512 128 l 1,68,-1
EndSplineSet
Validated: 5
EndChar

StartChar: L
Encoding: 76 76 46
Width: 768
GlyphClass: 1
Flags: W
LayerCount: 2
Fore
SplineSet
0 768 m 1,0,-1
 128 768 l 1,1,-1
 128 640 l 1,2,-1
 0 640 l 1,3,-1
 0 768 l 1,0,-1
128 768 m 1,4,-1
 256 768 l 1,5,-1
 256 640 l 1,6,-1
 128 640 l 1,7,-1
 128 768 l 1,4,-1
0 640 m 1,8,-1
 128 640 l 1,9,-1
 128 512 l 1,10,-1
 0 512 l 1,11,-1
 0 640 l 1,8,-1
128 640 m 1,12,-1
 256 640 l 1,13,-1
 256 512 l 1,14,-1
 128 512 l 1,15,-1
 128 640 l 1,12,-1
0 512 m 1,16,-1
 128 512 l 1,17,-1
 128 384 l 1,18,-1
 0 384 l 1,19,-1
 0 512 l 1,16,-1
128 512 m 1,20,-1
 256 512 l 1,21,-1
 256 384 l 1,22,-1
 128 384 l 1,23,-1
 128 512 l 1,20,-1
0 384 m 1,24,-1
 128 384 l 1,25,-1
 128 256 l 1,26,-1
 0 256 l 1,27,-1
 0 384 l 1,24,-1
128 384 m 1,28,-1
 256 384 l 1,29,-1
 256 256 l 1,30,-1
 128 256 l 1,31,-1
 128 384 l 1,28,-1
0 256 m 1,32,-1
 128 256 l 1,33,-1
 128 128 l 1,34,-1
 0 128 l 1,35,-1
 0 256 l 1,32,-1
128 256 m 1,36,-1
 256 256 l 1,37,-1
 256 128 l 1,38,-1
 128 128 l 1,39,-1
 128 256 l 1,36,-1
0 128 m 1,40,-1
 128 128 l 1,41,-1
 128 0 l 1,42,-1
 0 0 l 1,43,-1
 0 128 l 1,40,-1
128 128 m 1,44,-1
 256 128 l 1,45,-1
 256 0 l 1,46,-1
 128 0 l 1,47,-1
 128 128 l 1,44,-1
256 128 m 1,48,-1
 384 128 l 1,49,-1
 384 0 l 1,50,-1
 256 0 l 1,51,-1
 256 128 l 1,48,-1
384 128 m 1,52,-1
 512 128 l 1,53,-1
 512 0 l 1,54,-1
 384 0 l 1,55,-1
 384 128 l 1,52,-1
512 128 m 1,56,-1
 640 128 l 1,57,-1
 640 0 l 1,58,-1
 512 0 l 1,59,-1
 512 128 l 1,56,-1
EndSplineSet
Validated: 5
EndChar

StartChar: M
Encoding: 77 77 47
Width: 768
GlyphClass: 1
Flags: W
LayerCount: 2
Fore
SplineSet
0 768 m 1,0,-1
 128 768 l 1,1,-1
 128 640 l 1,2,-1
 0 640 l 1,3,-1
 0 768 l 1,0,-1
128 768 m 1,4,-1
 256 768 l 1,5,-1
 256 640 l 1,6,-1
 128 640 l 1,7,-1
 128 768 l 1,4,-1
512 768 m 1,8,-1
 640 768 l 1,9,-1
 640 640 l 1,10,-1
 512 640 l 1,11,-1
 512 768 l 1,8,-1
0 640 m 1,12,-1
 128 640 l 1,13,-1
 128 512 l 1,14,-1
 0 512 l 1,15,-1
 0 640 l 1,12,-1
128 640 m 1,16,-1
 256 640 l 1,17,-1
 256 512 l 1,18,-1
 128 512 l 1,19,-1
 128 640 l 1,16,-1
512 640 m 1,20,-1
 640 640 l 1,21,-1
 640 512 l 1,22,-1
 512 512 l 1,23,-1
 512 640 l 1,20,-1
0 512 m 1,24,-1
 128 512 l 1,25,-1
 128 384 l 1,26,-1
 0 384 l 1,27,-1
 0 512 l 1,24,-1
128 512 m 1,28,-1
 256 512 l 1,29,-1
 256 384 l 1,30,-1
 128 384 l 1,31,-1
 128 512 l 1,28,-1
512 512 m 1,32,-1
 640 512 l 1,33,-1
 640 384 l 1,34,-1
 512 384 l 1,35,-1
 512 512 l 1,32,-1
0 384 m 1,36,-1
 128 384 l 1,37,-1
 128 256 l 1,38,-1
 0 256 l 1,39,-1
 0 384 l 1,36,-1
128 384 m 1,40,-1
 256 384 l 1,41,-1
 256 256 l 1,42,-1
 128 256 l 1,43,-1
 128 384 l 1,40,-1
384 384 m 1,44,-1
 512 384 l 1,45,-1
 512 256 l 1,46,-1
 384 256 l 1,47,-1
 384 384 l 1,44,-1
512 384 m 1,48,-1
 640 384 l 1,49,-1
 640 256 l 1,50,-1
 512 256 l 1,51,-1
 512 384 l 1,48,-1
0 256 m 1,52,-1
 128 256 l 1,53,-1
 128 128 l 1,54,-1
 0 128 l 1,55,-1
 0 256 l 1,52,-1
256 256 m 1,56,-1
 384 256 l 1,57,-1
 384 128 l 1,58,-1
 256 128 l 1,59,-1
 256 256 l 1,56,-1
512 256 m 1,60,-1
 640 256 l 1,61,-1
 640 128 l 1,62,-1
 512 128 l 1,63,-1
 512 256 l 1,60,-1
0 128 m 1,64,-1
 128 128 l 1,65,-1
 128 0 l 1,66,-1
 0 0 l 1,67,-1
 0 128 l 1,64,-1
512 128 m 1,68,-1
 640 128 l 1,69,-1
 640 0 l 1,70,-1
 512 0 l 1,71,-1
 512 128 l 1,68,-1
EndSplineSet
Validated: 5
EndChar

StartChar: N
Encoding: 78 78 48
Width: 768
GlyphClass: 1
Flags: W
LayerCount: 2
Fore
SplineSet
0 768 m 1,0,-1
 128 768 l 1,1,-1
 128 640 l 1,2,-1
 0 640 l 1,3,-1
 0 768 l 1,0,-1
128 768 m 1,4,-1
 256 768 l 1,5,-1
 256 640 l 1,6,-1
 128 640 l 1,7,-1
 128 768 l 1,4,-1
512 768 m 1,8,-1
 640 768 l 1,9,-1
 640 640 l 1,10,-1
 512 640 l 1,11,-1
 512 768 l 1,8,-1
0 640 m 1,12,-1
 128 640 l 1,13,-1
 128 512 l 1,14,-1
 0 512 l 1,15,-1
 0 640 l 1,12,-1
128 640 m 1,16,-1
 256 640 l 1,17,-1
 256 512 l 1,18,-1
 128 512 l 1,19,-1
 128 640 l 1,16,-1
512 640 m 1,20,-1
 640 640 l 1,21,-1
 640 512 l 1,22,-1
 512 512 l 1,23,-1
 512 640 l 1,20,-1
0 512 m 1,24,-1
 128 512 l 1,25,-1
 128 384 l 1,26,-1
 0 384 l 1,27,-1
 0 512 l 1,24,-1
128 512 m 1,28,-1
 256 512 l 1,29,-1
 256 384 l 1,30,-1
 128 384 l 1,31,-1
 128 512 l 1,28,-1
512 512 m 1,32,-1
 640 512 l 1,33,-1
 640 384 l 1,34,-1
 512 384 l 1,35,-1
 512 512 l 1,32,-1
0 384 m 1,36,-1
 128 384 l 1,37,-1
 128 256 l 1,38,-1
 0 256 l 1,39,-1
 0 384 l 1,36,-1
128 384 m 1,40,-1
 256 384 l 1,41,-1
 256 256 l 1,42,-1
 128 256 l 1,43,-1
 128 384 l 1,40,-1
256 384 m 1,44,-1
 384 384 l 1,45,-1
 384 256 l 1,46,-1
 256 256 l 1,47,-1
 256 384 l 1,44,-1
512 384 m 1,48,-1
 640 384 l 1,49,-1
 640 256 l 1,50,-1
 512 256 l 1,51,-1
 512 384 l 1,48,-1
0 256 m 1,52,-1
 128 256 l 1,53,-1
 128 128 l 1,54,-1
 0 128 l 1,55,-1
 0 256 l 1,52,-1
128 256 m 1,56,-1
 256 256 l 1,57,-1
 256 128 l 1,58,-1
 128 128 l 1,59,-1
 128 256 l 1,56,-1
384 256 m 1,60,-1
 512 256 l 1,61,-1
 512 128 l 1,62,-1
 384 128 l 1,63,-1
 384 256 l 1,60,-1
512 256 m 1,64,-1
 640 256 l 1,65,-1
 640 128 l 1,66,-1
 512 128 l 1,67,-1
 512 256 l 1,64,-1
0 128 m 1,68,-1
 128 128 l 1,69,-1
 128 0 l 1,70,-1
 0 0 l 1,71,-1
 0 128 l 1,68,-1
128 128 m 1,72,-1
 256 128 l 1,73,-1
 256 0 l 1,74,-1
 128 0 l 1,75,-1
 128 128 l 1,72,-1
512 128 m 1,76,-1
 640 128 l 1,77,-1
 640 0 l 1,78,-1
 512 0 l 1,79,-1
 512 128 l 1,76,-1
EndSplineSet
Validated: 5
EndChar

StartChar: O
Encoding: 79 79 49
Width: 768
GlyphClass: 1
Flags: W
LayerCount: 2
Fore
SplineSet
128 768 m 1,0,-1
 256 768 l 1,1,-1
 256 640 l 1,2,-1
 128 640 l 1,3,-1
 128 768 l 1,0,-1
256 768 m 1,4,-1
 384 768 l 1,5,-1
 384 640 l 1,6,-1
 256 640 l 1,7,-1
 256 768 l 1,4,-1
384 768 m 1,8,-1
 512 768 l 1,9,-1
 512 640 l 1,10,-1
 384 640 l 1,11,-1
 384 768 l 1,8,-1
0 640 m 1,12,-1
 128 640 l 1,13,-1
 128 512 l 1,14,-1
 0 512 l 1,15,-1
 0 640 l 1,12,-1
128 640 m 1,16,-1
 256 640 l 1,17,-1
 256 512 l 1,18,-1
 128 512 l 1,19,-1
 128 640 l 1,16,-1
512 640 m 1,20,-1
 640 640 l 1,21,-1
 640 512 l 1,22,-1
 512 512 l 1,23,-1
 512 640 l 1,20,-1
0 512 m 1,24,-1
 128 512 l 1,25,-1
 128 384 l 1,26,-1
 0 384 l 1,27,-1
 0 512 l 1,24,-1
128 512 m 1,28,-1
 256 512 l 1,29,-1
 256 384 l 1,30,-1
 128 384 l 1,31,-1
 128 512 l 1,28,-1
512 512 m 1,32,-1
 640 512 l 1,33,-1
 640 384 l 1,34,-1
 512 384 l 1,35,-1
 512 512 l 1,32,-1
0 384 m 1,36,-1
 128 384 l 1,37,-1
 128 256 l 1,38,-1
 0 256 l 1,39,-1
 0 384 l 1,36,-1
128 384 m 1,40,-1
 256 384 l 1,41,-1
 256 256 l 1,42,-1
 128 256 l 1,43,-1
 128 384 l 1,40,-1
512 384 m 1,44,-1
 640 384 l 1,45,-1
 640 256 l 1,46,-1
 512 256 l 1,47,-1
 512 384 l 1,44,-1
0 256 m 1,48,-1
 128 256 l 1,49,-1
 128 128 l 1,50,-1
 0 128 l 1,51,-1
 0 256 l 1,48,-1
128 256 m 1,52,-1
 256 256 l 1,53,-1
 256 128 l 1,54,-1
 128 128 l 1,55,-1
 128 256 l 1,52,-1
512 256 m 1,56,-1
 640 256 l 1,57,-1
 640 128 l 1,58,-1
 512 128 l 1,59,-1
 512 256 l 1,56,-1
128 128 m 1,60,-1
 256 128 l 1,61,-1
 256 0 l 1,62,-1
 128 0 l 1,63,-1
 128 128 l 1,60,-1
256 128 m 1,64,-1
 384 128 l 1,65,-1
 384 0 l 1,66,-1
 256 0 l 1,67,-1
 256 128 l 1,64,-1
384 128 m 1,68,-1
 512 128 l 1,69,-1
 512 0 l 1,70,-1
 384 0 l 1,71,-1
 384 128 l 1,68,-1
EndSplineSet
Validated: 5
EndChar

StartChar: P
Encoding: 80 80 50
Width: 768
GlyphClass: 1
Flags: W
LayerCount: 2
Fore
SplineSet
0 768 m 1,0,-1
 128 768 l 1,1,-1
 128 640 l 1,2,-1
 0 640 l 1,3,-1
 0 768 l 1,0,-1
128 768 m 1,4,-1
 256 768 l 1,5,-1
 256 640 l 1,6,-1
 128 640 l 1,7,-1
 128 768 l 1,4,-1
256 768 m 1,8,-1
 384 768 l 1,9,-1
 384 640 l 1,10,-1
 256 640 l 1,11,-1
 256 768 l 1,8,-1
384 768 m 1,12,-1
 512 768 l 1,13,-1
 512 640 l 1,14,-1
 384 640 l 1,15,-1
 384 768 l 1,12,-1
0 640 m 1,16,-1
 128 640 l 1,17,-1
 128 512 l 1,18,-1
 0 512 l 1,19,-1
 0 640 l 1,16,-1
128 640 m 1,20,-1
 256 640 l 1,21,-1
 256 512 l 1,22,-1
 128 512 l 1,23,-1
 128 640 l 1,20,-1
512 640 m 1,24,-1
 640 640 l 1,25,-1
 640 512 l 1,26,-1
 512 512 l 1,27,-1
 512 640 l 1,24,-1
0 512 m 1,28,-1
 128 512 l 1,29,-1
 128 384 l 1,30,-1
 0 384 l 1,31,-1
 0 512 l 1,28,-1
128 512 m 1,32,-1
 256 512 l 1,33,-1
 256 384 l 1,34,-1
 128 384 l 1,35,-1
 128 512 l 1,32,-1
512 512 m 1,36,-1
 640 512 l 1,37,-1
 640 384 l 1,38,-1
 512 384 l 1,39,-1
 512 512 l 1,36,-1
0 384 m 1,40,-1
 128 384 l 1,41,-1
 128 256 l 1,42,-1
 0 256 l 1,43,-1
 0 384 l 1,40,-1
128 384 m 1,44,-1
 256 384 l 1,45,-1
 256 256 l 1,46,-1
 128 256 l 1,47,-1
 128 384 l 1,44,-1
512 384 m 1,48,-1
 640 384 l 1,49,-1
 640 256 l 1,50,-1
 512 256 l 1,51,-1
 512 384 l 1,48,-1
0 256 m 1,52,-1
 128 256 l 1,53,-1
 128 128 l 1,54,-1
 0 128 l 1,55,-1
 0 256 l 1,52,-1
128 256 m 1,56,-1
 256 256 l 1,57,-1
 256 128 l 1,58,-1
 128 128 l 1,59,-1
 128 256 l 1,56,-1
256 256 m 1,60,-1
 384 256 l 1,61,-1
 384 128 l 1,62,-1
 256 128 l 1,63,-1
 256 256 l 1,60,-1
384 256 m 1,64,-1
 512 256 l 1,65,-1
 512 128 l 1,66,-1
 384 128 l 1,67,-1
 384 256 l 1,64,-1
0 128 m 1,68,-1
 128 128 l 1,69,-1
 128 0 l 1,70,-1
 0 0 l 1,71,-1
 0 128 l 1,68,-1
128 128 m 1,72,-1
 256 128 l 1,73,-1
 256 0 l 1,74,-1
 128 0 l 1,75,-1
 128 128 l 1,72,-1
EndSplineSet
Validated: 5
EndChar

StartChar: Q
Encoding: 81 81 51
Width: 768
GlyphClass: 1
Flags: W
LayerCount: 2
Fore
SplineSet
128 768 m 1,0,-1
 256 768 l 1,1,-1
 256 640 l 1,2,-1
 128 640 l 1,3,-1
 128 768 l 1,0,-1
256 768 m 1,4,-1
 384 768 l 1,5,-1
 384 640 l 1,6,-1
 256 640 l 1,7,-1
 256 768 l 1,4,-1
384 768 m 1,8,-1
 512 768 l 1,9,-1
 512 640 l 1,10,-1
 384 640 l 1,11,-1
 384 768 l 1,8,-1
0 640 m 1,12,-1
 128 640 l 1,13,-1
 128 512 l 1,14,-1
 0 512 l 1,15,-1
 0 640 l 1,12,-1
128 640 m 1,16,-1
 256 640 l 1,17,-1
 256 512 l 1,18,-1
 128 512 l 1,19,-1
 128 640 l 1,16,-1
512 640 m 1,20,-1
 640 640 l 1,21,-1
 640 512 l 1,22,-1
 512 512 l 1,23,-1
 512 640 l 1,20,-1
0 512 m 1,24,-1
 128 512 l 1,25,-1
 128 384 l 1,26,-1
 0 384 l 1,27,-1
 0 512 l 1,24,-1
128 512 m 1,28,-1
 256 512 l 1,29,-1
 256 384 l 1,30,-1
 128 384 l 1,31,-1
 128 512 l 1,28,-1
512 512 m 1,32,-1
 640 512 l 1,33,-1
 640 384 l 1,34,-1
 512 384 l 1,35,-1
 512 512 l 1,32,-1
0 384 m 1,36,-1
 128 384 l 1,37,-1
 128 256 l 1,38,-1
 0 256 l 1,39,-1
 0 384 l 1,36,-1
128 384 m 1,40,-1
 256 384 l 1,41,-1
 256 256 l 1,42,-1
 128 256 l 1,43,-1
 128 384 l 1,40,-1
512 384 m 1,44,-1
 640 384 l 1,45,-1
 640 256 l 1,46,-1
 512 256 l 1,47,-1
 512 384 l 1,44,-1
0 256 m 1,48,-1
 128 256 l 1,49,-1
 128 128 l 1,50,-1
 0 128 l 1,51,-1
 0 256 l 1,48,-1
128 256 m 1,52,-1
 256 256 l 1,53,-1
 256 128 l 1,54,-1
 128 128 l 1,55,-1
 128 256 l 1,52,-1
384 256 m 1,56,-1
 512 256 l 1,57,-1
 512 128 l 1,58,-1
 384 128 l 1,59,-1
 384 256 l 1,56,-1
128 128 m 1,60,-1
 256 128 l 1,61,-1
 256 0 l 1,62,-1
 128 0 l 1,63,-1
 128 128 l 1,60,-1
256 128 m 1,64,-1
 384 128 l 1,65,-1
 384 0 l 1,66,-1
 256 0 l 1,67,-1
 256 128 l 1,64,-1
512 128 m 1,68,-1
 640 128 l 1,69,-1
 640 0 l 1,70,-1
 512 0 l 1,71,-1
 512 128 l 1,68,-1
EndSplineSet
Validated: 5
EndChar

StartChar: R
Encoding: 82 82 52
Width: 768
GlyphClass: 1
Flags: W
LayerCount: 2
Fore
SplineSet
0 768 m 1,0,-1
 128 768 l 1,1,-1
 128 640 l 1,2,-1
 0 640 l 1,3,-1
 0 768 l 1,0,-1
128 768 m 1,4,-1
 256 768 l 1,5,-1
 256 640 l 1,6,-1
 128 640 l 1,7,-1
 128 768 l 1,4,-1
256 768 m 1,8,-1
 384 768 l 1,9,-1
 384 640 l 1,10,-1
 256 640 l 1,11,-1
 256 768 l 1,8,-1
384 768 m 1,12,-1
 512 768 l 1,13,-1
 512 640 l 1,14,-1
 384 640 l 1,15,-1
 384 768 l 1,12,-1
0 640 m 1,16,-1
 128 640 l 1,17,-1
 128 512 l 1,18,-1
 0 512 l 1,19,-1
 0 640 l 1,16,-1
128 640 m 1,20,-1
 256 640 l 1,21,-1
 256 512 l 1,22,-1
 128 512 l 1,23,-1
 128 640 l 1,20,-1
512 640 m 1,24,-1
 640 640 l 1,25,-1
 640 512 l 1,26,-1
 512 512 l 1,27,-1
 512 640 l 1,24,-1
0 512 m 1,28,-1
 128 512 l 1,29,-1
 128 384 l 1,30,-1
 0 384 l 1,31,-1
 0 512 l 1,28,-1
128 512 m 1,32,-1
 256 512 l 1,33,-1
 256 384 l 1,34,-1
 128 384 l 1,35,-1
 128 512 l 1,32,-1
512 512 m 1,36,-1
 640 512 l 1,37,-1
 640 384 l 1,38,-1
 512 384 l 1,39,-1
 512 512 l 1,36,-1
0 384 m 1,40,-1
 128 384 l 1,41,-1
 128 256 l 1,42,-1
 0 256 l 1,43,-1
 0 384 l 1,40,-1
128 384 m 1,44,-1
 256 384 l 1,45,-1
 256 256 l 1,46,-1
 128 256 l 1,47,-1
 128 384 l 1,44,-1
512 384 m 1,48,-1
 640 384 l 1,49,-1
 640 256 l 1,50,-1
 512 256 l 1,51,-1
 512 384 l 1,48,-1
0 256 m 1,52,-1
 128 256 l 1,53,-1
 128 128 l 1,54,-1
 0 128 l 1,55,-1
 0 256 l 1,52,-1
128 256 m 1,56,-1
 256 256 l 1,57,-1
 256 128 l 1,58,-1
 128 128 l 1,59,-1
 128 256 l 1,56,-1
256 256 m 1,60,-1
 384 256 l 1,61,-1
 384 128 l 1,62,-1
 256 128 l 1,63,-1
 256 256 l 1,60,-1
384 256 m 1,64,-1
 512 256 l 1,65,-1
 512 128 l 1,66,-1
 384 128 l 1,67,-1
 384 256 l 1,64,-1
0 128 m 1,68,-1
 128 128 l 1,69,-1
 128 0 l 1,70,-1
 0 0 l 1,71,-1
 0 128 l 1,68,-1
128 128 m 1,72,-1
 256 128 l 1,73,-1
 256 0 l 1,74,-1
 128 0 l 1,75,-1
 128 128 l 1,72,-1
512 128 m 1,76,-1
 640 128 l 1,77,-1
 640 0 l 1,78,-1
 512 0 l 1,79,-1
 512 128 l 1,76,-1
EndSplineSet
Validated: 5
EndChar

StartChar: S
Encoding: 83 83 53
Width: 768
GlyphClass: 1
Flags: W
LayerCount: 2
Fore
SplineSet
128 768 m 1,0,-1
 256 768 l 1,1,-1
 256 640 l 1,2,-1
 128 640 l 1,3,-1
 128 768 l 1,0,-1
256 768 m 1,4,-1
 384 768 l 1,5,-1
 384 640 l 1,6,-1
 256 640 l 1,7,-1
 256 768 l 1,4,-1
384 768 m 1,8,-1
 512 768 l 1,9,-1
 512 640 l 1,10,-1
 384 640 l 1,11,-1
 384 768 l 1,8,-1
0 640 m 1,12,-1
 128 640 l 1,13,-1
 128 512 l 1,14,-1
 0 512 l 1,15,-1
 0 640 l 1,12,-1
128 640 m 1,16,-1
 256 640 l 1,17,-1
 256 512 l 1,18,-1
 128 512 l 1,19,-1
 128 640 l 1,16,-1
256 640 m 1,20,-1
 384 640 l 1,21,-1
 384 512 l 1,22,-1
 256 512 l 1,23,-1
 256 640 l 1,20,-1
512 640 m 1,24,-1
 640 640 l 1,25,-1
 640 512 l 1,26,-1
 512 512 l 1,27,-1
 512 640 l 1,24,-1
0 512 m 1,28,-1
 128 512 l 1,29,-1
 128 384 l 1,30,-1
 0 384 l 1,31,-1
 0 512 l 1,28,-1
128 512 m 1,32,-1
 256 512 l 1,33,-1
 256 384 l 1,34,-1
 128 384 l 1,35,-1
 128 512 l 1,32,-1
256 512 m 1,36,-1
 384 512 l 1,37,-1
 384 384 l 1,38,-1
 256 384 l 1,39,-1
 256 512 l 1,36,-1
128 384 m 1,40,-1
 256 384 l 1,41,-1
 256 256 l 1,42,-1
 128 256 l 1,43,-1
 128 384 l 1,40,-1
256 384 m 1,44,-1
 384 384 l 1,45,-1
 384 256 l 1,46,-1
 256 256 l 1,47,-1
 256 384 l 1,44,-1
384 384 m 1,48,-1
 512 384 l 1,49,-1
 512 256 l 1,50,-1
 384 256 l 1,51,-1
 384 384 l 1,48,-1
0 256 m 1,52,-1
 128 256 l 1,53,-1
 128 128 l 1,54,-1
 0 128 l 1,55,-1
 0 256 l 1,52,-1
384 256 m 1,56,-1
 512 256 l 1,57,-1
 512 128 l 1,58,-1
 384 128 l 1,59,-1
 384 256 l 1,56,-1
512 256 m 1,60,-1
 640 256 l 1,61,-1
 640 128 l 1,62,-1
 512 128 l 1,63,-1
 512 256 l 1,60,-1
128 128 m 1,64,-1
 256 128 l 1,65,-1
 256 0 l 1,66,-1
 128 0 l 1,67,-1
 128 128 l 1,64,-1
256 128 m 1,68,-1
 384 128 l 1,69,-1
 384 0 l 1,70,-1
 256 0 l 1,71,-1
 256 128 l 1,68,-1
384 128 m 1,72,-1
 512 128 l 1,73,-1
 512 0 l 1,74,-1
 384 0 l 1,75,-1
 384 128 l 1,72,-1
EndSplineSet
Validated: 5
EndChar

StartChar: T
Encoding: 84 84 54
Width: 768
GlyphClass: 1
Flags: W
LayerCount: 2
Fore
SplineSet
0 768 m 1,0,-1
 128 768 l 1,1,-1
 128 640 l 1,2,-1
 0 640 l 1,3,-1
 0 768 l 1,0,-1
128 768 m 1,4,-1
 256 768 l 1,5,-1
 256 640 l 1,6,-1
 128 640 l 1,7,-1
 128 768 l 1,4,-1
256 768 m 1,8,-1
 384 768 l 1,9,-1
 384 640 l 1,10,-1
 256 640 l 1,11,-1
 256 768 l 1,8,-1
384 768 m 1,12,-1
 512 768 l 1,13,-1
 512 640 l 1,14,-1
 384 640 l 1,15,-1
 384 768 l 1,12,-1
512 768 m 1,16,-1
 640 768 l 1,17,-1
 640 640 l 1,18,-1
 512 640 l 1,19,-1
 512 768 l 1,16,-1
128 640 m 1,20,-1
 256 640 l 1,21,-1
 256 512 l 1,22,-1
 128 512 l 1,23,-1
 128 640 l 1,20,-1
256 640 m 1,24,-1
 384 640 l 1,25,-1
 384 512 l 1,26,-1
 256 512 l 1,27,-1
 256 640 l 1,24,-1
128 512 m 1,28,-1
 256 512 l 1,29,-1
 256 384 l 1,30,-1
 128 384 l 1,31,-1
 128 512 l 1,28,-1
256 512 m 1,32,-1
 384 512 l 1,33,-1
 384 384 l 1,34,-1
 256 384 l 1,35,-1
 256 512 l 1,32,-1
128 384 m 1,36,-1
 256 384 l 1,37,-1
 256 256 l 1,38,-1
 128 256 l 1,39,-1
 128 384 l 1,36,-1
256 384 m 1,40,-1
 384 384 l 1,41,-1
 384 256 l 1,42,-1
 256 256 l 1,43,-1
 256 384 l 1,40,-1
128 256 m 1,44,-1
 256 256 l 1,45,-1
 256 128 l 1,46,-1
 128 128 l 1,47,-1
 128 256 l 1,44,-1
256 256 m 1,48,-1
 384 256 l 1,49,-1
 384 128 l 1,50,-1
 256 128 l 1,51,-1
 256 256 l 1,48,-1
128 128 m 1,52,-1
 256 128 l 1,53,-1
 256 0 l 1,54,-1
 128 0 l 1,55,-1
 128 128 l 1,52,-1
256 128 m 1,56,-1
 384 128 l 1,57,-1
 384 0 l 1,58,-1
 256 0 l 1,59,-1
 256 128 l 1,56,-1
EndSplineSet
Validated: 5
EndChar

StartChar: U
Encoding: 85 85 55
Width: 768
GlyphClass: 1
Flags: W
LayerCount: 2
Fore
SplineSet
0 768 m 1,0,-1
 128 768 l 1,1,-1
 128 640 l 1,2,-1
 0 640 l 1,3,-1
 0 768 l 1,0,-1
128 768 m 1,4,-1
 256 768 l 1,5,-1
 256 640 l 1,6,-1
 128 640 l 1,7,-1
 128 768 l 1,4,-1
512 768 m 1,8,-1
 640 768 l 1,9,-1
 640 640 l 1,10,-1
 512 640 l 1,11,-1
 512 768 l 1,8,-1
0 640 m 1,12,-1
 128 640 l 1,13,-1
 128 512 l 1,14,-1
 0 512 l 1,15,-1
 0 640 l 1,12,-1
128 640 m 1,16,-1
 256 640 l 1,17,-1
 256 512 l 1,18,-1
 128 512 l 1,19,-1
 128 640 l 1,16,-1
512 640 m 1,20,-1
 640 640 l 1,21,-1
 640 512 l 1,22,-1
 512 512 l 1,23,-1
 512 640 l 1,20,-1
0 512 m 1,24,-1
 128 512 l 1,25,-1
 128 384 l 1,26,-1
 0 384 l 1,27,-1
 0 512 l 1,24,-1
128 512 m 1,28,-1
 256 512 l 1,29,-1
 256 384 l 1,30,-1
 128 384 l 1,31,-1
 128 512 l 1,28,-1
512 512 m 1,32,-1
 640 512 l 1,33,-1
 640 384 l 1,34,-1
 512 384 l 1,35,-1
 512 512 l 1,32,-1
0 384 m 1,36,-1
 128 384 l 1,37,-1
 128 256 l 1,38,-1
 0 256 l 1,39,-1
 0 384 l 1,36,-1
128 384 m 1,40,-1
 256 384 l 1,41,-1
 256 256 l 1,42,-1
 128 256 l 1,43,-1
 128 384 l 1,40,-1
512 384 m 1,44,-1
 640 384 l 1,45,-1
 640 256 l 1,46,-1
 512 256 l 1,47,-1
 512 384 l 1,44,-1
0 256 m 1,48,-1
 128 256 l 1,49,-1
 128 128 l 1,50,-1
 0 128 l 1,51,-1
 0 256 l 1,48,-1
128 256 m 1,52,-1
 256 256 l 1,53,-1
 256 128 l 1,54,-1
 128 128 l 1,55,-1
 128 256 l 1,52,-1
512 256 m 1,56,-1
 640 256 l 1,57,-1
 640 128 l 1,58,-1
 512 128 l 1,59,-1
 512 256 l 1,56,-1
128 128 m 1,60,-1
 256 128 l 1,61,-1
 256 0 l 1,62,-1
 128 0 l 1,63,-1
 128 128 l 1,60,-1
256 128 m 1,64,-1
 384 128 l 1,65,-1
 384 0 l 1,66,-1
 256 0 l 1,67,-1
 256 128 l 1,64,-1
384 128 m 1,68,-1
 512 128 l 1,69,-1
 512 0 l 1,70,-1
 384 0 l 1,71,-1
 384 128 l 1,68,-1
EndSplineSet
Validated: 5
EndChar

StartChar: V
Encoding: 86 86 56
Width: 768
GlyphClass: 1
Flags: W
LayerCount: 2
Fore
SplineSet
0 768 m 1,0,-1
 128 768 l 1,1,-1
 128 640 l 1,2,-1
 0 640 l 1,3,-1
 0 768 l 1,0,-1
128 768 m 1,4,-1
 256 768 l 1,5,-1
 256 640 l 1,6,-1
 128 640 l 1,7,-1
 128 768 l 1,4,-1
512 768 m 1,8,-1
 640 768 l 1,9,-1
 640 640 l 1,10,-1
 512 640 l 1,11,-1
 512 768 l 1,8,-1
0 640 m 1,12,-1
 128 640 l 1,13,-1
 128 512 l 1,14,-1
 0 512 l 1,15,-1
 0 640 l 1,12,-1
128 640 m 1,16,-1
 256 640 l 1,17,-1
 256 512 l 1,18,-1
 128 512 l 1,19,-1
 128 640 l 1,16,-1
512 640 m 1,20,-1
 640 640 l 1,21,-1
 640 512 l 1,22,-1
 512 512 l 1,23,-1
 512 640 l 1,20,-1
0 512 m 1,24,-1
 128 512 l 1,25,-1
 128 384 l 1,26,-1
 0 384 l 1,27,-1
 0 512 l 1,24,-1
128 512 m 1,28,-1
 256 512 l 1,29,-1
 256 384 l 1,30,-1
 128 384 l 1,31,-1
 128 512 l 1,28,-1
512 512 m 1,32,-1
 640 512 l 1,33,-1
 640 384 l 1,34,-1
 512 384 l 1,35,-1
 512 512 l 1,32,-1
0 384 m 1,36,-1
 128 384 l 1,37,-1
 128 256 l 1,38,-1
 0 256 l 1,39,-1
 0 384 l 1,36,-1
128 384 m 1,40,-1
 256 384 l 1,41,-1
 256 256 l 1,42,-1
 128 256 l 1,43,-1
 128 384 l 1,40,-1
512 384 m 1,44,-1
 640 384 l 1,45,-1
 640 256 l 1,46,-1
 512 256 l 1,47,-1
 512 384 l 1,44,-1
128 256 m 1,48,-1
 256 256 l 1,49,-1
 256 128 l 1,50,-1
 128 128 l 1,51,-1
 128 256 l 1,48,-1
256 256 m 1,52,-1
 384 256 l 1,53,-1
 384 128 l 1,54,-1
 256 128 l 1,55,-1
 256 256 l 1,52,-1
384 256 m 1,56,-1
 512 256 l 1,57,-1
 512 128 l 1,58,-1
 384 128 l 1,59,-1
 384 256 l 1,56,-1
256 128 m 1,60,-1
 384 128 l 1,61,-1
 384 0 l 1,62,-1
 256 0 l 1,63,-1
 256 128 l 1,60,-1
EndSplineSet
Validated: 5
EndChar

StartChar: W
Encoding: 87 87 57
Width: 768
GlyphClass: 1
Flags: W
LayerCount: 2
Fore
SplineSet
0 768 m 1,0,-1
 128 768 l 1,1,-1
 128 640 l 1,2,-1
 0 640 l 1,3,-1
 0 768 l 1,0,-1
128 768 m 1,4,-1
 256 768 l 1,5,-1
 256 640 l 1,6,-1
 128 640 l 1,7,-1
 128 768 l 1,4,-1
512 768 m 1,8,-1
 640 768 l 1,9,-1
 640 640 l 1,10,-1
 512 640 l 1,11,-1
 512 768 l 1,8,-1
0 640 m 1,12,-1
 128 640 l 1,13,-1
 128 512 l 1,14,-1
 0 512 l 1,15,-1
 0 640 l 1,12,-1
128 640 m 1,16,-1
 256 640 l 1,17,-1
 256 512 l 1,18,-1
 128 512 l 1,19,-1
 128 640 l 1,16,-1
512 640 m 1,20,-1
 640 640 l 1,21,-1
 640 512 l 1,22,-1
 512 512 l 1,23,-1
 512 640 l 1,20,-1
0 512 m 1,24,-1
 128 512 l 1,25,-1
 128 384 l 1,26,-1
 0 384 l 1,27,-1
 0 512 l 1,24,-1
128 512 m 1,28,-1
 256 512 l 1,29,-1
 256 384 l 1,30,-1
 128 384 l 1,31,-1
 128 512 l 1,28,-1
512 512 m 1,32,-1
 640 512 l 1,33,-1
 640 384 l 1,34,-1
 512 384 l 1,35,-1
 512 512 l 1,32,-1
0 384 m 1,36,-1
 128 384 l 1,37,-1
 128 256 l 1,38,-1
 0 256 l 1,39,-1
 0 384 l 1,36,-1
128 384 m 1,40,-1
 256 384 l 1,41,-1
 256 256 l 1,42,-1
 128 256 l 1,43,-1
 128 384 l 1,40,-1
512 384 m 1,44,-1
 640 384 l 1,45,-1
 640 256 l 1,46,-1
 512 256 l 1,47,-1
 512 384 l 1,44,-1
0 256 m 1,48,-1
 128 256 l 1,49,-1
 128 128 l 1,50,-1
 0 128 l 1,51,-1
 0 256 l 1,48,-1
256 256 m 1,52,-1
 384 256 l 1,53,-1
 384 128 l 1,54,-1
 256 128 l 1,55,-1
 256 256 l 1,52,-1
512 256 m 1,56,-1
 640 256 l 1,57,-1
 640 128 l 1,58,-1
 512 128 l 1,59,-1
 512 256 l 1,56,-1
128 128 m 1,60,-1
 256 128 l 1,61,-1
 256 0 l 1,62,-1
 128 0 l 1,63,-1
 128 128 l 1,60,-1
384 128 m 1,64,-1
 512 128 l 1,65,-1
 512 0 l 1,66,-1
 384 0 l 1,67,-1
 384 128 l 1,64,-1
EndSplineSet
Validated: 5
EndChar

StartChar: X
Encoding: 88 88 58
Width: 768
GlyphClass: 1
Flags: W
LayerCount: 2
Fore
SplineSet
0 768 m 1,0,-1
 128 768 l 1,1,-1
 128 640 l 1,2,-1
 0 640 l 1,3,-1
 0 768 l 1,0,-1
128 768 m 1,4,-1
 256 768 l 1,5,-1
 256 640 l 1,6,-1
 128 640 l 1,7,-1
 128 768 l 1,4,-1
512 768 m 1,8,-1
 640 768 l 1,9,-1
 640 640 l 1,10,-1
 512 640 l 1,11,-1
 512 768 l 1,8,-1
0 640 m 1,12,-1
 128 640 l 1,13,-1
 128 512 l 1,14,-1
 0 512 l 1,15,-1
 0 640 l 1,12,-1
128 640 m 1,16,-1
 256 640 l 1,17,-1
 256 512 l 1,18,-1
 128 512 l 1,19,-1
 128 640 l 1,16,-1
512 640 m 1,20,-1
 640 640 l 1,21,-1
 640 512 l 1,22,-1
 512 512 l 1,23,-1
 512 640 l 1,20,-1
0 512 m 1,24,-1
 128 512 l 1,25,-1
 128 384 l 1,26,-1
 0 384 l 1,27,-1
 0 512 l 1,24,-1
128 512 m 1,28,-1
 256 512 l 1,29,-1
 256 384 l 1,30,-1
 128 384 l 1,31,-1
 128 512 l 1,28,-1
512 512 m 1,32,-1
 640 512 l 1,33,-1
 640 384 l 1,34,-1
 512 384 l 1,35,-1
 512 512 l 1,32,-1
128 384 m 1,36,-1
 256 384 l 1,37,-1
 256 256 l 1,38,-1
 128 256 l 1,39,-1
 128 384 l 1,36,-1
256 384 m 1,40,-1
 384 384 l 1,41,-1
 384 256 l 1,42,-1
 256 256 l 1,43,-1
 256 384 l 1,40,-1
384 384 m 1,44,-1
 512 384 l 1,45,-1
 512 256 l 1,46,-1
 384 256 l 1,47,-1
 384 384 l 1,44,-1
0 256 m 1,48,-1
 128 256 l 1,49,-1
 128 128 l 1,50,-1
 0 128 l 1,51,-1
 0 256 l 1,48,-1
128 256 m 1,52,-1
 256 256 l 1,53,-1
 256 128 l 1,54,-1
 128 128 l 1,55,-1
 128 256 l 1,52,-1
512 256 m 1,56,-1
 640 256 l 1,57,-1
 640 128 l 1,58,-1
 512 128 l 1,59,-1
 512 256 l 1,56,-1
0 128 m 1,60,-1
 128 128 l 1,61,-1
 128 0 l 1,62,-1
 0 0 l 1,63,-1
 0 128 l 1,60,-1
128 128 m 1,64,-1
 256 128 l 1,65,-1
 256 0 l 1,66,-1
 128 0 l 1,67,-1
 128 128 l 1,64,-1
512 128 m 1,68,-1
 640 128 l 1,69,-1
 640 0 l 1,70,-1
 512 0 l 1,71,-1
 512 128 l 1,68,-1
EndSplineSet
Validated: 5
EndChar

StartChar: Y
Encoding: 89 89 59
Width: 768
GlyphClass: 1
Flags: W
LayerCount: 2
Fore
SplineSet
0 768 m 1,0,-1
 128 768 l 1,1,-1
 128 640 l 1,2,-1
 0 640 l 1,3,-1
 0 768 l 1,0,-1
384 768 m 1,4,-1
 512 768 l 1,5,-1
 512 640 l 1,6,-1
 384 640 l 1,7,-1
 384 768 l 1,4,-1
512 768 m 1,8,-1
 640 768 l 1,9,-1
 640 640 l 1,10,-1
 512 640 l 1,11,-1
 512 768 l 1,8,-1
0 640 m 1,12,-1
 128 640 l 1,13,-1
 128 512 l 1,14,-1
 0 512 l 1,15,-1
 0 640 l 1,12,-1
384 640 m 1,16,-1
 512 640 l 1,17,-1
 512 512 l 1,18,-1
 384 512 l 1,19,-1
 384 640 l 1,16,-1
512 640 m 1,20,-1
 640 640 l 1,21,-1
 640 512 l 1,22,-1
 512 512 l 1,23,-1
 512 640 l 1,20,-1
0 512 m 1,24,-1
 128 512 l 1,25,-1
 128 384 l 1,26,-1
 0 384 l 1,27,-1
 0 512 l 1,24,-1
384 512 m 1,28,-1
 512 512 l 1,29,-1
 512 384 l 1,30,-1
 384 384 l 1,31,-1
 384 512 l 1,28,-1
512 512 m 1,32,-1
 640 512 l 1,33,-1
 640 384 l 1,34,-1
 512 384 l 1,35,-1
 512 512 l 1,32,-1
128 384 m 1,36,-1
 256 384 l 1,37,-1
 256 256 l 1,38,-1
 128 256 l 1,39,-1
 128 384 l 1,36,-1
256 384 m 1,40,-1
 384 384 l 1,41,-1
 384 256 l 1,42,-1
 256 256 l 1,43,-1
 256 384 l 1,40,-1
384 384 m 1,44,-1
 512 384 l 1,45,-1
 512 256 l 1,46,-1
 384 256 l 1,47,-1
 384 384 l 1,44,-1
512 384 m 1,48,-1
 640 384 l 1,49,-1
 640 256 l 1,50,-1
 512 256 l 1,51,-1
 512 384 l 1,48,-1
384 256 m 1,52,-1
 512 256 l 1,53,-1
 512 128 l 1,54,-1
 384 128 l 1,55,-1
 384 256 l 1,52,-1
512 256 m 1,56,-1
 640 256 l 1,57,-1
 640 128 l 1,58,-1
 512 128 l 1,59,-1
 512 256 l 1,56,-1
128 128 m 1,60,-1
 256 128 l 1,61,-1
 256 0 l 1,62,-1
 128 0 l 1,63,-1
 128 128 l 1,60,-1
256 128 m 1,64,-1
 384 128 l 1,65,-1
 384 0 l 1,66,-1
 256 0 l 1,67,-1
 256 128 l 1,64,-1
384 128 m 1,68,-1
 512 128 l 1,69,-1
 512 0 l 1,70,-1
 384 0 l 1,71,-1
 384 128 l 1,68,-1
EndSplineSet
Validated: 5
EndChar

StartChar: Z
Encoding: 90 90 60
Width: 768
GlyphClass: 1
Flags: W
LayerCount: 2
Fore
SplineSet
0 768 m 1,0,-1
 128 768 l 1,1,-1
 128 640 l 1,2,-1
 0 640 l 1,3,-1
 0 768 l 1,0,-1
128 768 m 1,4,-1
 256 768 l 1,5,-1
 256 640 l 1,6,-1
 128 640 l 1,7,-1
 128 768 l 1,4,-1
256 768 m 1,8,-1
 384 768 l 1,9,-1
 384 640 l 1,10,-1
 256 640 l 1,11,-1
 256 768 l 1,8,-1
384 768 m 1,12,-1
 512 768 l 1,13,-1
 512 640 l 1,14,-1
 384 640 l 1,15,-1
 384 768 l 1,12,-1
512 768 m 1,16,-1
 640 768 l 1,17,-1
 640 640 l 1,18,-1
 512 640 l 1,19,-1
 512 768 l 1,16,-1
384 640 m 1,20,-1
 512 640 l 1,21,-1
 512 512 l 1,22,-1
 384 512 l 1,23,-1
 384 640 l 1,20,-1
512 640 m 1,24,-1
 640 640 l 1,25,-1
 640 512 l 1,26,-1
 512 512 l 1,27,-1
 512 640 l 1,24,-1
384 512 m 1,28,-1
 512 512 l 1,29,-1
 512 384 l 1,30,-1
 384 384 l 1,31,-1
 384 512 l 1,28,-1
512 512 m 1,32,-1
 640 512 l 1,33,-1
 640 384 l 1,34,-1
 512 384 l 1,35,-1
 512 512 l 1,32,-1
128 384 m 1,36,-1
 256 384 l 1,37,-1
 256 256 l 1,38,-1
 128 256 l 1,39,-1
 128 384 l 1,36,-1
256 384 m 1,40,-1
 384 384 l 1,41,-1
 384 256 l 1,42,-1
 256 256 l 1,43,-1
 256 384 l 1,40,-1
384 384 m 1,44,-1
 512 384 l 1,45,-1
 512 256 l 1,46,-1
 384 256 l 1,47,-1
 384 384 l 1,44,-1
0 256 m 1,48,-1
 128 256 l 1,49,-1
 128 128 l 1,50,-1
 0 128 l 1,51,-1
 0 256 l 1,48,-1
128 256 m 1,52,-1
 256 256 l 1,53,-1
 256 128 l 1,54,-1
 128 128 l 1,55,-1
 128 256 l 1,52,-1
0 128 m 1,56,-1
 128 128 l 1,57,-1
 128 0 l 1,58,-1
 0 0 l 1,59,-1
 0 128 l 1,56,-1
128 128 m 1,60,-1
 256 128 l 1,61,-1
 256 0 l 1,62,-1
 128 0 l 1,63,-1
 128 128 l 1,60,-1
256 128 m 1,64,-1
 384 128 l 1,65,-1
 384 0 l 1,66,-1
 256 0 l 1,67,-1
 256 128 l 1,64,-1
384 128 m 1,68,-1
 512 128 l 1,69,-1
 512 0 l 1,70,-1
 384 0 l 1,71,-1
 384 128 l 1,68,-1
512 128 m 1,72,-1
 640 128 l 1,73,-1
 640 0 l 1,74,-1
 512 0 l 1,75,-1
 512 128 l 1,72,-1
EndSplineSet
Validated: 5
EndChar

StartChar: bracketleft
Encoding: 91 91 61
Width: 768
GlyphClass: 1
Flags: W
LayerCount: 2
Fore
SplineSet
128 896 m 1,0,-1
 256 896 l 1,1,-1
 256 768 l 1,2,-1
 128 768 l 1,3,-1
 128 896 l 1,0,-1
256 896 m 1,4,-1
 384 896 l 1,5,-1
 384 768 l 1,6,-1
 256 768 l 1,7,-1
 256 896 l 1,4,-1
384 896 m 1,8,-1
 512 896 l 1,9,-1
 512 768 l 1,10,-1
 384 768 l 1,11,-1
 384 896 l 1,8,-1
128 768 m 1,12,-1
 256 768 l 1,13,-1
 256 640 l 1,14,-1
 128 640 l 1,15,-1
 128 768 l 1,12,-1
256 768 m 1,16,-1
 384 768 l 1,17,-1
 384 640 l 1,18,-1
 256 640 l 1,19,-1
 256 768 l 1,16,-1
128 640 m 1,20,-1
 256 640 l 1,21,-1
 256 512 l 1,22,-1
 128 512 l 1,23,-1
 128 640 l 1,20,-1
256 640 m 1,24,-1
 384 640 l 1,25,-1
 384 512 l 1,26,-1
 256 512 l 1,27,-1
 256 640 l 1,24,-1
128 512 m 1,28,-1
 256 512 l 1,29,-1
 256 384 l 1,30,-1
 128 384 l 1,31,-1
 128 512 l 1,28,-1
256 512 m 1,32,-1
 384 512 l 1,33,-1
 384 384 l 1,34,-1
 256 384 l 1,35,-1
 256 512 l 1,32,-1
128 384 m 1,36,-1
 256 384 l 1,37,-1
 256 256 l 1,38,-1
 128 256 l 1,39,-1
 128 384 l 1,36,-1
256 384 m 1,40,-1
 384 384 l 1,41,-1
 384 256 l 1,42,-1
 256 256 l 1,43,-1
 256 384 l 1,40,-1
128 256 m 1,44,-1
 256 256 l 1,45,-1
 256 128 l 1,46,-1
 128 128 l 1,47,-1
 128 256 l 1,44,-1
256 256 m 1,48,-1
 384 256 l 1,49,-1
 384 128 l 1,50,-1
 256 128 l 1,51,-1
 256 256 l 1,48,-1
128 128 m 1,52,-1
 256 128 l 1,53,-1
 256 0 l 1,54,-1
 128 0 l 1,55,-1
 128 128 l 1,52,-1
256 128 m 1,56,-1
 384 128 l 1,57,-1
 384 0 l 1,58,-1
 256 0 l 1,59,-1
 256 128 l 1,56,-1
384 128 m 1,60,-1
 512 128 l 1,61,-1
 512 0 l 1,62,-1
 384 0 l 1,63,-1
 384 128 l 1,60,-1
EndSplineSet
Validated: 5
EndChar

StartChar: backslash
Encoding: 92 92 62
Width: 768
GlyphClass: 1
Flags: W
LayerCount: 2
Fore
SplineSet
128 768 m 1,0,-1
 256 768 l 1,1,-1
 256 640 l 1,2,-1
 128 640 l 1,3,-1
 128 768 l 1,0,-1
128 640 m 1,4,-1
 256 640 l 1,5,-1
 256 512 l 1,6,-1
 128 512 l 1,7,-1
 128 640 l 1,4,-1
256 512 m 1,8,-1
 384 512 l 1,9,-1
 384 384 l 1,10,-1
 256 384 l 1,11,-1
 256 512 l 1,8,-1
256 384 m 1,12,-1
 384 384 l 1,13,-1
 384 256 l 1,14,-1
 256 256 l 1,15,-1
 256 384 l 1,12,-1
384 256 m 1,16,-1
 512 256 l 1,17,-1
 512 128 l 1,18,-1
 384 128 l 1,19,-1
 384 256 l 1,16,-1
384 128 m 1,20,-1
 512 128 l 1,21,-1
 512 0 l 1,22,-1
 384 0 l 1,23,-1
 384 128 l 1,20,-1
EndSplineSet
Validated: 5
EndChar

StartChar: bracketright
Encoding: 93 93 63
Width: 768
GlyphClass: 1
Flags: W
LayerCount: 2
Fore
SplineSet
128 896 m 1,0,-1
 256 896 l 1,1,-1
 256 768 l 1,2,-1
 128 768 l 1,3,-1
 128 896 l 1,0,-1
256 896 m 1,4,-1
 384 896 l 1,5,-1
 384 768 l 1,6,-1
 256 768 l 1,7,-1
 256 896 l 1,4,-1
384 896 m 1,8,-1
 512 896 l 1,9,-1
 512 768 l 1,10,-1
 384 768 l 1,11,-1
 384 896 l 1,8,-1
256 768 m 1,12,-1
 384 768 l 1,13,-1
 384 640 l 1,14,-1
 256 640 l 1,15,-1
 256 768 l 1,12,-1
384 768 m 1,16,-1
 512 768 l 1,17,-1
 512 640 l 1,18,-1
 384 640 l 1,19,-1
 384 768 l 1,16,-1
256 640 m 1,20,-1
 384 640 l 1,21,-1
 384 512 l 1,22,-1
 256 512 l 1,23,-1
 256 640 l 1,20,-1
384 640 m 1,24,-1
 512 640 l 1,25,-1
 512 512 l 1,26,-1
 384 512 l 1,27,-1
 384 640 l 1,24,-1
256 512 m 1,28,-1
 384 512 l 1,29,-1
 384 384 l 1,30,-1
 256 384 l 1,31,-1
 256 512 l 1,28,-1
384 512 m 1,32,-1
 512 512 l 1,33,-1
 512 384 l 1,34,-1
 384 384 l 1,35,-1
 384 512 l 1,32,-1
256 384 m 1,36,-1
 384 384 l 1,37,-1
 384 256 l 1,38,-1
 256 256 l 1,39,-1
 256 384 l 1,36,-1
384 384 m 1,40,-1
 512 384 l 1,41,-1
 512 256 l 1,42,-1
 384 256 l 1,43,-1
 384 384 l 1,40,-1
256 256 m 1,44,-1
 384 256 l 1,45,-1
 384 128 l 1,46,-1
 256 128 l 1,47,-1
 256 256 l 1,44,-1
384 256 m 1,48,-1
 512 256 l 1,49,-1
 512 128 l 1,50,-1
 384 128 l 1,51,-1
 384 256 l 1,48,-1
128 128 m 1,52,-1
 256 128 l 1,53,-1
 256 0 l 1,54,-1
 128 0 l 1,55,-1
 128 128 l 1,52,-1
256 128 m 1,56,-1
 384 128 l 1,57,-1
 384 0 l 1,58,-1
 256 0 l 1,59,-1
 256 128 l 1,56,-1
384 128 m 1,60,-1
 512 128 l 1,61,-1
 512 0 l 1,62,-1
 384 0 l 1,63,-1
 384 128 l 1,60,-1
EndSplineSet
Validated: 5
EndChar

StartChar: asciicircum
Encoding: 94 94 64
Width: 768
GlyphClass: 1
Flags: W
LayerCount: 2
Fore
SplineSet
256 896 m 1,0,-1
 384 896 l 1,1,-1
 384 768 l 1,2,-1
 256 768 l 1,3,-1
 256 896 l 1,0,-1
128 768 m 1,4,-1
 256 768 l 1,5,-1
 256 640 l 1,6,-1
 128 640 l 1,7,-1
 128 768 l 1,4,-1
384 768 m 1,8,-1
 512 768 l 1,9,-1
 512 640 l 1,10,-1
 384 640 l 1,11,-1
 384 768 l 1,8,-1
EndSplineSet
Validated: 5
EndChar

StartChar: underscore
Encoding: 95 95 65
Width: 768
GlyphClass: 1
Flags: W
LayerCount: 2
Fore
SplineSet
0 128 m 1,0,-1
 128 128 l 1,1,-1
 128 0 l 1,2,-1
 0 0 l 1,3,-1
 0 128 l 1,0,-1
128 128 m 1,4,-1
 256 128 l 1,5,-1
 256 0 l 1,6,-1
 128 0 l 1,7,-1
 128 128 l 1,4,-1
256 128 m 1,8,-1
 384 128 l 1,9,-1
 384 0 l 1,10,-1
 256 0 l 1,11,-1
 256 128 l 1,8,-1
384 128 m 1,12,-1
 512 128 l 1,13,-1
 512 0 l 1,14,-1
 384 0 l 1,15,-1
 384 128 l 1,12,-1
512 128 m 1,16,-1
 640 128 l 1,17,-1
 640 0 l 1,18,-1
 512 0 l 1,19,-1
 512 128 l 1,16,-1
EndSplineSet
Validated: 5
EndChar

StartChar: grave
Encoding: 96 96 66
Width: 768
GlyphClass: 1
Flags: W
LayerCount: 2
Fore
SplineSet
256 896 m 1,0,-1
 384 896 l 1,1,-1
 384 768 l 1,2,-1
 256 768 l 1,3,-1
 256 896 l 1,0,-1
384 768 m 1,4,-1
 512 768 l 1,5,-1
 512 640 l 1,6,-1
 384 640 l 1,7,-1
 384 768 l 1,4,-1
EndSplineSet
Validated: 5
EndChar

StartChar: a
Encoding: 97 97 67
Width: 768
GlyphClass: 1
Flags: W
LayerCount: 2
Fore
SplineSet
128 640 m 1,0,-1
 256 640 l 1,1,-1
 256 512 l 1,2,-1
 128 512 l 1,3,-1
 128 640 l 1,0,-1
256 640 m 1,4,-1
 384 640 l 1,5,-1
 384 512 l 1,6,-1
 256 512 l 1,7,-1
 256 640 l 1,4,-1
384 640 m 1,8,-1
 512 640 l 1,9,-1
 512 512 l 1,10,-1
 384 512 l 1,11,-1
 384 640 l 1,8,-1
384 512 m 1,12,-1
 512 512 l 1,13,-1
 512 384 l 1,14,-1
 384 384 l 1,15,-1
 384 512 l 1,12,-1
512 512 m 1,16,-1
 640 512 l 1,17,-1
 640 384 l 1,18,-1
 512 384 l 1,19,-1
 512 512 l 1,16,-1
128 384 m 1,20,-1
 256 384 l 1,21,-1
 256 256 l 1,22,-1
 128 256 l 1,23,-1
 128 384 l 1,20,-1
256 384 m 1,24,-1
 384 384 l 1,25,-1
 384 256 l 1,26,-1
 256 256 l 1,27,-1
 256 384 l 1,24,-1
384 384 m 1,28,-1
 512 384 l 1,29,-1
 512 256 l 1,30,-1
 384 256 l 1,31,-1
 384 384 l 1,28,-1
512 384 m 1,32,-1
 640 384 l 1,33,-1
 640 256 l 1,34,-1
 512 256 l 1,35,-1
 512 384 l 1,32,-1
0 256 m 1,36,-1
 128 256 l 1,37,-1
 128 128 l 1,38,-1
 0 128 l 1,39,-1
 0 256 l 1,36,-1
384 256 m 1,40,-1
 512 256 l 1,41,-1
 512 128 l 1,42,-1
 384 128 l 1,43,-1
 384 256 l 1,40,-1
512 256 m 1,44,-1
 640 256 l 1,45,-1
 640 128 l 1,46,-1
 512 128 l 1,47,-1
 512 256 l 1,44,-1
128 128 m 1,48,-1
 256 128 l 1,49,-1
 256 0 l 1,50,-1
 128 0 l 1,51,-1
 128 128 l 1,48,-1
256 128 m 1,52,-1
 384 128 l 1,53,-1
 384 0 l 1,54,-1
 256 0 l 1,55,-1
 256 128 l 1,52,-1
384 128 m 1,56,-1
 512 128 l 1,57,-1
 512 0 l 1,58,-1
 384 0 l 1,59,-1
 384 128 l 1,56,-1
512 128 m 1,60,-1
 640 128 l 1,61,-1
 640 0 l 1,62,-1
 512 0 l 1,63,-1
 512 128 l 1,60,-1
EndSplineSet
Validated: 5
EndChar

StartChar: b
Encoding: 98 98 68
Width: 768
GlyphClass: 1
Flags: W
LayerCount: 2
Fore
SplineSet
0 768 m 1,0,-1
 128 768 l 1,1,-1
 128 640 l 1,2,-1
 0 640 l 1,3,-1
 0 768 l 1,0,-1
128 768 m 1,4,-1
 256 768 l 1,5,-1
 256 640 l 1,6,-1
 128 640 l 1,7,-1
 128 768 l 1,4,-1
0 640 m 1,8,-1
 128 640 l 1,9,-1
 128 512 l 1,10,-1
 0 512 l 1,11,-1
 0 640 l 1,8,-1
128 640 m 1,12,-1
 256 640 l 1,13,-1
 256 512 l 1,14,-1
 128 512 l 1,15,-1
 128 640 l 1,12,-1
0 512 m 1,16,-1
 128 512 l 1,17,-1
 128 384 l 1,18,-1
 0 384 l 1,19,-1
 0 512 l 1,16,-1
128 512 m 1,20,-1
 256 512 l 1,21,-1
 256 384 l 1,22,-1
 128 384 l 1,23,-1
 128 512 l 1,20,-1
256 512 m 1,24,-1
 384 512 l 1,25,-1
 384 384 l 1,26,-1
 256 384 l 1,27,-1
 256 512 l 1,24,-1
384 512 m 1,28,-1
 512 512 l 1,29,-1
 512 384 l 1,30,-1
 384 384 l 1,31,-1
 384 512 l 1,28,-1
0 384 m 1,32,-1
 128 384 l 1,33,-1
 128 256 l 1,34,-1
 0 256 l 1,35,-1
 0 384 l 1,32,-1
128 384 m 1,36,-1
 256 384 l 1,37,-1
 256 256 l 1,38,-1
 128 256 l 1,39,-1
 128 384 l 1,36,-1
512 384 m 1,40,-1
 640 384 l 1,41,-1
 640 256 l 1,42,-1
 512 256 l 1,43,-1
 512 384 l 1,40,-1
0 256 m 1,44,-1
 128 256 l 1,45,-1
 128 128 l 1,46,-1
 0 128 l 1,47,-1
 0 256 l 1,44,-1
128 256 m 1,48,-1
 256 256 l 1,49,-1
 256 128 l 1,50,-1
 128 128 l 1,51,-1
 128 256 l 1,48,-1
512 256 m 1,52,-1
 640 256 l 1,53,-1
 640 128 l 1,54,-1
 512 128 l 1,55,-1
 512 256 l 1,52,-1
0 128 m 1,56,-1
 128 128 l 1,57,-1
 128 0 l 1,58,-1
 0 0 l 1,59,-1
 0 128 l 1,56,-1
128 128 m 1,60,-1
 256 128 l 1,61,-1
 256 0 l 1,62,-1
 128 0 l 1,63,-1
 128 128 l 1,60,-1
256 128 m 1,64,-1
 384 128 l 1,65,-1
 384 0 l 1,66,-1
 256 0 l 1,67,-1
 256 128 l 1,64,-1
384 128 m 1,68,-1
 512 128 l 1,69,-1
 512 0 l 1,70,-1
 384 0 l 1,71,-1
 384 128 l 1,68,-1
EndSplineSet
Validated: 5
EndChar

StartChar: c
Encoding: 99 99 69
Width: 768
GlyphClass: 1
Flags: W
LayerCount: 2
Fore
SplineSet
128 640 m 1,0,-1
 256 640 l 1,1,-1
 256 512 l 1,2,-1
 128 512 l 1,3,-1
 128 640 l 1,0,-1
256 640 m 1,4,-1
 384 640 l 1,5,-1
 384 512 l 1,6,-1
 256 512 l 1,7,-1
 256 640 l 1,4,-1
384 640 m 1,8,-1
 512 640 l 1,9,-1
 512 512 l 1,10,-1
 384 512 l 1,11,-1
 384 640 l 1,8,-1
0 512 m 1,12,-1
 128 512 l 1,13,-1
 128 384 l 1,14,-1
 0 384 l 1,15,-1
 0 512 l 1,12,-1
128 512 m 1,16,-1
 256 512 l 1,17,-1
 256 384 l 1,18,-1
 128 384 l 1,19,-1
 128 512 l 1,16,-1
512 512 m 1,20,-1
 640 512 l 1,21,-1
 640 384 l 1,22,-1
 512 384 l 1,23,-1
 512 512 l 1,20,-1
0 384 m 1,24,-1
 128 384 l 1,25,-1
 128 256 l 1,26,-1
 0 256 l 1,27,-1
 0 384 l 1,24,-1
128 384 m 1,28,-1
 256 384 l 1,29,-1
 256 256 l 1,30,-1
 128 256 l 1,31,-1
 128 384 l 1,28,-1
0 256 m 1,32,-1
 128 256 l 1,33,-1
 128 128 l 1,34,-1
 0 128 l 1,35,-1
 0 256 l 1,32,-1
128 256 m 1,36,-1
 256 256 l 1,37,-1
 256 128 l 1,38,-1
 128 128 l 1,39,-1
 128 256 l 1,36,-1
512 256 m 1,40,-1
 640 256 l 1,41,-1
 640 128 l 1,42,-1
 512 128 l 1,43,-1
 512 256 l 1,40,-1
128 128 m 1,44,-1
 256 128 l 1,45,-1
 256 0 l 1,46,-1
 128 0 l 1,47,-1
 128 128 l 1,44,-1
256 128 m 1,48,-1
 384 128 l 1,49,-1
 384 0 l 1,50,-1
 256 0 l 1,51,-1
 256 128 l 1,48,-1
384 128 m 1,52,-1
 512 128 l 1,53,-1
 512 0 l 1,54,-1
 384 0 l 1,55,-1
 384 128 l 1,52,-1
EndSplineSet
Validated: 5
EndChar

StartChar: d
Encoding: 100 100 70
Width: 768
GlyphClass: 1
Flags: W
LayerCount: 2
Fore
SplineSet
384 768 m 1,0,-1
 512 768 l 1,1,-1
 512 640 l 1,2,-1
 384 640 l 1,3,-1
 384 768 l 1,0,-1
512 768 m 1,4,-1
 640 768 l 1,5,-1
 640 640 l 1,6,-1
 512 640 l 1,7,-1
 512 768 l 1,4,-1
384 640 m 1,8,-1
 512 640 l 1,9,-1
 512 512 l 1,10,-1
 384 512 l 1,11,-1
 384 640 l 1,8,-1
512 640 m 1,12,-1
 640 640 l 1,13,-1
 640 512 l 1,14,-1
 512 512 l 1,15,-1
 512 640 l 1,12,-1
128 512 m 1,16,-1
 256 512 l 1,17,-1
 256 384 l 1,18,-1
 128 384 l 1,19,-1
 128 512 l 1,16,-1
256 512 m 1,20,-1
 384 512 l 1,21,-1
 384 384 l 1,22,-1
 256 384 l 1,23,-1
 256 512 l 1,20,-1
384 512 m 1,24,-1
 512 512 l 1,25,-1
 512 384 l 1,26,-1
 384 384 l 1,27,-1
 384 512 l 1,24,-1
512 512 m 1,28,-1
 640 512 l 1,29,-1
 640 384 l 1,30,-1
 512 384 l 1,31,-1
 512 512 l 1,28,-1
0 384 m 1,32,-1
 128 384 l 1,33,-1
 128 256 l 1,34,-1
 0 256 l 1,35,-1
 0 384 l 1,32,-1
384 384 m 1,36,-1
 512 384 l 1,37,-1
 512 256 l 1,38,-1
 384 256 l 1,39,-1
 384 384 l 1,36,-1
512 384 m 1,40,-1
 640 384 l 1,41,-1
 640 256 l 1,42,-1
 512 256 l 1,43,-1
 512 384 l 1,40,-1
0 256 m 1,44,-1
 128 256 l 1,45,-1
 128 128 l 1,46,-1
 0 128 l 1,47,-1
 0 256 l 1,44,-1
384 256 m 1,48,-1
 512 256 l 1,49,-1
 512 128 l 1,50,-1
 384 128 l 1,51,-1
 384 256 l 1,48,-1
512 256 m 1,52,-1
 640 256 l 1,53,-1
 640 128 l 1,54,-1
 512 128 l 1,55,-1
 512 256 l 1,52,-1
128 128 m 1,56,-1
 256 128 l 1,57,-1
 256 0 l 1,58,-1
 128 0 l 1,59,-1
 128 128 l 1,56,-1
256 128 m 1,60,-1
 384 128 l 1,61,-1
 384 0 l 1,62,-1
 256 0 l 1,63,-1
 256 128 l 1,60,-1
384 128 m 1,64,-1
 512 128 l 1,65,-1
 512 0 l 1,66,-1
 384 0 l 1,67,-1
 384 128 l 1,64,-1
EndSplineSet
Validated: 5
EndChar

StartChar: e
Encoding: 101 101 71
Width: 768
GlyphClass: 1
Flags: W
LayerCount: 2
Fore
SplineSet
128 640 m 1,0,-1
 256 640 l 1,1,-1
 256 512 l 1,2,-1
 128 512 l 1,3,-1
 128 640 l 1,0,-1
256 640 m 1,4,-1
 384 640 l 1,5,-1
 384 512 l 1,6,-1
 256 512 l 1,7,-1
 256 640 l 1,4,-1
384 640 m 1,8,-1
 512 640 l 1,9,-1
 512 512 l 1,10,-1
 384 512 l 1,11,-1
 384 640 l 1,8,-1
0 512 m 1,12,-1
 128 512 l 1,13,-1
 128 384 l 1,14,-1
 0 384 l 1,15,-1
 0 512 l 1,12,-1
128 512 m 1,16,-1
 256 512 l 1,17,-1
 256 384 l 1,18,-1
 128 384 l 1,19,-1
 128 512 l 1,16,-1
512 512 m 1,20,-1
 640 512 l 1,21,-1
 640 384 l 1,22,-1
 512 384 l 1,23,-1
 512 512 l 1,20,-1
0 384 m 1,24,-1
 128 384 l 1,25,-1
 128 256 l 1,26,-1
 0 256 l 1,27,-1
 0 384 l 1,24,-1
128 384 m 1,28,-1
 256 384 l 1,29,-1
 256 256 l 1,30,-1
 128 256 l 1,31,-1
 128 384 l 1,28,-1
256 384 m 1,32,-1
 384 384 l 1,33,-1
 384 256 l 1,34,-1
 256 256 l 1,35,-1
 256 384 l 1,32,-1
384 384 m 1,36,-1
 512 384 l 1,37,-1
 512 256 l 1,38,-1
 384 256 l 1,39,-1
 384 384 l 1,36,-1
0 256 m 1,40,-1
 128 256 l 1,41,-1
 128 128 l 1,42,-1
 0 128 l 1,43,-1
 0 256 l 1,40,-1
128 256 m 1,44,-1
 256 256 l 1,45,-1
 256 128 l 1,46,-1
 128 128 l 1,47,-1
 128 256 l 1,44,-1
128 128 m 1,48,-1
 256 128 l 1,49,-1
 256 0 l 1,50,-1
 128 0 l 1,51,-1
 128 128 l 1,48,-1
256 128 m 1,52,-1
 384 128 l 1,53,-1
 384 0 l 1,54,-1
 256 0 l 1,55,-1
 256 128 l 1,52,-1
384 128 m 1,56,-1
 512 128 l 1,57,-1
 512 0 l 1,58,-1
 384 0 l 1,59,-1
 384 128 l 1,56,-1
EndSplineSet
Validated: 5
EndChar

StartChar: f
Encoding: 102 102 72
Width: 768
GlyphClass: 1
Flags: W
LayerCount: 2
Fore
SplineSet
128 768 m 1,0,-1
 256 768 l 1,1,-1
 256 640 l 1,2,-1
 128 640 l 1,3,-1
 128 768 l 1,0,-1
256 768 m 1,4,-1
 384 768 l 1,5,-1
 384 640 l 1,6,-1
 256 640 l 1,7,-1
 256 768 l 1,4,-1
384 768 m 1,8,-1
 512 768 l 1,9,-1
 512 640 l 1,10,-1
 384 640 l 1,11,-1
 384 768 l 1,8,-1
0 640 m 1,12,-1
 128 640 l 1,13,-1
 128 512 l 1,14,-1
 0 512 l 1,15,-1
 0 640 l 1,12,-1
128 640 m 1,16,-1
 256 640 l 1,17,-1
 256 512 l 1,18,-1
 128 512 l 1,19,-1
 128 640 l 1,16,-1
512 640 m 1,20,-1
 640 640 l 1,21,-1
 640 512 l 1,22,-1
 512 512 l 1,23,-1
 512 640 l 1,20,-1
0 512 m 1,24,-1
 128 512 l 1,25,-1
 128 384 l 1,26,-1
 0 384 l 1,27,-1
 0 512 l 1,24,-1
128 512 m 1,28,-1
 256 512 l 1,29,-1
 256 384 l 1,30,-1
 128 384 l 1,31,-1
 128 512 l 1,28,-1
0 384 m 1,32,-1
 128 384 l 1,33,-1
 128 256 l 1,34,-1
 0 256 l 1,35,-1
 0 384 l 1,32,-1
128 384 m 1,36,-1
 256 384 l 1,37,-1
 256 256 l 1,38,-1
 128 256 l 1,39,-1
 128 384 l 1,36,-1
256 384 m 1,40,-1
 384 384 l 1,41,-1
 384 256 l 1,42,-1
 256 256 l 1,43,-1
 256 384 l 1,40,-1
0 256 m 1,44,-1
 128 256 l 1,45,-1
 128 128 l 1,46,-1
 0 128 l 1,47,-1
 0 256 l 1,44,-1
128 256 m 1,48,-1
 256 256 l 1,49,-1
 256 128 l 1,50,-1
 128 128 l 1,51,-1
 128 256 l 1,48,-1
0 128 m 1,52,-1
 128 128 l 1,53,-1
 128 0 l 1,54,-1
 0 0 l 1,55,-1
 0 128 l 1,52,-1
128 128 m 1,56,-1
 256 128 l 1,57,-1
 256 0 l 1,58,-1
 128 0 l 1,59,-1
 128 128 l 1,56,-1
EndSplineSet
Validated: 5
EndChar

StartChar: g
Encoding: 103 103 73
Width: 768
GlyphClass: 1
Flags: W
LayerCount: 2
Fore
SplineSet
128 640 m 1,0,-1
 256 640 l 1,1,-1
 256 512 l 1,2,-1
 128 512 l 1,3,-1
 128 640 l 1,0,-1
256 640 m 1,4,-1
 384 640 l 1,5,-1
 384 512 l 1,6,-1
 256 512 l 1,7,-1
 256 640 l 1,4,-1
384 640 m 1,8,-1
 512 640 l 1,9,-1
 512 512 l 1,10,-1
 384 512 l 1,11,-1
 384 640 l 1,8,-1
0 512 m 1,12,-1
 128 512 l 1,13,-1
 128 384 l 1,14,-1
 0 384 l 1,15,-1
 0 512 l 1,12,-1
384 512 m 1,16,-1
 512 512 l 1,17,-1
 512 384 l 1,18,-1
 384 384 l 1,19,-1
 384 512 l 1,16,-1
512 512 m 1,20,-1
 640 512 l 1,21,-1
 640 384 l 1,22,-1
 512 384 l 1,23,-1
 512 512 l 1,20,-1
0 384 m 1,24,-1
 128 384 l 1,25,-1
 128 256 l 1,26,-1
 0 256 l 1,27,-1
 0 384 l 1,24,-1
384 384 m 1,28,-1
 512 384 l 1,29,-1
 512 256 l 1,30,-1
 384 256 l 1,31,-1
 384 384 l 1,28,-1
512 384 m 1,32,-1
 640 384 l 1,33,-1
 640 256 l 1,34,-1
 512 256 l 1,35,-1
 512 384 l 1,32,-1
128 256 m 1,36,-1
 256 256 l 1,37,-1
 256 128 l 1,38,-1
 128 128 l 1,39,-1
 128 256 l 1,36,-1
256 256 m 1,40,-1
 384 256 l 1,41,-1
 384 128 l 1,42,-1
 256 128 l 1,43,-1
 256 256 l 1,40,-1
384 256 m 1,44,-1
 512 256 l 1,45,-1
 512 128 l 1,46,-1
 384 128 l 1,47,-1
 384 256 l 1,44,-1
512 256 m 1,48,-1
 640 256 l 1,49,-1
 640 128 l 1,50,-1
 512 128 l 1,51,-1
 512 256 l 1,48,-1
384 128 m 1,52,-1
 512 128 l 1,53,-1
 512 0 l 1,54,-1
 384 0 l 1,55,-1
 384 128 l 1,52,-1
512 128 m 1,56,-1
 640 128 l 1,57,-1
 640 0 l 1,58,-1
 512 0 l 1,59,-1
 512 128 l 1,56,-1
128 0 m 1,60,-1
 256 0 l 1,61,-1
 256 -128 l 1,62,-1
 128 -128 l 1,63,-1
 128 0 l 1,60,-1
256 0 m 1,64,-1
 384 0 l 1,65,-1
 384 -128 l 1,66,-1
 256 -128 l 1,67,-1
 256 0 l 1,64,-1
384 0 m 1,68,-1
 512 0 l 1,69,-1
 512 -128 l 1,70,-1
 384 -128 l 1,71,-1
 384 0 l 1,68,-1
EndSplineSet
Validated: 5
EndChar

StartChar: h
Encoding: 104 104 74
Width: 768
GlyphClass: 1
Flags: W
LayerCount: 2
Fore
SplineSet
0 768 m 1,0,-1
 128 768 l 1,1,-1
 128 640 l 1,2,-1
 0 640 l 1,3,-1
 0 768 l 1,0,-1
128 768 m 1,4,-1
 256 768 l 1,5,-1
 256 640 l 1,6,-1
 128 640 l 1,7,-1
 128 768 l 1,4,-1
0 640 m 1,8,-1
 128 640 l 1,9,-1
 128 512 l 1,10,-1
 0 512 l 1,11,-1
 0 640 l 1,8,-1
128 640 m 1,12,-1
 256 640 l 1,13,-1
 256 512 l 1,14,-1
 128 512 l 1,15,-1
 128 640 l 1,12,-1
0 512 m 1,16,-1
 128 512 l 1,17,-1
 128 384 l 1,18,-1
 0 384 l 1,19,-1
 0 512 l 1,16,-1
128 512 m 1,20,-1
 256 512 l 1,21,-1
 256 384 l 1,22,-1
 128 384 l 1,23,-1
 128 512 l 1,20,-1
256 512 m 1,24,-1
 384 512 l 1,25,-1
 384 384 l 1,26,-1
 256 384 l 1,27,-1
 256 512 l 1,24,-1
384 512 m 1,28,-1
 512 512 l 1,29,-1
 512 384 l 1,30,-1
 384 384 l 1,31,-1
 384 512 l 1,28,-1
0 384 m 1,32,-1
 128 384 l 1,33,-1
 128 256 l 1,34,-1
 0 256 l 1,35,-1
 0 384 l 1,32,-1
128 384 m 1,36,-1
 256 384 l 1,37,-1
 256 256 l 1,38,-1
 128 256 l 1,39,-1
 128 384 l 1,36,-1
512 384 m 1,40,-1
 640 384 l 1,41,-1
 640 256 l 1,42,-1
 512 256 l 1,43,-1
 512 384 l 1,40,-1
0 256 m 1,44,-1
 128 256 l 1,45,-1
 128 128 l 1,46,-1
 0 128 l 1,47,-1
 0 256 l 1,44,-1
128 256 m 1,48,-1
 256 256 l 1,49,-1
 256 128 l 1,50,-1
 128 128 l 1,51,-1
 128 256 l 1,48,-1
512 256 m 1,52,-1
 640 256 l 1,53,-1
 640 128 l 1,54,-1
 512 128 l 1,55,-1
 512 256 l 1,52,-1
0 128 m 1,56,-1
 128 128 l 1,57,-1
 128 0 l 1,58,-1
 0 0 l 1,59,-1
 0 128 l 1,56,-1
128 128 m 1,60,-1
 256 128 l 1,61,-1
 256 0 l 1,62,-1
 128 0 l 1,63,-1
 128 128 l 1,60,-1
512 128 m 1,64,-1
 640 128 l 1,65,-1
 640 0 l 1,66,-1
 512 0 l 1,67,-1
 512 128 l 1,64,-1
EndSplineSet
Validated: 5
EndChar

StartChar: i
Encoding: 105 105 75
Width: 768
GlyphClass: 1
Flags: W
LayerCount: 2
Fore
SplineSet
256 768 m 1,0,-1
 384 768 l 1,1,-1
 384 640 l 1,2,-1
 256 640 l 1,3,-1
 256 768 l 1,0,-1
128 512 m 1,4,-1
 256 512 l 1,5,-1
 256 384 l 1,6,-1
 128 384 l 1,7,-1
 128 512 l 1,4,-1
256 512 m 1,8,-1
 384 512 l 1,9,-1
 384 384 l 1,10,-1
 256 384 l 1,11,-1
 256 512 l 1,8,-1
384 512 m 1,12,-1
 512 512 l 1,13,-1
 512 384 l 1,14,-1
 384 384 l 1,15,-1
 384 512 l 1,12,-1
256 384 m 1,16,-1
 384 384 l 1,17,-1
 384 256 l 1,18,-1
 256 256 l 1,19,-1
 256 384 l 1,16,-1
384 384 m 1,20,-1
 512 384 l 1,21,-1
 512 256 l 1,22,-1
 384 256 l 1,23,-1
 384 384 l 1,20,-1
256 256 m 1,24,-1
 384 256 l 1,25,-1
 384 128 l 1,26,-1
 256 128 l 1,27,-1
 256 256 l 1,24,-1
384 256 m 1,28,-1
 512 256 l 1,29,-1
 512 128 l 1,30,-1
 384 128 l 1,31,-1
 384 256 l 1,28,-1
128 128 m 1,32,-1
 256 128 l 1,33,-1
 256 0 l 1,34,-1
 128 0 l 1,35,-1
 128 128 l 1,32,-1
256 128 m 1,36,-1
 384 128 l 1,37,-1
 384 0 l 1,38,-1
 256 0 l 1,39,-1
 256 128 l 1,36,-1
384 128 m 1,40,-1
 512 128 l 1,41,-1
 512 0 l 1,42,-1
 384 0 l 1,43,-1
 384 128 l 1,40,-1
512 128 m 1,44,-1
 640 128 l 1,45,-1
 640 0 l 1,46,-1
 512 0 l 1,47,-1
 512 128 l 1,44,-1
EndSplineSet
Validated: 5
EndChar

StartChar: j
Encoding: 106 106 76
Width: 768
GlyphClass: 1
Flags: W
LayerCount: 2
Fore
SplineSet
384 768 m 1,0,-1
 512 768 l 1,1,-1
 512 640 l 1,2,-1
 384 640 l 1,3,-1
 384 768 l 1,0,-1
128 512 m 1,4,-1
 256 512 l 1,5,-1
 256 384 l 1,6,-1
 128 384 l 1,7,-1
 128 512 l 1,4,-1
256 512 m 1,8,-1
 384 512 l 1,9,-1
 384 384 l 1,10,-1
 256 384 l 1,11,-1
 256 512 l 1,8,-1
384 512 m 1,12,-1
 512 512 l 1,13,-1
 512 384 l 1,14,-1
 384 384 l 1,15,-1
 384 512 l 1,12,-1
256 384 m 1,16,-1
 384 384 l 1,17,-1
 384 256 l 1,18,-1
 256 256 l 1,19,-1
 256 384 l 1,16,-1
384 384 m 1,20,-1
 512 384 l 1,21,-1
 512 256 l 1,22,-1
 384 256 l 1,23,-1
 384 384 l 1,20,-1
256 256 m 1,24,-1
 384 256 l 1,25,-1
 384 128 l 1,26,-1
 256 128 l 1,27,-1
 256 256 l 1,24,-1
384 256 m 1,28,-1
 512 256 l 1,29,-1
 512 128 l 1,30,-1
 384 128 l 1,31,-1
 384 256 l 1,28,-1
0 128 m 1,32,-1
 128 128 l 1,33,-1
 128 0 l 1,34,-1
 0 0 l 1,35,-1
 0 128 l 1,32,-1
256 128 m 1,36,-1
 384 128 l 1,37,-1
 384 0 l 1,38,-1
 256 0 l 1,39,-1
 256 128 l 1,36,-1
384 128 m 1,40,-1
 512 128 l 1,41,-1
 512 0 l 1,42,-1
 384 0 l 1,43,-1
 384 128 l 1,40,-1
128 0 m 1,44,-1
 256 0 l 1,45,-1
 256 -128 l 1,46,-1
 128 -128 l 1,47,-1
 128 0 l 1,44,-1
256 0 m 1,48,-1
 384 0 l 1,49,-1
 384 -128 l 1,50,-1
 256 -128 l 1,51,-1
 256 0 l 1,48,-1
384 0 m 1,52,-1
 512 0 l 1,53,-1
 512 -128 l 1,54,-1
 384 -128 l 1,55,-1
 384 0 l 1,52,-1
EndSplineSet
Validated: 5
EndChar

StartChar: k
Encoding: 107 107 77
Width: 768
GlyphClass: 1
Flags: W
LayerCount: 2
Fore
SplineSet
0 768 m 1,0,-1
 128 768 l 1,1,-1
 128 640 l 1,2,-1
 0 640 l 1,3,-1
 0 768 l 1,0,-1
128 768 m 1,4,-1
 256 768 l 1,5,-1
 256 640 l 1,6,-1
 128 640 l 1,7,-1
 128 768 l 1,4,-1
0 640 m 1,8,-1
 128 640 l 1,9,-1
 128 512 l 1,10,-1
 0 512 l 1,11,-1
 0 640 l 1,8,-1
128 640 m 1,12,-1
 256 640 l 1,13,-1
 256 512 l 1,14,-1
 128 512 l 1,15,-1
 128 640 l 1,12,-1
0 512 m 1,16,-1
 128 512 l 1,17,-1
 128 384 l 1,18,-1
 0 384 l 1,19,-1
 0 512 l 1,16,-1
128 512 m 1,20,-1
 256 512 l 1,21,-1
 256 384 l 1,22,-1
 128 384 l 1,23,-1
 128 512 l 1,20,-1
384 512 m 1,24,-1
 512 512 l 1,25,-1
 512 384 l 1,26,-1
 384 384 l 1,27,-1
 384 512 l 1,24,-1
0 384 m 1,28,-1
 128 384 l 1,29,-1
 128 256 l 1,30,-1
 0 256 l 1,31,-1
 0 384 l 1,28,-1
128 384 m 1,32,-1
 256 384 l 1,33,-1
 256 256 l 1,34,-1
 128 256 l 1,35,-1
 128 384 l 1,32,-1
256 384 m 1,36,-1
 384 384 l 1,37,-1
 384 256 l 1,38,-1
 256 256 l 1,39,-1
 256 384 l 1,36,-1
0 256 m 1,40,-1
 128 256 l 1,41,-1
 128 128 l 1,42,-1
 0 128 l 1,43,-1
 0 256 l 1,40,-1
128 256 m 1,44,-1
 256 256 l 1,45,-1
 256 128 l 1,46,-1
 128 128 l 1,47,-1
 128 256 l 1,44,-1
384 256 m 1,48,-1
 512 256 l 1,49,-1
 512 128 l 1,50,-1
 384 128 l 1,51,-1
 384 256 l 1,48,-1
0 128 m 1,52,-1
 128 128 l 1,53,-1
 128 0 l 1,54,-1
 0 0 l 1,55,-1
 0 128 l 1,52,-1
128 128 m 1,56,-1
 256 128 l 1,57,-1
 256 0 l 1,58,-1
 128 0 l 1,59,-1
 128 128 l 1,56,-1
512 128 m 1,60,-1
 640 128 l 1,61,-1
 640 0 l 1,62,-1
 512 0 l 1,63,-1
 512 128 l 1,60,-1
EndSplineSet
Validated: 5
EndChar

StartChar: l
Encoding: 108 108 78
Width: 768
GlyphClass: 1
Flags: W
LayerCount: 2
Fore
SplineSet
0 768 m 1,0,-1
 128 768 l 1,1,-1
 128 640 l 1,2,-1
 0 640 l 1,3,-1
 0 768 l 1,0,-1
128 768 m 1,4,-1
 256 768 l 1,5,-1
 256 640 l 1,6,-1
 128 640 l 1,7,-1
 128 768 l 1,4,-1
256 768 m 1,8,-1
 384 768 l 1,9,-1
 384 640 l 1,10,-1
 256 640 l 1,11,-1
 256 768 l 1,8,-1
128 640 m 1,12,-1
 256 640 l 1,13,-1
 256 512 l 1,14,-1
 128 512 l 1,15,-1
 128 640 l 1,12,-1
256 640 m 1,16,-1
 384 640 l 1,17,-1
 384 512 l 1,18,-1
 256 512 l 1,19,-1
 256 640 l 1,16,-1
128 512 m 1,20,-1
 256 512 l 1,21,-1
 256 384 l 1,22,-1
 128 384 l 1,23,-1
 128 512 l 1,20,-1
256 512 m 1,24,-1
 384 512 l 1,25,-1
 384 384 l 1,26,-1
 256 384 l 1,27,-1
 256 512 l 1,24,-1
128 384 m 1,28,-1
 256 384 l 1,29,-1
 256 256 l 1,30,-1
 128 256 l 1,31,-1
 128 384 l 1,28,-1
256 384 m 1,32,-1
 384 384 l 1,33,-1
 384 256 l 1,34,-1
 256 256 l 1,35,-1
 256 384 l 1,32,-1
128 256 m 1,36,-1
 256 256 l 1,37,-1
 256 128 l 1,38,-1
 128 128 l 1,39,-1
 128 256 l 1,36,-1
256 256 m 1,40,-1
 384 256 l 1,41,-1
 384 128 l 1,42,-1
 256 128 l 1,43,-1
 256 256 l 1,40,-1
256 128 m 1,44,-1
 384 128 l 1,45,-1
 384 0 l 1,46,-1
 256 0 l 1,47,-1
 256 128 l 1,44,-1
384 128 m 1,48,-1
 512 128 l 1,49,-1
 512 0 l 1,50,-1
 384 0 l 1,51,-1
 384 128 l 1,48,-1
EndSplineSet
Validated: 5
EndChar

StartChar: m
Encoding: 109 109 79
Width: 768
GlyphClass: 1
Flags: W
LayerCount: 2
Fore
SplineSet
0 640 m 1,0,-1
 128 640 l 1,1,-1
 128 512 l 1,2,-1
 0 512 l 1,3,-1
 0 640 l 1,0,-1
128 640 m 1,4,-1
 256 640 l 1,5,-1
 256 512 l 1,6,-1
 128 512 l 1,7,-1
 128 640 l 1,4,-1
256 640 m 1,8,-1
 384 640 l 1,9,-1
 384 512 l 1,10,-1
 256 512 l 1,11,-1
 256 640 l 1,8,-1
384 640 m 1,12,-1
 512 640 l 1,13,-1
 512 512 l 1,14,-1
 384 512 l 1,15,-1
 384 640 l 1,12,-1
0 512 m 1,16,-1
 128 512 l 1,17,-1
 128 384 l 1,18,-1
 0 384 l 1,19,-1
 0 512 l 1,16,-1
128 512 m 1,20,-1
 256 512 l 1,21,-1
 256 384 l 1,22,-1
 128 384 l 1,23,-1
 128 512 l 1,20,-1
256 512 m 1,24,-1
 384 512 l 1,25,-1
 384 384 l 1,26,-1
 256 384 l 1,27,-1
 256 512 l 1,24,-1
384 512 m 1,28,-1
 512 512 l 1,29,-1
 512 384 l 1,30,-1
 384 384 l 1,31,-1
 384 512 l 1,28,-1
512 512 m 1,32,-1
 640 512 l 1,33,-1
 640 384 l 1,34,-1
 512 384 l 1,35,-1
 512 512 l 1,32,-1
0 384 m 1,36,-1
 128 384 l 1,37,-1
 128 256 l 1,38,-1
 0 256 l 1,39,-1
 0 384 l 1,36,-1
256 384 m 1,40,-1
 384 384 l 1,41,-1
 384 256 l 1,42,-1
 256 256 l 1,43,-1
 256 384 l 1,40,-1
512 384 m 1,44,-1
 640 384 l 1,45,-1
 640 256 l 1,46,-1
 512 256 l 1,47,-1
 512 384 l 1,44,-1
0 256 m 1,48,-1
 128 256 l 1,49,-1
 128 128 l 1,50,-1
 0 128 l 1,51,-1
 0 256 l 1,48,-1
256 256 m 1,52,-1
 384 256 l 1,53,-1
 384 128 l 1,54,-1
 256 128 l 1,55,-1
 256 256 l 1,52,-1
512 256 m 1,56,-1
 640 256 l 1,57,-1
 640 128 l 1,58,-1
 512 128 l 1,59,-1
 512 256 l 1,56,-1
0 128 m 1,60,-1
 128 128 l 1,61,-1
 128 0 l 1,62,-1
 0 0 l 1,63,-1
 0 128 l 1,60,-1
256 128 m 1,64,-1
 384 128 l 1,65,-1
 384 0 l 1,66,-1
 256 0 l 1,67,-1
 256 128 l 1,64,-1
512 128 m 1,68,-1
 640 128 l 1,69,-1
 640 0 l 1,70,-1
 512 0 l 1,71,-1
 512 128 l 1,68,-1
EndSplineSet
Validated: 5
EndChar

StartChar: n
Encoding: 110 110 80
Width: 768
GlyphClass: 1
Flags: W
LayerCount: 2
Fore
SplineSet
0 640 m 1,0,-1
 128 640 l 1,1,-1
 128 512 l 1,2,-1
 0 512 l 1,3,-1
 0 640 l 1,0,-1
128 640 m 1,4,-1
 256 640 l 1,5,-1
 256 512 l 1,6,-1
 128 512 l 1,7,-1
 128 640 l 1,4,-1
256 640 m 1,8,-1
 384 640 l 1,9,-1
 384 512 l 1,10,-1
 256 512 l 1,11,-1
 256 640 l 1,8,-1
384 640 m 1,12,-1
 512 640 l 1,13,-1
 512 512 l 1,14,-1
 384 512 l 1,15,-1
 384 640 l 1,12,-1
0 512 m 1,16,-1
 128 512 l 1,17,-1
 128 384 l 1,18,-1
 0 384 l 1,19,-1
 0 512 l 1,16,-1
128 512 m 1,20,-1
 256 512 l 1,21,-1
 256 384 l 1,22,-1
 128 384 l 1,23,-1
 128 512 l 1,20,-1
512 512 m 1,24,-1
 640 512 l 1,25,-1
 640 384 l 1,26,-1
 512 384 l 1,27,-1
 512 512 l 1,24,-1
0 384 m 1,28,-1
 128 384 l 1,29,-1
 128 256 l 1,30,-1
 0 256 l 1,31,-1
 0 384 l 1,28,-1
128 384 m 1,32,-1
 256 384 l 1,33,-1
 256 256 l 1,34,-1
 128 256 l 1,35,-1
 128 384 l 1,32,-1
512 384 m 1,36,-1
 640 384 l 1,37,-1
 640 256 l 1,38,-1
 512 256 l 1,39,-1
 512 384 l 1,36,-1
0 256 m 1,40,-1
 128 256 l 1,41,-1
 128 128 l 1,42,-1
 0 128 l 1,43,-1
 0 256 l 1,40,-1
128 256 m 1,44,-1
 256 256 l 1,45,-1
 256 128 l 1,46,-1
 128 128 l 1,47,-1
 128 256 l 1,44,-1
512 256 m 1,48,-1
 640 256 l 1,49,-1
 640 128 l 1,50,-1
 512 128 l 1,51,-1
 512 256 l 1,48,-1
0 128 m 1,52,-1
 128 128 l 1,53,-1
 128 0 l 1,54,-1
 0 0 l 1,55,-1
 0 128 l 1,52,-1
128 128 m 1,56,-1
 256 128 l 1,57,-1
 256 0 l 1,58,-1
 128 0 l 1,59,-1
 128 128 l 1,56,-1
512 128 m 1,60,-1
 640 128 l 1,61,-1
 640 0 l 1,62,-1
 512 0 l 1,63,-1
 512 128 l 1,60,-1
EndSplineSet
Validated: 5
EndChar

StartChar: o
Encoding: 111 111 81
Width: 768
GlyphClass: 1
Flags: W
LayerCount: 2
Fore
SplineSet
128 640 m 1,0,-1
 256 640 l 1,1,-1
 256 512 l 1,2,-1
 128 512 l 1,3,-1
 128 640 l 1,0,-1
256 640 m 1,4,-1
 384 640 l 1,5,-1
 384 512 l 1,6,-1
 256 512 l 1,7,-1
 256 640 l 1,4,-1
384 640 m 1,8,-1
 512 640 l 1,9,-1
 512 512 l 1,10,-1
 384 512 l 1,11,-1
 384 640 l 1,8,-1
0 512 m 1,12,-1
 128 512 l 1,13,-1
 128 384 l 1,14,-1
 0 384 l 1,15,-1
 0 512 l 1,12,-1
128 512 m 1,16,-1
 256 512 l 1,17,-1
 256 384 l 1,18,-1
 128 384 l 1,19,-1
 128 512 l 1,16,-1
512 512 m 1,20,-1
 640 512 l 1,21,-1
 640 384 l 1,22,-1
 512 384 l 1,23,-1
 512 512 l 1,20,-1
0 384 m 1,24,-1
 128 384 l 1,25,-1
 128 256 l 1,26,-1
 0 256 l 1,27,-1
 0 384 l 1,24,-1
128 384 m 1,28,-1
 256 384 l 1,29,-1
 256 256 l 1,30,-1
 128 256 l 1,31,-1
 128 384 l 1,28,-1
512 384 m 1,32,-1
 640 384 l 1,33,-1
 640 256 l 1,34,-1
 512 256 l 1,35,-1
 512 384 l 1,32,-1
0 256 m 1,36,-1
 128 256 l 1,37,-1
 128 128 l 1,38,-1
 0 128 l 1,39,-1
 0 256 l 1,36,-1
128 256 m 1,40,-1
 256 256 l 1,41,-1
 256 128 l 1,42,-1
 128 128 l 1,43,-1
 128 256 l 1,40,-1
512 256 m 1,44,-1
 640 256 l 1,45,-1
 640 128 l 1,46,-1
 512 128 l 1,47,-1
 512 256 l 1,44,-1
128 128 m 1,48,-1
 256 128 l 1,49,-1
 256 0 l 1,50,-1
 128 0 l 1,51,-1
 128 128 l 1,48,-1
256 128 m 1,52,-1
 384 128 l 1,53,-1
 384 0 l 1,54,-1
 256 0 l 1,55,-1
 256 128 l 1,52,-1
384 128 m 1,56,-1
 512 128 l 1,57,-1
 512 0 l 1,58,-1
 384 0 l 1,59,-1
 384 128 l 1,56,-1
EndSplineSet
Validated: 5
EndChar

StartChar: p
Encoding: 112 112 82
Width: 768
GlyphClass: 1
Flags: W
LayerCount: 2
Fore
SplineSet
0 640 m 1,0,-1
 128 640 l 1,1,-1
 128 512 l 1,2,-1
 0 512 l 1,3,-1
 0 640 l 1,0,-1
128 640 m 1,4,-1
 256 640 l 1,5,-1
 256 512 l 1,6,-1
 128 512 l 1,7,-1
 128 640 l 1,4,-1
256 640 m 1,8,-1
 384 640 l 1,9,-1
 384 512 l 1,10,-1
 256 512 l 1,11,-1
 256 640 l 1,8,-1
384 640 m 1,12,-1
 512 640 l 1,13,-1
 512 512 l 1,14,-1
 384 512 l 1,15,-1
 384 640 l 1,12,-1
0 512 m 1,16,-1
 128 512 l 1,17,-1
 128 384 l 1,18,-1
 0 384 l 1,19,-1
 0 512 l 1,16,-1
128 512 m 1,20,-1
 256 512 l 1,21,-1
 256 384 l 1,22,-1
 128 384 l 1,23,-1
 128 512 l 1,20,-1
512 512 m 1,24,-1
 640 512 l 1,25,-1
 640 384 l 1,26,-1
 512 384 l 1,27,-1
 512 512 l 1,24,-1
0 384 m 1,28,-1
 128 384 l 1,29,-1
 128 256 l 1,30,-1
 0 256 l 1,31,-1
 0 384 l 1,28,-1
128 384 m 1,32,-1
 256 384 l 1,33,-1
 256 256 l 1,34,-1
 128 256 l 1,35,-1
 128 384 l 1,32,-1
512 384 m 1,36,-1
 640 384 l 1,37,-1
 640 256 l 1,38,-1
 512 256 l 1,39,-1
 512 384 l 1,36,-1
0 256 m 1,40,-1
 128 256 l 1,41,-1
 128 128 l 1,42,-1
 0 128 l 1,43,-1
 0 256 l 1,40,-1
128 256 m 1,44,-1
 256 256 l 1,45,-1
 256 128 l 1,46,-1
 128 128 l 1,47,-1
 128 256 l 1,44,-1
256 256 m 1,48,-1
 384 256 l 1,49,-1
 384 128 l 1,50,-1
 256 128 l 1,51,-1
 256 256 l 1,48,-1
384 256 m 1,52,-1
 512 256 l 1,53,-1
 512 128 l 1,54,-1
 384 128 l 1,55,-1
 384 256 l 1,52,-1
0 128 m 1,56,-1
 128 128 l 1,57,-1
 128 0 l 1,58,-1
 0 0 l 1,59,-1
 0 128 l 1,56,-1
128 128 m 1,60,-1
 256 128 l 1,61,-1
 256 0 l 1,62,-1
 128 0 l 1,63,-1
 128 128 l 1,60,-1
0 0 m 1,64,-1
 128 0 l 1,65,-1
 128 -128 l 1,66,-1
 0 -128 l 1,67,-1
 0 0 l 1,64,-1
128 0 m 1,68,-1
 256 0 l 1,69,-1
 256 -128 l 1,70,-1
 128 -128 l 1,71,-1
 128 0 l 1,68,-1
EndSplineSet
Validated: 5
EndChar

StartChar: q
Encoding: 113 113 83
Width: 768
GlyphClass: 1
Flags: W
LayerCount: 2
Fore
SplineSet
128 640 m 1,0,-1
 256 640 l 1,1,-1
 256 512 l 1,2,-1
 128 512 l 1,3,-1
 128 640 l 1,0,-1
256 640 m 1,4,-1
 384 640 l 1,5,-1
 384 512 l 1,6,-1
 256 512 l 1,7,-1
 256 640 l 1,4,-1
384 640 m 1,8,-1
 512 640 l 1,9,-1
 512 512 l 1,10,-1
 384 512 l 1,11,-1
 384 640 l 1,8,-1
0 512 m 1,12,-1
 128 512 l 1,13,-1
 128 384 l 1,14,-1
 0 384 l 1,15,-1
 0 512 l 1,12,-1
384 512 m 1,16,-1
 512 512 l 1,17,-1
 512 384 l 1,18,-1
 384 384 l 1,19,-1
 384 512 l 1,16,-1
512 512 m 1,20,-1
 640 512 l 1,21,-1
 640 384 l 1,22,-1
 512 384 l 1,23,-1
 512 512 l 1,20,-1
0 384 m 1,24,-1
 128 384 l 1,25,-1
 128 256 l 1,26,-1
 0 256 l 1,27,-1
 0 384 l 1,24,-1
384 384 m 1,28,-1
 512 384 l 1,29,-1
 512 256 l 1,30,-1
 384 256 l 1,31,-1
 384 384 l 1,28,-1
512 384 m 1,32,-1
 640 384 l 1,33,-1
 640 256 l 1,34,-1
 512 256 l 1,35,-1
 512 384 l 1,32,-1
128 256 m 1,36,-1
 256 256 l 1,37,-1
 256 128 l 1,38,-1
 128 128 l 1,39,-1
 128 256 l 1,36,-1
256 256 m 1,40,-1
 384 256 l 1,41,-1
 384 128 l 1,42,-1
 256 128 l 1,43,-1
 256 256 l 1,40,-1
384 256 m 1,44,-1
 512 256 l 1,45,-1
 512 128 l 1,46,-1
 384 128 l 1,47,-1
 384 256 l 1,44,-1
512 256 m 1,48,-1
 640 256 l 1,49,-1
 640 128 l 1,50,-1
 512 128 l 1,51,-1
 512 256 l 1,48,-1
384 128 m 1,52,-1
 512 128 l 1,53,-1
 512 0 l 1,54,-1
 384 0 l 1,55,-1
 384 128 l 1,52,-1
512 128 m 1,56,-1
 640 128 l 1,57,-1
 640 0 l 1,58,-1
 512 0 l 1,59,-1
 512 128 l 1,56,-1
384 0 m 1,60,-1
 512 0 l 1,61,-1
 512 -128 l 1,62,-1
 384 -128 l 1,63,-1
 384 0 l 1,60,-1
512 0 m 1,64,-1
 640 0 l 1,65,-1
 640 -128 l 1,66,-1
 512 -128 l 1,67,-1
 512 0 l 1,64,-1
EndSplineSet
Validated: 5
EndChar

StartChar: r
Encoding: 114 114 84
Width: 768
GlyphClass: 1
Flags: W
LayerCount: 2
Fore
SplineSet
128 640 m 1,0,-1
 256 640 l 1,1,-1
 256 512 l 1,2,-1
 128 512 l 1,3,-1
 128 640 l 1,0,-1
256 640 m 1,4,-1
 384 640 l 1,5,-1
 384 512 l 1,6,-1
 256 512 l 1,7,-1
 256 640 l 1,4,-1
384 640 m 1,8,-1
 512 640 l 1,9,-1
 512 512 l 1,10,-1
 384 512 l 1,11,-1
 384 640 l 1,8,-1
0 512 m 1,12,-1
 128 512 l 1,13,-1
 128 384 l 1,14,-1
 0 384 l 1,15,-1
 0 512 l 1,12,-1
128 512 m 1,16,-1
 256 512 l 1,17,-1
 256 384 l 1,18,-1
 128 384 l 1,19,-1
 128 512 l 1,16,-1
512 512 m 1,20,-1
 640 512 l 1,21,-1
 640 384 l 1,22,-1
 512 384 l 1,23,-1
 512 512 l 1,20,-1
0 384 m 1,24,-1
 128 384 l 1,25,-1
 128 256 l 1,26,-1
 0 256 l 1,27,-1
 0 384 l 1,24,-1
128 384 m 1,28,-1
 256 384 l 1,29,-1
 256 256 l 1,30,-1
 128 256 l 1,31,-1
 128 384 l 1,28,-1
0 256 m 1,32,-1
 128 256 l 1,33,-1
 128 128 l 1,34,-1
 0 128 l 1,35,-1
 0 256 l 1,32,-1
128 256 m 1,36,-1
 256 256 l 1,37,-1
 256 128 l 1,38,-1
 128 128 l 1,39,-1
 128 256 l 1,36,-1
0 128 m 1,40,-1
 128 128 l 1,41,-1
 128 0 l 1,42,-1
 0 0 l 1,43,-1
 0 128 l 1,40,-1
128 128 m 1,44,-1
 256 128 l 1,45,-1
 256 0 l 1,46,-1
 128 0 l 1,47,-1
 128 128 l 1,44,-1
EndSplineSet
Validated: 5
EndChar

StartChar: s
Encoding: 115 115 85
Width: 768
GlyphClass: 1
Flags: W
LayerCount: 2
Fore
SplineSet
128 640 m 1,0,-1
 256 640 l 1,1,-1
 256 512 l 1,2,-1
 128 512 l 1,3,-1
 128 640 l 1,0,-1
256 640 m 1,4,-1
 384 640 l 1,5,-1
 384 512 l 1,6,-1
 256 512 l 1,7,-1
 256 640 l 1,4,-1
384 640 m 1,8,-1
 512 640 l 1,9,-1
 512 512 l 1,10,-1
 384 512 l 1,11,-1
 384 640 l 1,8,-1
0 512 m 1,12,-1
 128 512 l 1,13,-1
 128 384 l 1,14,-1
 0 384 l 1,15,-1
 0 512 l 1,12,-1
128 512 m 1,16,-1
 256 512 l 1,17,-1
 256 384 l 1,18,-1
 128 384 l 1,19,-1
 128 512 l 1,16,-1
256 512 m 1,20,-1
 384 512 l 1,21,-1
 384 384 l 1,22,-1
 256 384 l 1,23,-1
 256 512 l 1,20,-1
128 384 m 1,24,-1
 256 384 l 1,25,-1
 256 256 l 1,26,-1
 128 256 l 1,27,-1
 128 384 l 1,24,-1
256 384 m 1,28,-1
 384 384 l 1,29,-1
 384 256 l 1,30,-1
 256 256 l 1,31,-1
 256 384 l 1,28,-1
384 384 m 1,32,-1
 512 384 l 1,33,-1
 512 256 l 1,34,-1
 384 256 l 1,35,-1
 384 384 l 1,32,-1
0 256 m 1,36,-1
 128 256 l 1,37,-1
 128 128 l 1,38,-1
 0 128 l 1,39,-1
 0 256 l 1,36,-1
384 256 m 1,40,-1
 512 256 l 1,41,-1
 512 128 l 1,42,-1
 384 128 l 1,43,-1
 384 256 l 1,40,-1
512 256 m 1,44,-1
 640 256 l 1,45,-1
 640 128 l 1,46,-1
 512 128 l 1,47,-1
 512 256 l 1,44,-1
128 128 m 1,48,-1
 256 128 l 1,49,-1
 256 0 l 1,50,-1
 128 0 l 1,51,-1
 128 128 l 1,48,-1
256 128 m 1,52,-1
 384 128 l 1,53,-1
 384 0 l 1,54,-1
 256 0 l 1,55,-1
 256 128 l 1,52,-1
384 128 m 1,56,-1
 512 128 l 1,57,-1
 512 0 l 1,58,-1
 384 0 l 1,59,-1
 384 128 l 1,56,-1
EndSplineSet
Validated: 5
EndChar

StartChar: t
Encoding: 116 116 86
Width: 768
GlyphClass: 1
Flags: W
LayerCount: 2
Fore
SplineSet
128 768 m 1,0,-1
 256 768 l 1,1,-1
 256 640 l 1,2,-1
 128 640 l 1,3,-1
 128 768 l 1,0,-1
256 768 m 1,4,-1
 384 768 l 1,5,-1
 384 640 l 1,6,-1
 256 640 l 1,7,-1
 256 768 l 1,4,-1
128 640 m 1,8,-1
 256 640 l 1,9,-1
 256 512 l 1,10,-1
 128 512 l 1,11,-1
 128 640 l 1,8,-1
256 640 m 1,12,-1
 384 640 l 1,13,-1
 384 512 l 1,14,-1
 256 512 l 1,15,-1
 256 640 l 1,12,-1
0 512 m 1,16,-1
 128 512 l 1,17,-1
 128 384 l 1,18,-1
 0 384 l 1,19,-1
 0 512 l 1,16,-1
128 512 m 1,20,-1
 256 512 l 1,21,-1
 256 384 l 1,22,-1
 128 384 l 1,23,-1
 128 512 l 1,20,-1
256 512 m 1,24,-1
 384 512 l 1,25,-1
 384 384 l 1,26,-1
 256 384 l 1,27,-1
 256 512 l 1,24,-1
384 512 m 1,28,-1
 512 512 l 1,29,-1
 512 384 l 1,30,-1
 384 384 l 1,31,-1
 384 512 l 1,28,-1
128 384 m 1,32,-1
 256 384 l 1,33,-1
 256 256 l 1,34,-1
 128 256 l 1,35,-1
 128 384 l 1,32,-1
256 384 m 1,36,-1
 384 384 l 1,37,-1
 384 256 l 1,38,-1
 256 256 l 1,39,-1
 256 384 l 1,36,-1
128 256 m 1,40,-1
 256 256 l 1,41,-1
 256 128 l 1,42,-1
 128 128 l 1,43,-1
 128 256 l 1,40,-1
256 256 m 1,44,-1
 384 256 l 1,45,-1
 384 128 l 1,46,-1
 256 128 l 1,47,-1
 256 256 l 1,44,-1
512 256 m 1,48,-1
 640 256 l 1,49,-1
 640 128 l 1,50,-1
 512 128 l 1,51,-1
 512 256 l 1,48,-1
256 128 m 1,52,-1
 384 128 l 1,53,-1
 384 0 l 1,54,-1
 256 0 l 1,55,-1
 256 128 l 1,52,-1
384 128 m 1,56,-1
 512 128 l 1,57,-1
 512 0 l 1,58,-1
 384 0 l 1,59,-1
 384 128 l 1,56,-1
EndSplineSet
Validated: 5
EndChar

StartChar: u
Encoding: 117 117 87
Width: 768
GlyphClass: 1
Flags: W
LayerCount: 2
Fore
SplineSet
0 640 m 1,0,-1
 128 640 l 1,1,-1
 128 512 l 1,2,-1
 0 512 l 1,3,-1
 0 640 l 1,0,-1
128 640 m 1,4,-1
 256 640 l 1,5,-1
 256 512 l 1,6,-1
 128 512 l 1,7,-1
 128 640 l 1,4,-1
512 640 m 1,8,-1
 640 640 l 1,9,-1
 640 512 l 1,10,-1
 512 512 l 1,11,-1
 512 640 l 1,8,-1
0 512 m 1,12,-1
 128 512 l 1,13,-1
 128 384 l 1,14,-1
 0 384 l 1,15,-1
 0 512 l 1,12,-1
128 512 m 1,16,-1
 256 512 l 1,17,-1
 256 384 l 1,18,-1
 128 384 l 1,19,-1
 128 512 l 1,16,-1
512 512 m 1,20,-1
 640 512 l 1,21,-1
 640 384 l 1,22,-1
 512 384 l 1,23,-1
 512 512 l 1,20,-1
0 384 m 1,24,-1
 128 384 l 1,25,-1
 128 256 l 1,26,-1
 0 256 l 1,27,-1
 0 384 l 1,24,-1
128 384 m 1,28,-1
 256 384 l 1,29,-1
 256 256 l 1,30,-1
 128 256 l 1,31,-1
 128 384 l 1,28,-1
512 384 m 1,32,-1
 640 384 l 1,33,-1
 640 256 l 1,34,-1
 512 256 l 1,35,-1
 512 384 l 1,32,-1
0 256 m 1,36,-1
 128 256 l 1,37,-1
 128 128 l 1,38,-1
 0 128 l 1,39,-1
 0 256 l 1,36,-1
128 256 m 1,40,-1
 256 256 l 1,41,-1
 256 128 l 1,42,-1
 128 128 l 1,43,-1
 128 256 l 1,40,-1
512 256 m 1,44,-1
 640 256 l 1,45,-1
 640 128 l 1,46,-1
 512 128 l 1,47,-1
 512 256 l 1,44,-1
128 128 m 1,48,-1
 256 128 l 1,49,-1
 256 0 l 1,50,-1
 128 0 l 1,51,-1
 128 128 l 1,48,-1
256 128 m 1,52,-1
 384 128 l 1,53,-1
 384 0 l 1,54,-1
 256 0 l 1,55,-1
 256 128 l 1,52,-1
384 128 m 1,56,-1
 512 128 l 1,57,-1
 512 0 l 1,58,-1
 384 0 l 1,59,-1
 384 128 l 1,56,-1
512 128 m 1,60,-1
 640 128 l 1,61,-1
 640 0 l 1,62,-1
 512 0 l 1,63,-1
 512 128 l 1,60,-1
EndSplineSet
Validated: 5
EndChar

StartChar: v
Encoding: 118 118 88
Width: 768
GlyphClass: 1
Flags: W
LayerCount: 2
Fore
SplineSet
0 640 m 1,0,-1
 128 640 l 1,1,-1
 128 512 l 1,2,-1
 0 512 l 1,3,-1
 0 640 l 1,0,-1
128 640 m 1,4,-1
 256 640 l 1,5,-1
 256 512 l 1,6,-1
 128 512 l 1,7,-1
 128 640 l 1,4,-1
512 640 m 1,8,-1
 640 640 l 1,9,-1
 640 512 l 1,10,-1
 512 512 l 1,11,-1
 512 640 l 1,8,-1
0 512 m 1,12,-1
 128 512 l 1,13,-1
 128 384 l 1,14,-1
 0 384 l 1,15,-1
 0 512 l 1,12,-1
128 512 m 1,16,-1
 256 512 l 1,17,-1
 256 384 l 1,18,-1
 128 384 l 1,19,-1
 128 512 l 1,16,-1
512 512 m 1,20,-1
 640 512 l 1,21,-1
 640 384 l 1,22,-1
 512 384 l 1,23,-1
 512 512 l 1,20,-1
0 384 m 1,24,-1
 128 384 l 1,25,-1
 128 256 l 1,26,-1
 0 256 l 1,27,-1
 0 384 l 1,24,-1
128 384 m 1,28,-1
 256 384 l 1,29,-1
 256 256 l 1,30,-1
 128 256 l 1,31,-1
 128 384 l 1,28,-1
512 384 m 1,32,-1
 640 384 l 1,33,-1
 640 256 l 1,34,-1
 512 256 l 1,35,-1
 512 384 l 1,32,-1
128 256 m 1,36,-1
 256 256 l 1,37,-1
 256 128 l 1,38,-1
 128 128 l 1,39,-1
 128 256 l 1,36,-1
256 256 m 1,40,-1
 384 256 l 1,41,-1
 384 128 l 1,42,-1
 256 128 l 1,43,-1
 256 256 l 1,40,-1
384 256 m 1,44,-1
 512 256 l 1,45,-1
 512 128 l 1,46,-1
 384 128 l 1,47,-1
 384 256 l 1,44,-1
256 128 m 1,48,-1
 384 128 l 1,49,-1
 384 0 l 1,50,-1
 256 0 l 1,51,-1
 256 128 l 1,48,-1
EndSplineSet
Validated: 5
EndChar

StartChar: w
Encoding: 119 119 89
Width: 768
GlyphClass: 1
Flags: W
LayerCount: 2
Fore
SplineSet
0 640 m 1,0,-1
 128 640 l 1,1,-1
 128 512 l 1,2,-1
 0 512 l 1,3,-1
 0 640 l 1,0,-1
128 640 m 1,4,-1
 256 640 l 1,5,-1
 256 512 l 1,6,-1
 128 512 l 1,7,-1
 128 640 l 1,4,-1
512 640 m 1,8,-1
 640 640 l 1,9,-1
 640 512 l 1,10,-1
 512 512 l 1,11,-1
 512 640 l 1,8,-1
0 512 m 1,12,-1
 128 512 l 1,13,-1
 128 384 l 1,14,-1
 0 384 l 1,15,-1
 0 512 l 1,12,-1
128 512 m 1,16,-1
 256 512 l 1,17,-1
 256 384 l 1,18,-1
 128 384 l 1,19,-1
 128 512 l 1,16,-1
512 512 m 1,20,-1
 640 512 l 1,21,-1
 640 384 l 1,22,-1
 512 384 l 1,23,-1
 512 512 l 1,20,-1
0 384 m 1,24,-1
 128 384 l 1,25,-1
 128 256 l 1,26,-1
 0 256 l 1,27,-1
 0 384 l 1,24,-1
512 384 m 1,28,-1
 640 384 l 1,29,-1
 640 256 l 1,30,-1
 512 256 l 1,31,-1
 512 384 l 1,28,-1
0 256 m 1,32,-1
 128 256 l 1,33,-1
 128 128 l 1,34,-1
 0 128 l 1,35,-1
 0 256 l 1,32,-1
256 256 m 1,36,-1
 384 256 l 1,37,-1
 384 128 l 1,38,-1
 256 128 l 1,39,-1
 256 256 l 1,36,-1
512 256 m 1,40,-1
 640 256 l 1,41,-1
 640 128 l 1,42,-1
 512 128 l 1,43,-1
 512 256 l 1,40,-1
0 128 m 1,44,-1
 128 128 l 1,45,-1
 128 0 l 1,46,-1
 0 0 l 1,47,-1
 0 128 l 1,44,-1
128 128 m 1,48,-1
 256 128 l 1,49,-1
 256 0 l 1,50,-1
 128 0 l 1,51,-1
 128 128 l 1,48,-1
384 128 m 1,52,-1
 512 128 l 1,53,-1
 512 0 l 1,54,-1
 384 0 l 1,55,-1
 384 128 l 1,52,-1
EndSplineSet
Validated: 5
EndChar

StartChar: x
Encoding: 120 120 90
Width: 768
GlyphClass: 1
Flags: W
LayerCount: 2
Fore
SplineSet
0 640 m 1,0,-1
 128 640 l 1,1,-1
 128 512 l 1,2,-1
 0 512 l 1,3,-1
 0 640 l 1,0,-1
128 640 m 1,4,-1
 256 640 l 1,5,-1
 256 512 l 1,6,-1
 128 512 l 1,7,-1
 128 640 l 1,4,-1
512 640 m 1,8,-1
 640 640 l 1,9,-1
 640 512 l 1,10,-1
 512 512 l 1,11,-1
 512 640 l 1,8,-1
0 512 m 1,12,-1
 128 512 l 1,13,-1
 128 384 l 1,14,-1
 0 384 l 1,15,-1
 0 512 l 1,12,-1
128 512 m 1,16,-1
 256 512 l 1,17,-1
 256 384 l 1,18,-1
 128 384 l 1,19,-1
 128 512 l 1,16,-1
512 512 m 1,20,-1
 640 512 l 1,21,-1
 640 384 l 1,22,-1
 512 384 l 1,23,-1
 512 512 l 1,20,-1
128 384 m 1,24,-1
 256 384 l 1,25,-1
 256 256 l 1,26,-1
 128 256 l 1,27,-1
 128 384 l 1,24,-1
256 384 m 1,28,-1
 384 384 l 1,29,-1
 384 256 l 1,30,-1
 256 256 l 1,31,-1
 256 384 l 1,28,-1
384 384 m 1,32,-1
 512 384 l 1,33,-1
 512 256 l 1,34,-1
 384 256 l 1,35,-1
 384 384 l 1,32,-1
0 256 m 1,36,-1
 128 256 l 1,37,-1
 128 128 l 1,38,-1
 0 128 l 1,39,-1
 0 256 l 1,36,-1
128 256 m 1,40,-1
 256 256 l 1,41,-1
 256 128 l 1,42,-1
 128 128 l 1,43,-1
 128 256 l 1,40,-1
512 256 m 1,44,-1
 640 256 l 1,45,-1
 640 128 l 1,46,-1
 512 128 l 1,47,-1
 512 256 l 1,44,-1
0 128 m 1,48,-1
 128 128 l 1,49,-1
 128 0 l 1,50,-1
 0 0 l 1,51,-1
 0 128 l 1,48,-1
128 128 m 1,52,-1
 256 128 l 1,53,-1
 256 0 l 1,54,-1
 128 0 l 1,55,-1
 128 128 l 1,52,-1
512 128 m 1,56,-1
 640 128 l 1,57,-1
 640 0 l 1,58,-1
 512 0 l 1,59,-1
 512 128 l 1,56,-1
EndSplineSet
Validated: 5
EndChar

StartChar: y
Encoding: 121 121 91
Width: 768
GlyphClass: 1
Flags: W
LayerCount: 2
Fore
SplineSet
0 640 m 1,0,-1
 128 640 l 1,1,-1
 128 512 l 1,2,-1
 0 512 l 1,3,-1
 0 640 l 1,0,-1
384 640 m 1,4,-1
 512 640 l 1,5,-1
 512 512 l 1,6,-1
 384 512 l 1,7,-1
 384 640 l 1,4,-1
512 640 m 1,8,-1
 640 640 l 1,9,-1
 640 512 l 1,10,-1
 512 512 l 1,11,-1
 512 640 l 1,8,-1
0 512 m 1,12,-1
 128 512 l 1,13,-1
 128 384 l 1,14,-1
 0 384 l 1,15,-1
 0 512 l 1,12,-1
384 512 m 1,16,-1
 512 512 l 1,17,-1
 512 384 l 1,18,-1
 384 384 l 1,19,-1
 384 512 l 1,16,-1
512 512 m 1,20,-1
 640 512 l 1,21,-1
 640 384 l 1,22,-1
 512 384 l 1,23,-1
 512 512 l 1,20,-1
0 384 m 1,24,-1
 128 384 l 1,25,-1
 128 256 l 1,26,-1
 0 256 l 1,27,-1
 0 384 l 1,24,-1
384 384 m 1,28,-1
 512 384 l 1,29,-1
 512 256 l 1,30,-1
 384 256 l 1,31,-1
 384 384 l 1,28,-1
512 384 m 1,32,-1
 640 384 l 1,33,-1
 640 256 l 1,34,-1
 512 256 l 1,35,-1
 512 384 l 1,32,-1
128 256 m 1,36,-1
 256 256 l 1,37,-1
 256 128 l 1,38,-1
 128 128 l 1,39,-1
 128 256 l 1,36,-1
256 256 m 1,40,-1
 384 256 l 1,41,-1
 384 128 l 1,42,-1
 256 128 l 1,43,-1
 256 256 l 1,40,-1
384 256 m 1,44,-1
 512 256 l 1,45,-1
 512 128 l 1,46,-1
 384 128 l 1,47,-1
 384 256 l 1,44,-1
512 256 m 1,48,-1
 640 256 l 1,49,-1
 640 128 l 1,50,-1
 512 128 l 1,51,-1
 512 256 l 1,48,-1
384 128 m 1,52,-1
 512 128 l 1,53,-1
 512 0 l 1,54,-1
 384 0 l 1,55,-1
 384 128 l 1,52,-1
512 128 m 1,56,-1
 640 128 l 1,57,-1
 640 0 l 1,58,-1
 512 0 l 1,59,-1
 512 128 l 1,56,-1
128 0 m 1,60,-1
 256 0 l 1,61,-1
 256 -128 l 1,62,-1
 128 -128 l 1,63,-1
 128 0 l 1,60,-1
256 0 m 1,64,-1
 384 0 l 1,65,-1
 384 -128 l 1,66,-1
 256 -128 l 1,67,-1
 256 0 l 1,64,-1
384 0 m 1,68,-1
 512 0 l 1,69,-1
 512 -128 l 1,70,-1
 384 -128 l 1,71,-1
 384 0 l 1,68,-1
EndSplineSet
Validated: 5
EndChar

StartChar: z
Encoding: 122 122 92
Width: 768
GlyphClass: 1
Flags: W
LayerCount: 2
Fore
SplineSet
0 640 m 1,0,-1
 128 640 l 1,1,-1
 128 512 l 1,2,-1
 0 512 l 1,3,-1
 0 640 l 1,0,-1
128 640 m 1,4,-1
 256 640 l 1,5,-1
 256 512 l 1,6,-1
 128 512 l 1,7,-1
 128 640 l 1,4,-1
256 640 m 1,8,-1
 384 640 l 1,9,-1
 384 512 l 1,10,-1
 256 512 l 1,11,-1
 256 640 l 1,8,-1
384 640 m 1,12,-1
 512 640 l 1,13,-1
 512 512 l 1,14,-1
 384 512 l 1,15,-1
 384 640 l 1,12,-1
512 640 m 1,16,-1
 640 640 l 1,17,-1
 640 512 l 1,18,-1
 512 512 l 1,19,-1
 512 640 l 1,16,-1
384 512 m 1,20,-1
 512 512 l 1,21,-1
 512 384 l 1,22,-1
 384 384 l 1,23,-1
 384 512 l 1,20,-1
512 512 m 1,24,-1
 640 512 l 1,25,-1
 640 384 l 1,26,-1
 512 384 l 1,27,-1
 512 512 l 1,24,-1
128 384 m 1,28,-1
 256 384 l 1,29,-1
 256 256 l 1,30,-1
 128 256 l 1,31,-1
 128 384 l 1,28,-1
256 384 m 1,32,-1
 384 384 l 1,33,-1
 384 256 l 1,34,-1
 256 256 l 1,35,-1
 256 384 l 1,32,-1
384 384 m 1,36,-1
 512 384 l 1,37,-1
 512 256 l 1,38,-1
 384 256 l 1,39,-1
 384 384 l 1,36,-1
0 256 m 1,40,-1
 128 256 l 1,41,-1
 128 128 l 1,42,-1
 0 128 l 1,43,-1
 0 256 l 1,40,-1
128 256 m 1,44,-1
 256 256 l 1,45,-1
 256 128 l 1,46,-1
 128 128 l 1,47,-1
 128 256 l 1,44,-1
0 128 m 1,48,-1
 128 128 l 1,49,-1
 128 0 l 1,50,-1
 0 0 l 1,51,-1
 0 128 l 1,48,-1
128 128 m 1,52,-1
 256 128 l 1,53,-1
 256 0 l 1,54,-1
 128 0 l 1,55,-1
 128 128 l 1,52,-1
256 128 m 1,56,-1
 384 128 l 1,57,-1
 384 0 l 1,58,-1
 256 0 l 1,59,-1
 256 128 l 1,56,-1
384 128 m 1,60,-1
 512 128 l 1,61,-1
 512 0 l 1,62,-1
 384 0 l 1,63,-1
 384 128 l 1,60,-1
512 128 m 1,64,-1
 640 128 l 1,65,-1
 640 0 l 1,66,-1
 512 0 l 1,67,-1
 512 128 l 1,64,-1
EndSplineSet
Validated: 5
EndChar

StartChar: braceleft
Encoding: 123 123 93
Width: 768
GlyphClass: 1
Flags: W
LayerCount: 2
Fore
SplineSet
256 896 m 1,0,-1
 384 896 l 1,1,-1
 384 768 l 1,2,-1
 256 768 l 1,3,-1
 256 896 l 1,0,-1
384 896 m 1,4,-1
 512 896 l 1,5,-1
 512 768 l 1,6,-1
 384 768 l 1,7,-1
 384 896 l 1,4,-1
128 768 m 1,8,-1
 256 768 l 1,9,-1
 256 640 l 1,10,-1
 128 640 l 1,11,-1
 128 768 l 1,8,-1
256 768 m 1,12,-1
 384 768 l 1,13,-1
 384 640 l 1,14,-1
 256 640 l 1,15,-1
 256 768 l 1,12,-1
128 640 m 1,16,-1
 256 640 l 1,17,-1
 256 512 l 1,18,-1
 128 512 l 1,19,-1
 128 640 l 1,16,-1
256 640 m 1,20,-1
 384 640 l 1,21,-1
 384 512 l 1,22,-1
 256 512 l 1,23,-1
 256 640 l 1,20,-1
0 512 m 1,24,-1
 128 512 l 1,25,-1
 128 384 l 1,26,-1
 0 384 l 1,27,-1
 0 512 l 1,24,-1
128 512 m 1,28,-1
 256 512 l 1,29,-1
 256 384 l 1,30,-1
 128 384 l 1,31,-1
 128 512 l 1,28,-1
128 384 m 1,32,-1
 256 384 l 1,33,-1
 256 256 l 1,34,-1
 128 256 l 1,35,-1
 128 384 l 1,32,-1
256 384 m 1,36,-1
 384 384 l 1,37,-1
 384 256 l 1,38,-1
 256 256 l 1,39,-1
 256 384 l 1,36,-1
128 256 m 1,40,-1
 256 256 l 1,41,-1
 256 128 l 1,42,-1
 128 128 l 1,43,-1
 128 256 l 1,40,-1
256 256 m 1,44,-1
 384 256 l 1,45,-1
 384 128 l 1,46,-1
 256 128 l 1,47,-1
 256 256 l 1,44,-1
256 128 m 1,48,-1
 384 128 l 1,49,-1
 384 0 l 1,50,-1
 256 0 l 1,51,-1
 256 128 l 1,48,-1
384 128 m 1,52,-1
 512 128 l 1,53,-1
 512 0 l 1,54,-1
 384 0 l 1,55,-1
 384 128 l 1,52,-1
EndSplineSet
Validated: 5
EndChar

StartChar: bar
Encoding: 124 124 94
Width: 768
GlyphClass: 1
Flags: W
LayerCount: 2
Fore
SplineSet
256 768 m 1,0,-1
 384 768 l 1,1,-1
 384 640 l 1,2,-1
 256 640 l 1,3,-1
 256 768 l 1,0,-1
384 768 m 1,4,-1
 512 768 l 1,5,-1
 512 640 l 1,6,-1
 384 640 l 1,7,-1
 384 768 l 1,4,-1
256 640 m 1,8,-1
 384 640 l 1,9,-1
 384 512 l 1,10,-1
 256 512 l 1,11,-1
 256 640 l 1,8,-1
384 640 m 1,12,-1
 512 640 l 1,13,-1
 512 512 l 1,14,-1
 384 512 l 1,15,-1
 384 640 l 1,12,-1
256 512 m 1,16,-1
 384 512 l 1,17,-1
 384 384 l 1,18,-1
 256 384 l 1,19,-1
 256 512 l 1,16,-1
384 512 m 1,20,-1
 512 512 l 1,21,-1
 512 384 l 1,22,-1
 384 384 l 1,23,-1
 384 512 l 1,20,-1
256 384 m 1,24,-1
 384 384 l 1,25,-1
 384 256 l 1,26,-1
 256 256 l 1,27,-1
 256 384 l 1,24,-1
384 384 m 1,28,-1
 512 384 l 1,29,-1
 512 256 l 1,30,-1
 384 256 l 1,31,-1
 384 384 l 1,28,-1
256 256 m 1,32,-1
 384 256 l 1,33,-1
 384 128 l 1,34,-1
 256 128 l 1,35,-1
 256 256 l 1,32,-1
384 256 m 1,36,-1
 512 256 l 1,37,-1
 512 128 l 1,38,-1
 384 128 l 1,39,-1
 384 256 l 1,36,-1
256 128 m 1,40,-1
 384 128 l 1,41,-1
 384 0 l 1,42,-1
 256 0 l 1,43,-1
 256 128 l 1,40,-1
384 128 m 1,44,-1
 512 128 l 1,45,-1
 512 0 l 1,46,-1
 384 0 l 1,47,-1
 384 128 l 1,44,-1
EndSplineSet
Validated: 5
EndChar

StartChar: braceright
Encoding: 125 125 95
Width: 768
GlyphClass: 1
Flags: W
LayerCount: 2
Fore
SplineSet
128 896 m 1,0,-1
 256 896 l 1,1,-1
 256 768 l 1,2,-1
 128 768 l 1,3,-1
 128 896 l 1,0,-1
256 896 m 1,4,-1
 384 896 l 1,5,-1
 384 768 l 1,6,-1
 256 768 l 1,7,-1
 256 896 l 1,4,-1
256 768 m 1,8,-1
 384 768 l 1,9,-1
 384 640 l 1,10,-1
 256 640 l 1,11,-1
 256 768 l 1,8,-1
384 768 m 1,12,-1
 512 768 l 1,13,-1
 512 640 l 1,14,-1
 384 640 l 1,15,-1
 384 768 l 1,12,-1
256 640 m 1,16,-1
 384 640 l 1,17,-1
 384 512 l 1,18,-1
 256 512 l 1,19,-1
 256 640 l 1,16,-1
384 640 m 1,20,-1
 512 640 l 1,21,-1
 512 512 l 1,22,-1
 384 512 l 1,23,-1
 384 640 l 1,20,-1
384 512 m 1,24,-1
 512 512 l 1,25,-1
 512 384 l 1,26,-1
 384 384 l 1,27,-1
 384 512 l 1,24,-1
512 512 m 1,28,-1
 640 512 l 1,29,-1
 640 384 l 1,30,-1
 512 384 l 1,31,-1
 512 512 l 1,28,-1
256 384 m 1,32,-1
 384 384 l 1,33,-1
 384 256 l 1,34,-1
 256 256 l 1,35,-1
 256 384 l 1,32,-1
384 384 m 1,36,-1
 512 384 l 1,37,-1
 512 256 l 1,38,-1
 384 256 l 1,39,-1
 384 384 l 1,36,-1
256 256 m 1,40,-1
 384 256 l 1,41,-1
 384 128 l 1,42,-1
 256 128 l 1,43,-1
 256 256 l 1,40,-1
384 256 m 1,44,-1
 512 256 l 1,45,-1
 512 128 l 1,46,-1
 384 128 l 1,47,-1
 384 256 l 1,44,-1
128 128 m 1,48,-1
 256 128 l 1,49,-1
 256 0 l 1,50,-1
 128 0 l 1,51,-1
 128 128 l 1,48,-1
256 128 m 1,52,-1
 384 128 l 1,53,-1
 384 0 l 1,54,-1
 256 0 l 1,55,-1
 256 128 l 1,52,-1
EndSplineSet
Validated: 5
EndChar

StartChar: asciitilde
Encoding: 126 126 96
Width: 768
GlyphClass: 1
Flags: W
LayerCount: 2
Fore
SplineSet
128 512 m 1,0,-1
 256 512 l 1,1,-1
 256 384 l 1,2,-1
 128 384 l 1,3,-1
 128 512 l 1,0,-1
256 512 m 1,4,-1
 384 512 l 1,5,-1
 384 384 l 1,6,-1
 256 384 l 1,7,-1
 256 512 l 1,4,-1
512 512 m 1,8,-1
 640 512 l 1,9,-1
 640 384 l 1,10,-1
 512 384 l 1,11,-1
 512 512 l 1,8,-1
0 384 m 1,12,-1
 128 384 l 1,13,-1
 128 256 l 1,14,-1
 0 256 l 1,15,-1
 0 384 l 1,12,-1
256 384 m 1,16,-1
 384 384 l 1,17,-1
 384 256 l 1,18,-1
 256 256 l 1,19,-1
 256 384 l 1,16,-1
384 384 m 1,20,-1
 512 384 l 1,21,-1
 512 256 l 1,22,-1
 384 256 l 1,23,-1
 384 384 l 1,20,-1
EndSplineSet
Validated: 5
EndChar

StartChar: exclamdown
Encoding: 161 161 97
Width: 768
GlyphClass: 1
Flags: W
LayerCount: 2
Fore
SplineSet
256 768 m 1,0,-1
 384 768 l 1,1,-1
 384 640 l 1,2,-1
 256 640 l 1,3,-1
 256 768 l 1,0,-1
384 768 m 1,4,-1
 512 768 l 1,5,-1
 512 640 l 1,6,-1
 384 640 l 1,7,-1
 384 768 l 1,4,-1
256 512 m 1,8,-1
 384 512 l 1,9,-1
 384 384 l 1,10,-1
 256 384 l 1,11,-1
 256 512 l 1,8,-1
384 512 m 1,12,-1
 512 512 l 1,13,-1
 512 384 l 1,14,-1
 384 384 l 1,15,-1
 384 512 l 1,12,-1
256 384 m 1,16,-1
 384 384 l 1,17,-1
 384 256 l 1,18,-1
 256 256 l 1,19,-1
 256 384 l 1,16,-1
384 384 m 1,20,-1
 512 384 l 1,21,-1
 512 256 l 1,22,-1
 384 256 l 1,23,-1
 384 384 l 1,20,-1
256 256 m 1,24,-1
 384 256 l 1,25,-1
 384 128 l 1,26,-1
 256 128 l 1,27,-1
 256 256 l 1,24,-1
384 256 m 1,28,-1
 512 256 l 1,29,-1
 512 128 l 1,30,-1
 384 128 l 1,31,-1
 384 256 l 1,28,-1
256 128 m 1,32,-1
 384 128 l 1,33,-1
 384 0 l 1,34,-1
 256 0 l 1,35,-1
 256 128 l 1,32,-1
384 128 m 1,36,-1
 512 128 l 1,37,-1
 512 0 l 1,38,-1
 384 0 l 1,39,-1
 384 128 l 1,36,-1
EndSplineSet
Validated: 5
EndChar

StartChar: cent
Encoding: 162 162 98
Width: 768
GlyphClass: 1
Flags: W
LayerCount: 2
Fore
SplineSet
256 768 m 1,0,-1
 384 768 l 1,1,-1
 384 640 l 1,2,-1
 256 640 l 1,3,-1
 256 768 l 1,0,-1
128 640 m 1,4,-1
 256 640 l 1,5,-1
 256 512 l 1,6,-1
 128 512 l 1,7,-1
 128 640 l 1,4,-1
256 640 m 1,8,-1
 384 640 l 1,9,-1
 384 512 l 1,10,-1
 256 512 l 1,11,-1
 256 640 l 1,8,-1
384 640 m 1,12,-1
 512 640 l 1,13,-1
 512 512 l 1,14,-1
 384 512 l 1,15,-1
 384 640 l 1,12,-1
512 640 m 1,16,-1
 640 640 l 1,17,-1
 640 512 l 1,18,-1
 512 512 l 1,19,-1
 512 640 l 1,16,-1
0 512 m 1,20,-1
 128 512 l 1,21,-1
 128 384 l 1,22,-1
 0 384 l 1,23,-1
 0 512 l 1,20,-1
256 512 m 1,24,-1
 384 512 l 1,25,-1
 384 384 l 1,26,-1
 256 384 l 1,27,-1
 256 512 l 1,24,-1
0 384 m 1,28,-1
 128 384 l 1,29,-1
 128 256 l 1,30,-1
 0 256 l 1,31,-1
 0 384 l 1,28,-1
256 384 m 1,32,-1
 384 384 l 1,33,-1
 384 256 l 1,34,-1
 256 256 l 1,35,-1
 256 384 l 1,32,-1
0 256 m 1,36,-1
 128 256 l 1,37,-1
 128 128 l 1,38,-1
 0 128 l 1,39,-1
 0 256 l 1,36,-1
256 256 m 1,40,-1
 384 256 l 1,41,-1
 384 128 l 1,42,-1
 256 128 l 1,43,-1
 256 256 l 1,40,-1
128 128 m 1,44,-1
 256 128 l 1,45,-1
 256 0 l 1,46,-1
 128 0 l 1,47,-1
 128 128 l 1,44,-1
256 128 m 1,48,-1
 384 128 l 1,49,-1
 384 0 l 1,50,-1
 256 0 l 1,51,-1
 256 128 l 1,48,-1
384 128 m 1,52,-1
 512 128 l 1,53,-1
 512 0 l 1,54,-1
 384 0 l 1,55,-1
 384 128 l 1,52,-1
512 128 m 1,56,-1
 640 128 l 1,57,-1
 640 0 l 1,58,-1
 512 0 l 1,59,-1
 512 128 l 1,56,-1
EndSplineSet
Validated: 5
EndChar

StartChar: sterling
Encoding: 163 163 99
Width: 768
GlyphClass: 1
Flags: W
LayerCount: 2
Fore
SplineSet
256 768 m 1,0,-1
 384 768 l 1,1,-1
 384 640 l 1,2,-1
 256 640 l 1,3,-1
 256 768 l 1,0,-1
384 768 m 1,4,-1
 512 768 l 1,5,-1
 512 640 l 1,6,-1
 384 640 l 1,7,-1
 384 768 l 1,4,-1
128 640 m 1,8,-1
 256 640 l 1,9,-1
 256 512 l 1,10,-1
 128 512 l 1,11,-1
 128 640 l 1,8,-1
256 640 m 1,12,-1
 384 640 l 1,13,-1
 384 512 l 1,14,-1
 256 512 l 1,15,-1
 256 640 l 1,12,-1
512 640 m 1,16,-1
 640 640 l 1,17,-1
 640 512 l 1,18,-1
 512 512 l 1,19,-1
 512 640 l 1,16,-1
128 512 m 1,20,-1
 256 512 l 1,21,-1
 256 384 l 1,22,-1
 128 384 l 1,23,-1
 128 512 l 1,20,-1
256 512 m 1,24,-1
 384 512 l 1,25,-1
 384 384 l 1,26,-1
 256 384 l 1,27,-1
 256 512 l 1,24,-1
0 384 m 1,28,-1
 128 384 l 1,29,-1
 128 256 l 1,30,-1
 0 256 l 1,31,-1
 0 384 l 1,28,-1
128 384 m 1,32,-1
 256 384 l 1,33,-1
 256 256 l 1,34,-1
 128 256 l 1,35,-1
 128 384 l 1,32,-1
256 384 m 1,36,-1
 384 384 l 1,37,-1
 384 256 l 1,38,-1
 256 256 l 1,39,-1
 256 384 l 1,36,-1
384 384 m 1,40,-1
 512 384 l 1,41,-1
 512 256 l 1,42,-1
 384 256 l 1,43,-1
 384 384 l 1,40,-1
128 256 m 1,44,-1
 256 256 l 1,45,-1
 256 128 l 1,46,-1
 128 128 l 1,47,-1
 128 256 l 1,44,-1
256 256 m 1,48,-1
 384 256 l 1,49,-1
 384 128 l 1,50,-1
 256 128 l 1,51,-1
 256 256 l 1,48,-1
0 128 m 1,52,-1
 128 128 l 1,53,-1
 128 0 l 1,54,-1
 0 0 l 1,55,-1
 0 128 l 1,52,-1
128 128 m 1,56,-1
 256 128 l 1,57,-1
 256 0 l 1,58,-1
 128 0 l 1,59,-1
 128 128 l 1,56,-1
256 128 m 1,60,-1
 384 128 l 1,61,-1
 384 0 l 1,62,-1
 256 0 l 1,63,-1
 256 128 l 1,60,-1
384 128 m 1,64,-1
 512 128 l 1,65,-1
 512 0 l 1,66,-1
 384 0 l 1,67,-1
 384 128 l 1,64,-1
512 128 m 1,68,-1
 640 128 l 1,69,-1
 640 0 l 1,70,-1
 512 0 l 1,71,-1
 512 128 l 1,68,-1
EndSplineSet
Validated: 5
EndChar

StartChar: currency
Encoding: 164 164 100
Width: 768
GlyphClass: 1
Flags: W
LayerCount: 2
Fore
SplineSet
0 768 m 1,0,-1
 128 768 l 1,1,-1
 128 640 l 1,2,-1
 0 640 l 1,3,-1
 0 768 l 1,0,-1
512 768 m 1,4,-1
 640 768 l 1,5,-1
 640 640 l 1,6,-1
 512 640 l 1,7,-1
 512 768 l 1,4,-1
128 640 m 1,8,-1
 256 640 l 1,9,-1
 256 512 l 1,10,-1
 128 512 l 1,11,-1
 128 640 l 1,8,-1
256 640 m 1,12,-1
 384 640 l 1,13,-1
 384 512 l 1,14,-1
 256 512 l 1,15,-1
 256 640 l 1,12,-1
384 640 m 1,16,-1
 512 640 l 1,17,-1
 512 512 l 1,18,-1
 384 512 l 1,19,-1
 384 640 l 1,16,-1
128 512 m 1,20,-1
 256 512 l 1,21,-1
 256 384 l 1,22,-1
 128 384 l 1,23,-1
 128 512 l 1,20,-1
384 512 m 1,24,-1
 512 512 l 1,25,-1
 512 384 l 1,26,-1
 384 384 l 1,27,-1
 384 512 l 1,24,-1
128 384 m 1,28,-1
 256 384 l 1,29,-1
 256 256 l 1,30,-1
 128 256 l 1,31,-1
 128 384 l 1,28,-1
256 384 m 1,32,-1
 384 384 l 1,33,-1
 384 256 l 1,34,-1
 256 256 l 1,35,-1
 256 384 l 1,32,-1
384 384 m 1,36,-1
 512 384 l 1,37,-1
 512 256 l 1,38,-1
 384 256 l 1,39,-1
 384 384 l 1,36,-1
0 256 m 1,40,-1
 128 256 l 1,41,-1
 128 128 l 1,42,-1
 0 128 l 1,43,-1
 0 256 l 1,40,-1
512 256 m 1,44,-1
 640 256 l 1,45,-1
 640 128 l 1,46,-1
 512 128 l 1,47,-1
 512 256 l 1,44,-1
EndSplineSet
Validated: 5
EndChar

StartChar: yen
Encoding: 165 165 101
Width: 768
GlyphClass: 1
Flags: W
LayerCount: 2
Fore
SplineSet
0 768 m 1,0,-1
 128 768 l 1,1,-1
 128 640 l 1,2,-1
 0 640 l 1,3,-1
 0 768 l 1,0,-1
512 768 m 1,4,-1
 640 768 l 1,5,-1
 640 640 l 1,6,-1
 512 640 l 1,7,-1
 512 768 l 1,4,-1
128 640 m 1,8,-1
 256 640 l 1,9,-1
 256 512 l 1,10,-1
 128 512 l 1,11,-1
 128 640 l 1,8,-1
384 640 m 1,12,-1
 512 640 l 1,13,-1
 512 512 l 1,14,-1
 384 512 l 1,15,-1
 384 640 l 1,12,-1
256 512 m 1,16,-1
 384 512 l 1,17,-1
 384 384 l 1,18,-1
 256 384 l 1,19,-1
 256 512 l 1,16,-1
128 384 m 1,20,-1
 256 384 l 1,21,-1
 256 256 l 1,22,-1
 128 256 l 1,23,-1
 128 384 l 1,20,-1
256 384 m 1,24,-1
 384 384 l 1,25,-1
 384 256 l 1,26,-1
 256 256 l 1,27,-1
 256 384 l 1,24,-1
384 384 m 1,28,-1
 512 384 l 1,29,-1
 512 256 l 1,30,-1
 384 256 l 1,31,-1
 384 384 l 1,28,-1
128 256 m 1,32,-1
 256 256 l 1,33,-1
 256 128 l 1,34,-1
 128 128 l 1,35,-1
 128 256 l 1,32,-1
256 256 m 1,36,-1
 384 256 l 1,37,-1
 384 128 l 1,38,-1
 256 128 l 1,39,-1
 256 256 l 1,36,-1
384 256 m 1,40,-1
 512 256 l 1,41,-1
 512 128 l 1,42,-1
 384 128 l 1,43,-1
 384 256 l 1,40,-1
256 128 m 1,44,-1
 384 128 l 1,45,-1
 384 0 l 1,46,-1
 256 0 l 1,47,-1
 256 128 l 1,44,-1
EndSplineSet
Validated: 5
EndChar

StartChar: section
Encoding: 167 167 102
Width: 768
GlyphClass: 1
Flags: W
LayerCount: 2
Fore
SplineSet
128 896 m 1,0,-1
 256 896 l 1,1,-1
 256 768 l 1,2,-1
 128 768 l 1,3,-1
 128 896 l 1,0,-1
256 896 m 1,4,-1
 384 896 l 1,5,-1
 384 768 l 1,6,-1
 256 768 l 1,7,-1
 256 896 l 1,4,-1
384 896 m 1,8,-1
 512 896 l 1,9,-1
 512 768 l 1,10,-1
 384 768 l 1,11,-1
 384 896 l 1,8,-1
512 896 m 1,12,-1
 640 896 l 1,13,-1
 640 768 l 1,14,-1
 512 768 l 1,15,-1
 512 896 l 1,12,-1
0 768 m 1,16,-1
 128 768 l 1,17,-1
 128 640 l 1,18,-1
 0 640 l 1,19,-1
 0 768 l 1,16,-1
128 640 m 1,20,-1
 256 640 l 1,21,-1
 256 512 l 1,22,-1
 128 512 l 1,23,-1
 128 640 l 1,20,-1
256 640 m 1,24,-1
 384 640 l 1,25,-1
 384 512 l 1,26,-1
 256 512 l 1,27,-1
 256 640 l 1,24,-1
384 640 m 1,28,-1
 512 640 l 1,29,-1
 512 512 l 1,30,-1
 384 512 l 1,31,-1
 384 640 l 1,28,-1
0 512 m 1,32,-1
 128 512 l 1,33,-1
 128 384 l 1,34,-1
 0 384 l 1,35,-1
 0 512 l 1,32,-1
512 512 m 1,36,-1
 640 512 l 1,37,-1
 640 384 l 1,38,-1
 512 384 l 1,39,-1
 512 512 l 1,36,-1
128 384 m 1,40,-1
 256 384 l 1,41,-1
 256 256 l 1,42,-1
 128 256 l 1,43,-1
 128 384 l 1,40,-1
256 384 m 1,44,-1
 384 384 l 1,45,-1
 384 256 l 1,46,-1
 256 256 l 1,47,-1
 256 384 l 1,44,-1
384 384 m 1,48,-1
 512 384 l 1,49,-1
 512 256 l 1,50,-1
 384 256 l 1,51,-1
 384 384 l 1,48,-1
512 256 m 1,52,-1
 640 256 l 1,53,-1
 640 128 l 1,54,-1
 512 128 l 1,55,-1
 512 256 l 1,52,-1
0 128 m 1,56,-1
 128 128 l 1,57,-1
 128 0 l 1,58,-1
 0 0 l 1,59,-1
 0 128 l 1,56,-1
128 128 m 1,60,-1
 256 128 l 1,61,-1
 256 0 l 1,62,-1
 128 0 l 1,63,-1
 128 128 l 1,60,-1
256 128 m 1,64,-1
 384 128 l 1,65,-1
 384 0 l 1,66,-1
 256 0 l 1,67,-1
 256 128 l 1,64,-1
384 128 m 1,68,-1
 512 128 l 1,69,-1
 512 0 l 1,70,-1
 384 0 l 1,71,-1
 384 128 l 1,68,-1
128 0 m 1,72,-1
 256 0 l 1,73,-1
 256 -128 l 1,74,-1
 128 -128 l 1,75,-1
 128 0 l 1,72,-1
256 0 m 1,76,-1
 384 0 l 1,77,-1
 384 -128 l 1,78,-1
 256 -128 l 1,79,-1
 256 0 l 1,76,-1
EndSplineSet
Validated: 5
EndChar

StartChar: copyright
Encoding: 169 169 103
Width: 768
GlyphClass: 1
Flags: W
LayerCount: 2
Fore
SplineSet
128 768 m 1,0,-1
 256 768 l 1,1,-1
 256 640 l 1,2,-1
 128 640 l 1,3,-1
 128 768 l 1,0,-1
256 768 m 1,4,-1
 384 768 l 1,5,-1
 384 640 l 1,6,-1
 256 640 l 1,7,-1
 256 768 l 1,4,-1
384 768 m 1,8,-1
 512 768 l 1,9,-1
 512 640 l 1,10,-1
 384 640 l 1,11,-1
 384 768 l 1,8,-1
0 640 m 1,12,-1
 128 640 l 1,13,-1
 128 512 l 1,14,-1
 0 512 l 1,15,-1
 0 640 l 1,12,-1
512 640 m 1,16,-1
 640 640 l 1,17,-1
 640 512 l 1,18,-1
 512 512 l 1,19,-1
 512 640 l 1,16,-1
0 512 m 1,20,-1
 128 512 l 1,21,-1
 128 384 l 1,22,-1
 0 384 l 1,23,-1
 0 512 l 1,20,-1
128 512 m 1,24,-1
 256 512 l 1,25,-1
 256 384 l 1,26,-1
 128 384 l 1,27,-1
 128 512 l 1,24,-1
256 512 m 1,28,-1
 384 512 l 1,29,-1
 384 384 l 1,30,-1
 256 384 l 1,31,-1
 256 512 l 1,28,-1
512 512 m 1,32,-1
 640 512 l 1,33,-1
 640 384 l 1,34,-1
 512 384 l 1,35,-1
 512 512 l 1,32,-1
0 384 m 1,36,-1
 128 384 l 1,37,-1
 128 256 l 1,38,-1
 0 256 l 1,39,-1
 0 384 l 1,36,-1
128 384 m 1,40,-1
 256 384 l 1,41,-1
 256 256 l 1,42,-1
 128 256 l 1,43,-1
 128 384 l 1,40,-1
512 384 m 1,44,-1
 640 384 l 1,45,-1
 640 256 l 1,46,-1
 512 256 l 1,47,-1
 512 384 l 1,44,-1
0 256 m 1,48,-1
 128 256 l 1,49,-1
 128 128 l 1,50,-1
 0 128 l 1,51,-1
 0 256 l 1,48,-1
128 256 m 1,52,-1
 256 256 l 1,53,-1
 256 128 l 1,54,-1
 128 128 l 1,55,-1
 128 256 l 1,52,-1
256 256 m 1,56,-1
 384 256 l 1,57,-1
 384 128 l 1,58,-1
 256 128 l 1,59,-1
 256 256 l 1,56,-1
512 256 m 1,60,-1
 640 256 l 1,61,-1
 640 128 l 1,62,-1
 512 128 l 1,63,-1
 512 256 l 1,60,-1
0 128 m 1,64,-1
 128 128 l 1,65,-1
 128 0 l 1,66,-1
 0 0 l 1,67,-1
 0 128 l 1,64,-1
512 128 m 1,68,-1
 640 128 l 1,69,-1
 640 0 l 1,70,-1
 512 0 l 1,71,-1
 512 128 l 1,68,-1
128 0 m 1,72,-1
 256 0 l 1,73,-1
 256 -128 l 1,74,-1
 128 -128 l 1,75,-1
 128 0 l 1,72,-1
256 0 m 1,76,-1
 384 0 l 1,77,-1
 384 -128 l 1,78,-1
 256 -128 l 1,79,-1
 256 0 l 1,76,-1
384 0 m 1,80,-1
 512 0 l 1,81,-1
 512 -128 l 1,82,-1
 384 -128 l 1,83,-1
 384 0 l 1,80,-1
EndSplineSet
Validated: 5
EndChar

StartChar: ordfeminine
Encoding: 170 170 104
Width: 768
GlyphClass: 1
Flags: W
LayerCount: 2
Fore
SplineSet
256 896 m 1,0,-1
 384 896 l 1,1,-1
 384 768 l 1,2,-1
 256 768 l 1,3,-1
 256 896 l 1,0,-1
384 896 m 1,4,-1
 512 896 l 1,5,-1
 512 768 l 1,6,-1
 384 768 l 1,7,-1
 384 896 l 1,4,-1
128 768 m 1,8,-1
 256 768 l 1,9,-1
 256 640 l 1,10,-1
 128 640 l 1,11,-1
 128 768 l 1,8,-1
384 768 m 1,12,-1
 512 768 l 1,13,-1
 512 640 l 1,14,-1
 384 640 l 1,15,-1
 384 768 l 1,12,-1
128 640 m 1,16,-1
 256 640 l 1,17,-1
 256 512 l 1,18,-1
 128 512 l 1,19,-1
 128 640 l 1,16,-1
256 640 m 1,20,-1
 384 640 l 1,21,-1
 384 512 l 1,22,-1
 256 512 l 1,23,-1
 256 640 l 1,20,-1
384 640 m 1,24,-1
 512 640 l 1,25,-1
 512 512 l 1,26,-1
 384 512 l 1,27,-1
 384 640 l 1,24,-1
512 640 m 1,28,-1
 640 640 l 1,29,-1
 640 512 l 1,30,-1
 512 512 l 1,31,-1
 512 640 l 1,28,-1
EndSplineSet
Validated: 5
EndChar

StartChar: guillemotleft
Encoding: 171 171 105
Width: 768
GlyphClass: 1
Flags: W
LayerCount: 2
Fore
SplineSet
128 512 m 1,0,-1
 256 512 l 1,1,-1
 256 384 l 1,2,-1
 128 384 l 1,3,-1
 128 512 l 1,0,-1
512 512 m 1,4,-1
 640 512 l 1,5,-1
 640 384 l 1,6,-1
 512 384 l 1,7,-1
 512 512 l 1,4,-1
0 384 m 1,8,-1
 128 384 l 1,9,-1
 128 256 l 1,10,-1
 0 256 l 1,11,-1
 0 384 l 1,8,-1
384 384 m 1,12,-1
 512 384 l 1,13,-1
 512 256 l 1,14,-1
 384 256 l 1,15,-1
 384 384 l 1,12,-1
128 256 m 1,16,-1
 256 256 l 1,17,-1
 256 128 l 1,18,-1
 128 128 l 1,19,-1
 128 256 l 1,16,-1
512 256 m 1,20,-1
 640 256 l 1,21,-1
 640 128 l 1,22,-1
 512 128 l 1,23,-1
 512 256 l 1,20,-1
EndSplineSet
Validated: 5
EndChar

StartChar: registered
Encoding: 174 174 106
Width: 768
GlyphClass: 1
Flags: W
LayerCount: 2
Fore
SplineSet
128 896 m 1,0,-1
 256 896 l 1,1,-1
 256 768 l 1,2,-1
 128 768 l 1,3,-1
 128 896 l 1,0,-1
256 896 m 1,4,-1
 384 896 l 1,5,-1
 384 768 l 1,6,-1
 256 768 l 1,7,-1
 256 896 l 1,4,-1
384 896 m 1,8,-1
 512 896 l 1,9,-1
 512 768 l 1,10,-1
 384 768 l 1,11,-1
 384 896 l 1,8,-1
128 768 m 1,12,-1
 256 768 l 1,13,-1
 256 640 l 1,14,-1
 128 640 l 1,15,-1
 128 768 l 1,12,-1
384 768 m 1,16,-1
 512 768 l 1,17,-1
 512 640 l 1,18,-1
 384 640 l 1,19,-1
 384 768 l 1,16,-1
128 640 m 1,20,-1
 256 640 l 1,21,-1
 256 512 l 1,22,-1
 128 512 l 1,23,-1
 128 640 l 1,20,-1
256 640 m 1,24,-1
 384 640 l 1,25,-1
 384 512 l 1,26,-1
 256 512 l 1,27,-1
 256 640 l 1,24,-1
128 512 m 1,28,-1
 256 512 l 1,29,-1
 256 384 l 1,30,-1
 128 384 l 1,31,-1
 128 512 l 1,28,-1
384 512 m 1,32,-1
 512 512 l 1,33,-1
 512 384 l 1,34,-1
 384 384 l 1,35,-1
 384 512 l 1,32,-1
EndSplineSet
Validated: 5
EndChar

StartChar: degree
Encoding: 176 176 107
Width: 768
GlyphClass: 1
Flags: W
LayerCount: 2
Fore
SplineSet
256 896 m 1,0,-1
 384 896 l 1,1,-1
 384 768 l 1,2,-1
 256 768 l 1,3,-1
 256 896 l 1,0,-1
128 768 m 1,4,-1
 256 768 l 1,5,-1
 256 640 l 1,6,-1
 128 640 l 1,7,-1
 128 768 l 1,4,-1
384 768 m 1,8,-1
 512 768 l 1,9,-1
 512 640 l 1,10,-1
 384 640 l 1,11,-1
 384 768 l 1,8,-1
256 640 m 1,12,-1
 384 640 l 1,13,-1
 384 512 l 1,14,-1
 256 512 l 1,15,-1
 256 640 l 1,12,-1
EndSplineSet
Validated: 5
EndChar

StartChar: plusminus
Encoding: 177 177 108
Width: 768
GlyphClass: 1
Flags: W
LayerCount: 2
Fore
SplineSet
256 640 m 1,0,-1
 384 640 l 1,1,-1
 384 512 l 1,2,-1
 256 512 l 1,3,-1
 256 640 l 1,0,-1
256 512 m 1,4,-1
 384 512 l 1,5,-1
 384 384 l 1,6,-1
 256 384 l 1,7,-1
 256 512 l 1,4,-1
0 384 m 1,8,-1
 128 384 l 1,9,-1
 128 256 l 1,10,-1
 0 256 l 1,11,-1
 0 384 l 1,8,-1
128 384 m 1,12,-1
 256 384 l 1,13,-1
 256 256 l 1,14,-1
 128 256 l 1,15,-1
 128 384 l 1,12,-1
256 384 m 1,16,-1
 384 384 l 1,17,-1
 384 256 l 1,18,-1
 256 256 l 1,19,-1
 256 384 l 1,16,-1
384 384 m 1,20,-1
 512 384 l 1,21,-1
 512 256 l 1,22,-1
 384 256 l 1,23,-1
 384 384 l 1,20,-1
512 384 m 1,24,-1
 640 384 l 1,25,-1
 640 256 l 1,26,-1
 512 256 l 1,27,-1
 512 384 l 1,24,-1
256 256 m 1,28,-1
 384 256 l 1,29,-1
 384 128 l 1,30,-1
 256 128 l 1,31,-1
 256 256 l 1,28,-1
0 128 m 1,32,-1
 128 128 l 1,33,-1
 128 0 l 1,34,-1
 0 0 l 1,35,-1
 0 128 l 1,32,-1
128 128 m 1,36,-1
 256 128 l 1,37,-1
 256 0 l 1,38,-1
 128 0 l 1,39,-1
 128 128 l 1,36,-1
256 128 m 1,40,-1
 384 128 l 1,41,-1
 384 0 l 1,42,-1
 256 0 l 1,43,-1
 256 128 l 1,40,-1
384 128 m 1,44,-1
 512 128 l 1,45,-1
 512 0 l 1,46,-1
 384 0 l 1,47,-1
 384 128 l 1,44,-1
512 128 m 1,48,-1
 640 128 l 1,49,-1
 640 0 l 1,50,-1
 512 0 l 1,51,-1
 512 128 l 1,48,-1
EndSplineSet
Validated: 5
EndChar

StartChar: uni00B2
Encoding: 178 178 109
Width: 768
GlyphClass: 1
Flags: W
LayerCount: 2
Fore
SplineSet
128 896 m 1,0,-1
 256 896 l 1,1,-1
 256 768 l 1,2,-1
 128 768 l 1,3,-1
 128 896 l 1,0,-1
256 896 m 1,4,-1
 384 896 l 1,5,-1
 384 768 l 1,6,-1
 256 768 l 1,7,-1
 256 896 l 1,4,-1
384 768 m 1,8,-1
 512 768 l 1,9,-1
 512 640 l 1,10,-1
 384 640 l 1,11,-1
 384 768 l 1,8,-1
128 640 m 1,12,-1
 256 640 l 1,13,-1
 256 512 l 1,14,-1
 128 512 l 1,15,-1
 128 640 l 1,12,-1
256 640 m 1,16,-1
 384 640 l 1,17,-1
 384 512 l 1,18,-1
 256 512 l 1,19,-1
 256 640 l 1,16,-1
128 512 m 1,20,-1
 256 512 l 1,21,-1
 256 384 l 1,22,-1
 128 384 l 1,23,-1
 128 512 l 1,20,-1
256 512 m 1,24,-1
 384 512 l 1,25,-1
 384 384 l 1,26,-1
 256 384 l 1,27,-1
 256 512 l 1,24,-1
384 512 m 1,28,-1
 512 512 l 1,29,-1
 512 384 l 1,30,-1
 384 384 l 1,31,-1
 384 512 l 1,28,-1
EndSplineSet
Validated: 5
EndChar

StartChar: uni00B3
Encoding: 179 179 110
Width: 768
GlyphClass: 1
Flags: W
LayerCount: 2
Fore
SplineSet
128 896 m 1,0,-1
 256 896 l 1,1,-1
 256 768 l 1,2,-1
 128 768 l 1,3,-1
 128 896 l 1,0,-1
256 896 m 1,4,-1
 384 896 l 1,5,-1
 384 768 l 1,6,-1
 256 768 l 1,7,-1
 256 896 l 1,4,-1
384 768 m 1,8,-1
 512 768 l 1,9,-1
 512 640 l 1,10,-1
 384 640 l 1,11,-1
 384 768 l 1,8,-1
256 640 m 1,12,-1
 384 640 l 1,13,-1
 384 512 l 1,14,-1
 256 512 l 1,15,-1
 256 640 l 1,12,-1
384 640 m 1,16,-1
 512 640 l 1,17,-1
 512 512 l 1,18,-1
 384 512 l 1,19,-1
 384 640 l 1,16,-1
128 512 m 1,20,-1
 256 512 l 1,21,-1
 256 384 l 1,22,-1
 128 384 l 1,23,-1
 128 512 l 1,20,-1
256 512 m 1,24,-1
 384 512 l 1,25,-1
 384 384 l 1,26,-1
 256 384 l 1,27,-1
 256 512 l 1,24,-1
384 512 m 1,28,-1
 512 512 l 1,29,-1
 512 384 l 1,30,-1
 384 384 l 1,31,-1
 384 512 l 1,28,-1
EndSplineSet
Validated: 5
EndChar

StartChar: uni00B9
Encoding: 185 185 111
Width: 768
GlyphClass: 1
Flags: W
LayerCount: 2
Fore
SplineSet
256 896 m 1,0,-1
 384 896 l 1,1,-1
 384 768 l 1,2,-1
 256 768 l 1,3,-1
 256 896 l 1,0,-1
128 768 m 1,4,-1
 256 768 l 1,5,-1
 256 640 l 1,6,-1
 128 640 l 1,7,-1
 128 768 l 1,4,-1
256 768 m 1,8,-1
 384 768 l 1,9,-1
 384 640 l 1,10,-1
 256 640 l 1,11,-1
 256 768 l 1,8,-1
256 640 m 1,12,-1
 384 640 l 1,13,-1
 384 512 l 1,14,-1
 256 512 l 1,15,-1
 256 640 l 1,12,-1
128 512 m 1,16,-1
 256 512 l 1,17,-1
 256 384 l 1,18,-1
 128 384 l 1,19,-1
 128 512 l 1,16,-1
256 512 m 1,20,-1
 384 512 l 1,21,-1
 384 384 l 1,22,-1
 256 384 l 1,23,-1
 256 512 l 1,20,-1
384 512 m 1,24,-1
 512 512 l 1,25,-1
 512 384 l 1,26,-1
 384 384 l 1,27,-1
 384 512 l 1,24,-1
EndSplineSet
Validated: 5
EndChar

StartChar: ordmasculine
Encoding: 186 186 112
Width: 768
GlyphClass: 1
Flags: W
LayerCount: 2
Fore
SplineSet
256 896 m 1,0,-1
 384 896 l 1,1,-1
 384 768 l 1,2,-1
 256 768 l 1,3,-1
 256 896 l 1,0,-1
128 768 m 1,4,-1
 256 768 l 1,5,-1
 256 640 l 1,6,-1
 128 640 l 1,7,-1
 128 768 l 1,4,-1
384 768 m 1,8,-1
 512 768 l 1,9,-1
 512 640 l 1,10,-1
 384 640 l 1,11,-1
 384 768 l 1,8,-1
256 640 m 1,12,-1
 384 640 l 1,13,-1
 384 512 l 1,14,-1
 256 512 l 1,15,-1
 256 640 l 1,12,-1
EndSplineSet
Validated: 5
EndChar

StartChar: guillemotright
Encoding: 187 187 113
Width: 768
GlyphClass: 1
Flags: W
LayerCount: 2
Fore
SplineSet
0 512 m 1,0,-1
 128 512 l 1,1,-1
 128 384 l 1,2,-1
 0 384 l 1,3,-1
 0 512 l 1,0,-1
384 512 m 1,4,-1
 512 512 l 1,5,-1
 512 384 l 1,6,-1
 384 384 l 1,7,-1
 384 512 l 1,4,-1
128 384 m 1,8,-1
 256 384 l 1,9,-1
 256 256 l 1,10,-1
 128 256 l 1,11,-1
 128 384 l 1,8,-1
512 384 m 1,12,-1
 640 384 l 1,13,-1
 640 256 l 1,14,-1
 512 256 l 1,15,-1
 512 384 l 1,12,-1
0 256 m 1,16,-1
 128 256 l 1,17,-1
 128 128 l 1,18,-1
 0 128 l 1,19,-1
 0 256 l 1,16,-1
384 256 m 1,20,-1
 512 256 l 1,21,-1
 512 128 l 1,22,-1
 384 128 l 1,23,-1
 384 256 l 1,20,-1
EndSplineSet
Validated: 5
EndChar

StartChar: questiondown
Encoding: 191 191 114
Width: 768
GlyphClass: 1
Flags: W
LayerCount: 2
Fore
SplineSet
128 768 m 1,0,-1
 256 768 l 1,1,-1
 256 640 l 1,2,-1
 128 640 l 1,3,-1
 128 768 l 1,0,-1
256 768 m 1,4,-1
 384 768 l 1,5,-1
 384 640 l 1,6,-1
 256 640 l 1,7,-1
 256 768 l 1,4,-1
128 512 m 1,8,-1
 256 512 l 1,9,-1
 256 384 l 1,10,-1
 128 384 l 1,11,-1
 128 512 l 1,8,-1
256 512 m 1,12,-1
 384 512 l 1,13,-1
 384 384 l 1,14,-1
 256 384 l 1,15,-1
 256 512 l 1,12,-1
0 384 m 1,16,-1
 128 384 l 1,17,-1
 128 256 l 1,18,-1
 0 256 l 1,19,-1
 0 384 l 1,16,-1
128 384 m 1,20,-1
 256 384 l 1,21,-1
 256 256 l 1,22,-1
 128 256 l 1,23,-1
 128 384 l 1,20,-1
256 384 m 1,24,-1
 384 384 l 1,25,-1
 384 256 l 1,26,-1
 256 256 l 1,27,-1
 256 384 l 1,24,-1
0 256 m 1,28,-1
 128 256 l 1,29,-1
 128 128 l 1,30,-1
 0 128 l 1,31,-1
 0 256 l 1,28,-1
128 256 m 1,32,-1
 256 256 l 1,33,-1
 256 128 l 1,34,-1
 128 128 l 1,35,-1
 128 256 l 1,32,-1
512 256 m 1,36,-1
 640 256 l 1,37,-1
 640 128 l 1,38,-1
 512 128 l 1,39,-1
 512 256 l 1,36,-1
128 128 m 1,40,-1
 256 128 l 1,41,-1
 256 0 l 1,42,-1
 128 0 l 1,43,-1
 128 128 l 1,40,-1
256 128 m 1,44,-1
 384 128 l 1,45,-1
 384 0 l 1,46,-1
 256 0 l 1,47,-1
 256 128 l 1,44,-1
384 128 m 1,48,-1
 512 128 l 1,49,-1
 512 0 l 1,50,-1
 384 0 l 1,51,-1
 384 128 l 1,48,-1
EndSplineSet
Validated: 5
EndChar

StartChar: Agrave
Encoding: 192 192 115
Width: 768
GlyphClass: 1
Flags: W
LayerCount: 2
Fore
SplineSet
128 896 m 1,0,-1
 256 896 l 1,1,-1
 256 768 l 1,2,-1
 128 768 l 1,3,-1
 128 896 l 1,0,-1
256 768 m 1,4,-1
 384 768 l 1,5,-1
 384 640 l 1,6,-1
 256 640 l 1,7,-1
 256 768 l 1,4,-1
128 640 m 1,8,-1
 256 640 l 1,9,-1
 256 512 l 1,10,-1
 128 512 l 1,11,-1
 128 640 l 1,8,-1
256 640 m 1,12,-1
 384 640 l 1,13,-1
 384 512 l 1,14,-1
 256 512 l 1,15,-1
 256 640 l 1,12,-1
384 640 m 1,16,-1
 512 640 l 1,17,-1
 512 512 l 1,18,-1
 384 512 l 1,19,-1
 384 640 l 1,16,-1
0 512 m 1,20,-1
 128 512 l 1,21,-1
 128 384 l 1,22,-1
 0 384 l 1,23,-1
 0 512 l 1,20,-1
128 512 m 1,24,-1
 256 512 l 1,25,-1
 256 384 l 1,26,-1
 128 384 l 1,27,-1
 128 512 l 1,24,-1
512 512 m 1,28,-1
 640 512 l 1,29,-1
 640 384 l 1,30,-1
 512 384 l 1,31,-1
 512 512 l 1,28,-1
0 384 m 1,32,-1
 128 384 l 1,33,-1
 128 256 l 1,34,-1
 0 256 l 1,35,-1
 0 384 l 1,32,-1
128 384 m 1,36,-1
 256 384 l 1,37,-1
 256 256 l 1,38,-1
 128 256 l 1,39,-1
 128 384 l 1,36,-1
512 384 m 1,40,-1
 640 384 l 1,41,-1
 640 256 l 1,42,-1
 512 256 l 1,43,-1
 512 384 l 1,40,-1
0 256 m 1,44,-1
 128 256 l 1,45,-1
 128 128 l 1,46,-1
 0 128 l 1,47,-1
 0 256 l 1,44,-1
128 256 m 1,48,-1
 256 256 l 1,49,-1
 256 128 l 1,50,-1
 128 128 l 1,51,-1
 128 256 l 1,48,-1
256 256 m 1,52,-1
 384 256 l 1,53,-1
 384 128 l 1,54,-1
 256 128 l 1,55,-1
 256 256 l 1,52,-1
384 256 m 1,56,-1
 512 256 l 1,57,-1
 512 128 l 1,58,-1
 384 128 l 1,59,-1
 384 256 l 1,56,-1
512 256 m 1,60,-1
 640 256 l 1,61,-1
 640 128 l 1,62,-1
 512 128 l 1,63,-1
 512 256 l 1,60,-1
0 128 m 1,64,-1
 128 128 l 1,65,-1
 128 0 l 1,66,-1
 0 0 l 1,67,-1
 0 128 l 1,64,-1
128 128 m 1,68,-1
 256 128 l 1,69,-1
 256 0 l 1,70,-1
 128 0 l 1,71,-1
 128 128 l 1,68,-1
512 128 m 1,72,-1
 640 128 l 1,73,-1
 640 0 l 1,74,-1
 512 0 l 1,75,-1
 512 128 l 1,72,-1
EndSplineSet
Validated: 5
EndChar

StartChar: Aacute
Encoding: 193 193 116
Width: 768
GlyphClass: 1
Flags: W
LayerCount: 2
Fore
SplineSet
384 896 m 1,0,-1
 512 896 l 1,1,-1
 512 768 l 1,2,-1
 384 768 l 1,3,-1
 384 896 l 1,0,-1
256 768 m 1,4,-1
 384 768 l 1,5,-1
 384 640 l 1,6,-1
 256 640 l 1,7,-1
 256 768 l 1,4,-1
128 640 m 1,8,-1
 256 640 l 1,9,-1
 256 512 l 1,10,-1
 128 512 l 1,11,-1
 128 640 l 1,8,-1
256 640 m 1,12,-1
 384 640 l 1,13,-1
 384 512 l 1,14,-1
 256 512 l 1,15,-1
 256 640 l 1,12,-1
384 640 m 1,16,-1
 512 640 l 1,17,-1
 512 512 l 1,18,-1
 384 512 l 1,19,-1
 384 640 l 1,16,-1
0 512 m 1,20,-1
 128 512 l 1,21,-1
 128 384 l 1,22,-1
 0 384 l 1,23,-1
 0 512 l 1,20,-1
128 512 m 1,24,-1
 256 512 l 1,25,-1
 256 384 l 1,26,-1
 128 384 l 1,27,-1
 128 512 l 1,24,-1
512 512 m 1,28,-1
 640 512 l 1,29,-1
 640 384 l 1,30,-1
 512 384 l 1,31,-1
 512 512 l 1,28,-1
0 384 m 1,32,-1
 128 384 l 1,33,-1
 128 256 l 1,34,-1
 0 256 l 1,35,-1
 0 384 l 1,32,-1
128 384 m 1,36,-1
 256 384 l 1,37,-1
 256 256 l 1,38,-1
 128 256 l 1,39,-1
 128 384 l 1,36,-1
512 384 m 1,40,-1
 640 384 l 1,41,-1
 640 256 l 1,42,-1
 512 256 l 1,43,-1
 512 384 l 1,40,-1
0 256 m 1,44,-1
 128 256 l 1,45,-1
 128 128 l 1,46,-1
 0 128 l 1,47,-1
 0 256 l 1,44,-1
128 256 m 1,48,-1
 256 256 l 1,49,-1
 256 128 l 1,50,-1
 128 128 l 1,51,-1
 128 256 l 1,48,-1
256 256 m 1,52,-1
 384 256 l 1,53,-1
 384 128 l 1,54,-1
 256 128 l 1,55,-1
 256 256 l 1,52,-1
384 256 m 1,56,-1
 512 256 l 1,57,-1
 512 128 l 1,58,-1
 384 128 l 1,59,-1
 384 256 l 1,56,-1
512 256 m 1,60,-1
 640 256 l 1,61,-1
 640 128 l 1,62,-1
 512 128 l 1,63,-1
 512 256 l 1,60,-1
0 128 m 1,64,-1
 128 128 l 1,65,-1
 128 0 l 1,66,-1
 0 0 l 1,67,-1
 0 128 l 1,64,-1
128 128 m 1,68,-1
 256 128 l 1,69,-1
 256 0 l 1,70,-1
 128 0 l 1,71,-1
 128 128 l 1,68,-1
512 128 m 1,72,-1
 640 128 l 1,73,-1
 640 0 l 1,74,-1
 512 0 l 1,75,-1
 512 128 l 1,72,-1
EndSplineSet
Validated: 5
EndChar

StartChar: Acircumflex
Encoding: 194 194 117
Width: 768
GlyphClass: 1
Flags: W
LayerCount: 2
Fore
SplineSet
256 896 m 1,0,-1
 384 896 l 1,1,-1
 384 768 l 1,2,-1
 256 768 l 1,3,-1
 256 896 l 1,0,-1
128 768 m 1,4,-1
 256 768 l 1,5,-1
 256 640 l 1,6,-1
 128 640 l 1,7,-1
 128 768 l 1,4,-1
384 768 m 1,8,-1
 512 768 l 1,9,-1
 512 640 l 1,10,-1
 384 640 l 1,11,-1
 384 768 l 1,8,-1
128 640 m 1,12,-1
 256 640 l 1,13,-1
 256 512 l 1,14,-1
 128 512 l 1,15,-1
 128 640 l 1,12,-1
256 640 m 1,16,-1
 384 640 l 1,17,-1
 384 512 l 1,18,-1
 256 512 l 1,19,-1
 256 640 l 1,16,-1
384 640 m 1,20,-1
 512 640 l 1,21,-1
 512 512 l 1,22,-1
 384 512 l 1,23,-1
 384 640 l 1,20,-1
0 512 m 1,24,-1
 128 512 l 1,25,-1
 128 384 l 1,26,-1
 0 384 l 1,27,-1
 0 512 l 1,24,-1
128 512 m 1,28,-1
 256 512 l 1,29,-1
 256 384 l 1,30,-1
 128 384 l 1,31,-1
 128 512 l 1,28,-1
512 512 m 1,32,-1
 640 512 l 1,33,-1
 640 384 l 1,34,-1
 512 384 l 1,35,-1
 512 512 l 1,32,-1
0 384 m 1,36,-1
 128 384 l 1,37,-1
 128 256 l 1,38,-1
 0 256 l 1,39,-1
 0 384 l 1,36,-1
128 384 m 1,40,-1
 256 384 l 1,41,-1
 256 256 l 1,42,-1
 128 256 l 1,43,-1
 128 384 l 1,40,-1
512 384 m 1,44,-1
 640 384 l 1,45,-1
 640 256 l 1,46,-1
 512 256 l 1,47,-1
 512 384 l 1,44,-1
0 256 m 1,48,-1
 128 256 l 1,49,-1
 128 128 l 1,50,-1
 0 128 l 1,51,-1
 0 256 l 1,48,-1
128 256 m 1,52,-1
 256 256 l 1,53,-1
 256 128 l 1,54,-1
 128 128 l 1,55,-1
 128 256 l 1,52,-1
256 256 m 1,56,-1
 384 256 l 1,57,-1
 384 128 l 1,58,-1
 256 128 l 1,59,-1
 256 256 l 1,56,-1
384 256 m 1,60,-1
 512 256 l 1,61,-1
 512 128 l 1,62,-1
 384 128 l 1,63,-1
 384 256 l 1,60,-1
512 256 m 1,64,-1
 640 256 l 1,65,-1
 640 128 l 1,66,-1
 512 128 l 1,67,-1
 512 256 l 1,64,-1
0 128 m 1,68,-1
 128 128 l 1,69,-1
 128 0 l 1,70,-1
 0 0 l 1,71,-1
 0 128 l 1,68,-1
128 128 m 1,72,-1
 256 128 l 1,73,-1
 256 0 l 1,74,-1
 128 0 l 1,75,-1
 128 128 l 1,72,-1
512 128 m 1,76,-1
 640 128 l 1,77,-1
 640 0 l 1,78,-1
 512 0 l 1,79,-1
 512 128 l 1,76,-1
EndSplineSet
Validated: 5
EndChar

StartChar: Atilde
Encoding: 195 195 118
Width: 768
GlyphClass: 1
Flags: W
LayerCount: 2
Fore
SplineSet
128 896 m 1,0,-1
 256 896 l 1,1,-1
 256 768 l 1,2,-1
 128 768 l 1,3,-1
 128 896 l 1,0,-1
256 896 m 1,4,-1
 384 896 l 1,5,-1
 384 768 l 1,6,-1
 256 768 l 1,7,-1
 256 896 l 1,4,-1
512 896 m 1,8,-1
 640 896 l 1,9,-1
 640 768 l 1,10,-1
 512 768 l 1,11,-1
 512 896 l 1,8,-1
0 768 m 1,12,-1
 128 768 l 1,13,-1
 128 640 l 1,14,-1
 0 640 l 1,15,-1
 0 768 l 1,12,-1
256 768 m 1,16,-1
 384 768 l 1,17,-1
 384 640 l 1,18,-1
 256 640 l 1,19,-1
 256 768 l 1,16,-1
384 768 m 1,20,-1
 512 768 l 1,21,-1
 512 640 l 1,22,-1
 384 640 l 1,23,-1
 384 768 l 1,20,-1
128 640 m 1,24,-1
 256 640 l 1,25,-1
 256 512 l 1,26,-1
 128 512 l 1,27,-1
 128 640 l 1,24,-1
256 640 m 1,28,-1
 384 640 l 1,29,-1
 384 512 l 1,30,-1
 256 512 l 1,31,-1
 256 640 l 1,28,-1
384 640 m 1,32,-1
 512 640 l 1,33,-1
 512 512 l 1,34,-1
 384 512 l 1,35,-1
 384 640 l 1,32,-1
0 512 m 1,36,-1
 128 512 l 1,37,-1
 128 384 l 1,38,-1
 0 384 l 1,39,-1
 0 512 l 1,36,-1
128 512 m 1,40,-1
 256 512 l 1,41,-1
 256 384 l 1,42,-1
 128 384 l 1,43,-1
 128 512 l 1,40,-1
512 512 m 1,44,-1
 640 512 l 1,45,-1
 640 384 l 1,46,-1
 512 384 l 1,47,-1
 512 512 l 1,44,-1
0 384 m 1,48,-1
 128 384 l 1,49,-1
 128 256 l 1,50,-1
 0 256 l 1,51,-1
 0 384 l 1,48,-1
128 384 m 1,52,-1
 256 384 l 1,53,-1
 256 256 l 1,54,-1
 128 256 l 1,55,-1
 128 384 l 1,52,-1
512 384 m 1,56,-1
 640 384 l 1,57,-1
 640 256 l 1,58,-1
 512 256 l 1,59,-1
 512 384 l 1,56,-1
0 256 m 1,60,-1
 128 256 l 1,61,-1
 128 128 l 1,62,-1
 0 128 l 1,63,-1
 0 256 l 1,60,-1
128 256 m 1,64,-1
 256 256 l 1,65,-1
 256 128 l 1,66,-1
 128 128 l 1,67,-1
 128 256 l 1,64,-1
256 256 m 1,68,-1
 384 256 l 1,69,-1
 384 128 l 1,70,-1
 256 128 l 1,71,-1
 256 256 l 1,68,-1
384 256 m 1,72,-1
 512 256 l 1,73,-1
 512 128 l 1,74,-1
 384 128 l 1,75,-1
 384 256 l 1,72,-1
512 256 m 1,76,-1
 640 256 l 1,77,-1
 640 128 l 1,78,-1
 512 128 l 1,79,-1
 512 256 l 1,76,-1
0 128 m 1,80,-1
 128 128 l 1,81,-1
 128 0 l 1,82,-1
 0 0 l 1,83,-1
 0 128 l 1,80,-1
128 128 m 1,84,-1
 256 128 l 1,85,-1
 256 0 l 1,86,-1
 128 0 l 1,87,-1
 128 128 l 1,84,-1
512 128 m 1,88,-1
 640 128 l 1,89,-1
 640 0 l 1,90,-1
 512 0 l 1,91,-1
 512 128 l 1,88,-1
EndSplineSet
Validated: 5
EndChar

StartChar: Adieresis
Encoding: 196 196 119
Width: 768
GlyphClass: 1
Flags: W
LayerCount: 2
Fore
SplineSet
128 896 m 1,0,-1
 256 896 l 1,1,-1
 256 768 l 1,2,-1
 128 768 l 1,3,-1
 128 896 l 1,0,-1
384 896 m 1,4,-1
 512 896 l 1,5,-1
 512 768 l 1,6,-1
 384 768 l 1,7,-1
 384 896 l 1,4,-1
128 640 m 1,8,-1
 256 640 l 1,9,-1
 256 512 l 1,10,-1
 128 512 l 1,11,-1
 128 640 l 1,8,-1
256 640 m 1,12,-1
 384 640 l 1,13,-1
 384 512 l 1,14,-1
 256 512 l 1,15,-1
 256 640 l 1,12,-1
384 640 m 1,16,-1
 512 640 l 1,17,-1
 512 512 l 1,18,-1
 384 512 l 1,19,-1
 384 640 l 1,16,-1
0 512 m 1,20,-1
 128 512 l 1,21,-1
 128 384 l 1,22,-1
 0 384 l 1,23,-1
 0 512 l 1,20,-1
128 512 m 1,24,-1
 256 512 l 1,25,-1
 256 384 l 1,26,-1
 128 384 l 1,27,-1
 128 512 l 1,24,-1
512 512 m 1,28,-1
 640 512 l 1,29,-1
 640 384 l 1,30,-1
 512 384 l 1,31,-1
 512 512 l 1,28,-1
0 384 m 1,32,-1
 128 384 l 1,33,-1
 128 256 l 1,34,-1
 0 256 l 1,35,-1
 0 384 l 1,32,-1
128 384 m 1,36,-1
 256 384 l 1,37,-1
 256 256 l 1,38,-1
 128 256 l 1,39,-1
 128 384 l 1,36,-1
512 384 m 1,40,-1
 640 384 l 1,41,-1
 640 256 l 1,42,-1
 512 256 l 1,43,-1
 512 384 l 1,40,-1
0 256 m 1,44,-1
 128 256 l 1,45,-1
 128 128 l 1,46,-1
 0 128 l 1,47,-1
 0 256 l 1,44,-1
128 256 m 1,48,-1
 256 256 l 1,49,-1
 256 128 l 1,50,-1
 128 128 l 1,51,-1
 128 256 l 1,48,-1
256 256 m 1,52,-1
 384 256 l 1,53,-1
 384 128 l 1,54,-1
 256 128 l 1,55,-1
 256 256 l 1,52,-1
384 256 m 1,56,-1
 512 256 l 1,57,-1
 512 128 l 1,58,-1
 384 128 l 1,59,-1
 384 256 l 1,56,-1
512 256 m 1,60,-1
 640 256 l 1,61,-1
 640 128 l 1,62,-1
 512 128 l 1,63,-1
 512 256 l 1,60,-1
0 128 m 1,64,-1
 128 128 l 1,65,-1
 128 0 l 1,66,-1
 0 0 l 1,67,-1
 0 128 l 1,64,-1
128 128 m 1,68,-1
 256 128 l 1,69,-1
 256 0 l 1,70,-1
 128 0 l 1,71,-1
 128 128 l 1,68,-1
512 128 m 1,72,-1
 640 128 l 1,73,-1
 640 0 l 1,74,-1
 512 0 l 1,75,-1
 512 128 l 1,72,-1
EndSplineSet
Validated: 5
EndChar

StartChar: Aring
Encoding: 197 197 120
Width: 768
GlyphClass: 1
Flags: W
LayerCount: 2
Fore
SplineSet
256 896 m 1,0,-1
 384 896 l 1,1,-1
 384 768 l 1,2,-1
 256 768 l 1,3,-1
 256 896 l 1,0,-1
128 768 m 1,4,-1
 256 768 l 1,5,-1
 256 640 l 1,6,-1
 128 640 l 1,7,-1
 128 768 l 1,4,-1
384 768 m 1,8,-1
 512 768 l 1,9,-1
 512 640 l 1,10,-1
 384 640 l 1,11,-1
 384 768 l 1,8,-1
256 640 m 1,12,-1
 384 640 l 1,13,-1
 384 512 l 1,14,-1
 256 512 l 1,15,-1
 256 640 l 1,12,-1
128 512 m 1,16,-1
 256 512 l 1,17,-1
 256 384 l 1,18,-1
 128 384 l 1,19,-1
 128 512 l 1,16,-1
256 512 m 1,20,-1
 384 512 l 1,21,-1
 384 384 l 1,22,-1
 256 384 l 1,23,-1
 256 512 l 1,20,-1
384 512 m 1,24,-1
 512 512 l 1,25,-1
 512 384 l 1,26,-1
 384 384 l 1,27,-1
 384 512 l 1,24,-1
0 384 m 1,28,-1
 128 384 l 1,29,-1
 128 256 l 1,30,-1
 0 256 l 1,31,-1
 0 384 l 1,28,-1
128 384 m 1,32,-1
 256 384 l 1,33,-1
 256 256 l 1,34,-1
 128 256 l 1,35,-1
 128 384 l 1,32,-1
512 384 m 1,36,-1
 640 384 l 1,37,-1
 640 256 l 1,38,-1
 512 256 l 1,39,-1
 512 384 l 1,36,-1
0 256 m 1,40,-1
 128 256 l 1,41,-1
 128 128 l 1,42,-1
 0 128 l 1,43,-1
 0 256 l 1,40,-1
128 256 m 1,44,-1
 256 256 l 1,45,-1
 256 128 l 1,46,-1
 128 128 l 1,47,-1
 128 256 l 1,44,-1
256 256 m 1,48,-1
 384 256 l 1,49,-1
 384 128 l 1,50,-1
 256 128 l 1,51,-1
 256 256 l 1,48,-1
384 256 m 1,52,-1
 512 256 l 1,53,-1
 512 128 l 1,54,-1
 384 128 l 1,55,-1
 384 256 l 1,52,-1
512 256 m 1,56,-1
 640 256 l 1,57,-1
 640 128 l 1,58,-1
 512 128 l 1,59,-1
 512 256 l 1,56,-1
0 128 m 1,60,-1
 128 128 l 1,61,-1
 128 0 l 1,62,-1
 0 0 l 1,63,-1
 0 128 l 1,60,-1
128 128 m 1,64,-1
 256 128 l 1,65,-1
 256 0 l 1,66,-1
 128 0 l 1,67,-1
 128 128 l 1,64,-1
512 128 m 1,68,-1
 640 128 l 1,69,-1
 640 0 l 1,70,-1
 512 0 l 1,71,-1
 512 128 l 1,68,-1
EndSplineSet
Validated: 5
EndChar

StartChar: AE
Encoding: 198 198 121
Width: 768
GlyphClass: 1
Flags: W
LayerCount: 2
Fore
SplineSet
128 768 m 1,0,-1
 256 768 l 1,1,-1
 256 640 l 1,2,-1
 128 640 l 1,3,-1
 128 768 l 1,0,-1
256 768 m 1,4,-1
 384 768 l 1,5,-1
 384 640 l 1,6,-1
 256 640 l 1,7,-1
 256 768 l 1,4,-1
384 768 m 1,8,-1
 512 768 l 1,9,-1
 512 640 l 1,10,-1
 384 640 l 1,11,-1
 384 768 l 1,8,-1
512 768 m 1,12,-1
 640 768 l 1,13,-1
 640 640 l 1,14,-1
 512 640 l 1,15,-1
 512 768 l 1,12,-1
0 640 m 1,16,-1
 128 640 l 1,17,-1
 128 512 l 1,18,-1
 0 512 l 1,19,-1
 0 640 l 1,16,-1
256 640 m 1,20,-1
 384 640 l 1,21,-1
 384 512 l 1,22,-1
 256 512 l 1,23,-1
 256 640 l 1,20,-1
384 640 m 1,24,-1
 512 640 l 1,25,-1
 512 512 l 1,26,-1
 384 512 l 1,27,-1
 384 640 l 1,24,-1
0 512 m 1,28,-1
 128 512 l 1,29,-1
 128 384 l 1,30,-1
 0 384 l 1,31,-1
 0 512 l 1,28,-1
256 512 m 1,32,-1
 384 512 l 1,33,-1
 384 384 l 1,34,-1
 256 384 l 1,35,-1
 256 512 l 1,32,-1
384 512 m 1,36,-1
 512 512 l 1,37,-1
 512 384 l 1,38,-1
 384 384 l 1,39,-1
 384 512 l 1,36,-1
512 512 m 1,40,-1
 640 512 l 1,41,-1
 640 384 l 1,42,-1
 512 384 l 1,43,-1
 512 512 l 1,40,-1
0 384 m 1,44,-1
 128 384 l 1,45,-1
 128 256 l 1,46,-1
 0 256 l 1,47,-1
 0 384 l 1,44,-1
128 384 m 1,48,-1
 256 384 l 1,49,-1
 256 256 l 1,50,-1
 128 256 l 1,51,-1
 128 384 l 1,48,-1
256 384 m 1,52,-1
 384 384 l 1,53,-1
 384 256 l 1,54,-1
 256 256 l 1,55,-1
 256 384 l 1,52,-1
384 384 m 1,56,-1
 512 384 l 1,57,-1
 512 256 l 1,58,-1
 384 256 l 1,59,-1
 384 384 l 1,56,-1
0 256 m 1,60,-1
 128 256 l 1,61,-1
 128 128 l 1,62,-1
 0 128 l 1,63,-1
 0 256 l 1,60,-1
256 256 m 1,64,-1
 384 256 l 1,65,-1
 384 128 l 1,66,-1
 256 128 l 1,67,-1
 256 256 l 1,64,-1
384 256 m 1,68,-1
 512 256 l 1,69,-1
 512 128 l 1,70,-1
 384 128 l 1,71,-1
 384 256 l 1,68,-1
0 128 m 1,72,-1
 128 128 l 1,73,-1
 128 0 l 1,74,-1
 0 0 l 1,75,-1
 0 128 l 1,72,-1
256 128 m 1,76,-1
 384 128 l 1,77,-1
 384 0 l 1,78,-1
 256 0 l 1,79,-1
 256 128 l 1,76,-1
384 128 m 1,80,-1
 512 128 l 1,81,-1
 512 0 l 1,82,-1
 384 0 l 1,83,-1
 384 128 l 1,80,-1
512 128 m 1,84,-1
 640 128 l 1,85,-1
 640 0 l 1,86,-1
 512 0 l 1,87,-1
 512 128 l 1,84,-1
EndSplineSet
Validated: 5
EndChar

StartChar: Ccedilla
Encoding: 199 199 122
Width: 768
GlyphClass: 1
Flags: W
LayerCount: 2
Fore
SplineSet
128 768 m 1,0,-1
 256 768 l 1,1,-1
 256 640 l 1,2,-1
 128 640 l 1,3,-1
 128 768 l 1,0,-1
256 768 m 1,4,-1
 384 768 l 1,5,-1
 384 640 l 1,6,-1
 256 640 l 1,7,-1
 256 768 l 1,4,-1
384 768 m 1,8,-1
 512 768 l 1,9,-1
 512 640 l 1,10,-1
 384 640 l 1,11,-1
 384 768 l 1,8,-1
0 640 m 1,12,-1
 128 640 l 1,13,-1
 128 512 l 1,14,-1
 0 512 l 1,15,-1
 0 640 l 1,12,-1
128 640 m 1,16,-1
 256 640 l 1,17,-1
 256 512 l 1,18,-1
 128 512 l 1,19,-1
 128 640 l 1,16,-1
512 640 m 1,20,-1
 640 640 l 1,21,-1
 640 512 l 1,22,-1
 512 512 l 1,23,-1
 512 640 l 1,20,-1
0 512 m 1,24,-1
 128 512 l 1,25,-1
 128 384 l 1,26,-1
 0 384 l 1,27,-1
 0 512 l 1,24,-1
128 512 m 1,28,-1
 256 512 l 1,29,-1
 256 384 l 1,30,-1
 128 384 l 1,31,-1
 128 512 l 1,28,-1
0 384 m 1,32,-1
 128 384 l 1,33,-1
 128 256 l 1,34,-1
 0 256 l 1,35,-1
 0 384 l 1,32,-1
128 384 m 1,36,-1
 256 384 l 1,37,-1
 256 256 l 1,38,-1
 128 256 l 1,39,-1
 128 384 l 1,36,-1
0 256 m 1,40,-1
 128 256 l 1,41,-1
 128 128 l 1,42,-1
 0 128 l 1,43,-1
 0 256 l 1,40,-1
128 256 m 1,44,-1
 256 256 l 1,45,-1
 256 128 l 1,46,-1
 128 128 l 1,47,-1
 128 256 l 1,44,-1
512 256 m 1,48,-1
 640 256 l 1,49,-1
 640 128 l 1,50,-1
 512 128 l 1,51,-1
 512 256 l 1,48,-1
128 128 m 1,52,-1
 256 128 l 1,53,-1
 256 0 l 1,54,-1
 128 0 l 1,55,-1
 128 128 l 1,52,-1
256 128 m 1,56,-1
 384 128 l 1,57,-1
 384 0 l 1,58,-1
 256 0 l 1,59,-1
 256 128 l 1,56,-1
384 128 m 1,60,-1
 512 128 l 1,61,-1
 512 0 l 1,62,-1
 384 0 l 1,63,-1
 384 128 l 1,60,-1
256 0 m 1,64,-1
 384 0 l 1,65,-1
 384 -128 l 1,66,-1
 256 -128 l 1,67,-1
 256 0 l 1,64,-1
EndSplineSet
Validated: 5
EndChar

StartChar: Egrave
Encoding: 200 200 123
Width: 768
GlyphClass: 1
Flags: W
LayerCount: 2
Fore
SplineSet
128 896 m 1,0,-1
 256 896 l 1,1,-1
 256 768 l 1,2,-1
 128 768 l 1,3,-1
 128 896 l 1,0,-1
256 768 m 1,4,-1
 384 768 l 1,5,-1
 384 640 l 1,6,-1
 256 640 l 1,7,-1
 256 768 l 1,4,-1
0 640 m 1,8,-1
 128 640 l 1,9,-1
 128 512 l 1,10,-1
 0 512 l 1,11,-1
 0 640 l 1,8,-1
128 640 m 1,12,-1
 256 640 l 1,13,-1
 256 512 l 1,14,-1
 128 512 l 1,15,-1
 128 640 l 1,12,-1
256 640 m 1,16,-1
 384 640 l 1,17,-1
 384 512 l 1,18,-1
 256 512 l 1,19,-1
 256 640 l 1,16,-1
384 640 m 1,20,-1
 512 640 l 1,21,-1
 512 512 l 1,22,-1
 384 512 l 1,23,-1
 384 640 l 1,20,-1
512 640 m 1,24,-1
 640 640 l 1,25,-1
 640 512 l 1,26,-1
 512 512 l 1,27,-1
 512 640 l 1,24,-1
0 512 m 1,28,-1
 128 512 l 1,29,-1
 128 384 l 1,30,-1
 0 384 l 1,31,-1
 0 512 l 1,28,-1
128 512 m 1,32,-1
 256 512 l 1,33,-1
 256 384 l 1,34,-1
 128 384 l 1,35,-1
 128 512 l 1,32,-1
0 384 m 1,36,-1
 128 384 l 1,37,-1
 128 256 l 1,38,-1
 0 256 l 1,39,-1
 0 384 l 1,36,-1
128 384 m 1,40,-1
 256 384 l 1,41,-1
 256 256 l 1,42,-1
 128 256 l 1,43,-1
 128 384 l 1,40,-1
256 384 m 1,44,-1
 384 384 l 1,45,-1
 384 256 l 1,46,-1
 256 256 l 1,47,-1
 256 384 l 1,44,-1
0 256 m 1,48,-1
 128 256 l 1,49,-1
 128 128 l 1,50,-1
 0 128 l 1,51,-1
 0 256 l 1,48,-1
128 256 m 1,52,-1
 256 256 l 1,53,-1
 256 128 l 1,54,-1
 128 128 l 1,55,-1
 128 256 l 1,52,-1
0 128 m 1,56,-1
 128 128 l 1,57,-1
 128 0 l 1,58,-1
 0 0 l 1,59,-1
 0 128 l 1,56,-1
128 128 m 1,60,-1
 256 128 l 1,61,-1
 256 0 l 1,62,-1
 128 0 l 1,63,-1
 128 128 l 1,60,-1
256 128 m 1,64,-1
 384 128 l 1,65,-1
 384 0 l 1,66,-1
 256 0 l 1,67,-1
 256 128 l 1,64,-1
384 128 m 1,68,-1
 512 128 l 1,69,-1
 512 0 l 1,70,-1
 384 0 l 1,71,-1
 384 128 l 1,68,-1
512 128 m 1,72,-1
 640 128 l 1,73,-1
 640 0 l 1,74,-1
 512 0 l 1,75,-1
 512 128 l 1,72,-1
EndSplineSet
Validated: 5
EndChar

StartChar: Eacute
Encoding: 201 201 124
Width: 768
GlyphClass: 1
Flags: W
LayerCount: 2
Fore
SplineSet
384 896 m 1,0,-1
 512 896 l 1,1,-1
 512 768 l 1,2,-1
 384 768 l 1,3,-1
 384 896 l 1,0,-1
256 768 m 1,4,-1
 384 768 l 1,5,-1
 384 640 l 1,6,-1
 256 640 l 1,7,-1
 256 768 l 1,4,-1
0 640 m 1,8,-1
 128 640 l 1,9,-1
 128 512 l 1,10,-1
 0 512 l 1,11,-1
 0 640 l 1,8,-1
128 640 m 1,12,-1
 256 640 l 1,13,-1
 256 512 l 1,14,-1
 128 512 l 1,15,-1
 128 640 l 1,12,-1
256 640 m 1,16,-1
 384 640 l 1,17,-1
 384 512 l 1,18,-1
 256 512 l 1,19,-1
 256 640 l 1,16,-1
384 640 m 1,20,-1
 512 640 l 1,21,-1
 512 512 l 1,22,-1
 384 512 l 1,23,-1
 384 640 l 1,20,-1
512 640 m 1,24,-1
 640 640 l 1,25,-1
 640 512 l 1,26,-1
 512 512 l 1,27,-1
 512 640 l 1,24,-1
0 512 m 1,28,-1
 128 512 l 1,29,-1
 128 384 l 1,30,-1
 0 384 l 1,31,-1
 0 512 l 1,28,-1
128 512 m 1,32,-1
 256 512 l 1,33,-1
 256 384 l 1,34,-1
 128 384 l 1,35,-1
 128 512 l 1,32,-1
0 384 m 1,36,-1
 128 384 l 1,37,-1
 128 256 l 1,38,-1
 0 256 l 1,39,-1
 0 384 l 1,36,-1
128 384 m 1,40,-1
 256 384 l 1,41,-1
 256 256 l 1,42,-1
 128 256 l 1,43,-1
 128 384 l 1,40,-1
256 384 m 1,44,-1
 384 384 l 1,45,-1
 384 256 l 1,46,-1
 256 256 l 1,47,-1
 256 384 l 1,44,-1
0 256 m 1,48,-1
 128 256 l 1,49,-1
 128 128 l 1,50,-1
 0 128 l 1,51,-1
 0 256 l 1,48,-1
128 256 m 1,52,-1
 256 256 l 1,53,-1
 256 128 l 1,54,-1
 128 128 l 1,55,-1
 128 256 l 1,52,-1
0 128 m 1,56,-1
 128 128 l 1,57,-1
 128 0 l 1,58,-1
 0 0 l 1,59,-1
 0 128 l 1,56,-1
128 128 m 1,60,-1
 256 128 l 1,61,-1
 256 0 l 1,62,-1
 128 0 l 1,63,-1
 128 128 l 1,60,-1
256 128 m 1,64,-1
 384 128 l 1,65,-1
 384 0 l 1,66,-1
 256 0 l 1,67,-1
 256 128 l 1,64,-1
384 128 m 1,68,-1
 512 128 l 1,69,-1
 512 0 l 1,70,-1
 384 0 l 1,71,-1
 384 128 l 1,68,-1
512 128 m 1,72,-1
 640 128 l 1,73,-1
 640 0 l 1,74,-1
 512 0 l 1,75,-1
 512 128 l 1,72,-1
EndSplineSet
Validated: 5
EndChar

StartChar: Ecircumflex
Encoding: 202 202 125
Width: 768
GlyphClass: 1
Flags: W
LayerCount: 2
Fore
SplineSet
256 896 m 1,0,-1
 384 896 l 1,1,-1
 384 768 l 1,2,-1
 256 768 l 1,3,-1
 256 896 l 1,0,-1
128 768 m 1,4,-1
 256 768 l 1,5,-1
 256 640 l 1,6,-1
 128 640 l 1,7,-1
 128 768 l 1,4,-1
384 768 m 1,8,-1
 512 768 l 1,9,-1
 512 640 l 1,10,-1
 384 640 l 1,11,-1
 384 768 l 1,8,-1
0 640 m 1,12,-1
 128 640 l 1,13,-1
 128 512 l 1,14,-1
 0 512 l 1,15,-1
 0 640 l 1,12,-1
128 640 m 1,16,-1
 256 640 l 1,17,-1
 256 512 l 1,18,-1
 128 512 l 1,19,-1
 128 640 l 1,16,-1
256 640 m 1,20,-1
 384 640 l 1,21,-1
 384 512 l 1,22,-1
 256 512 l 1,23,-1
 256 640 l 1,20,-1
384 640 m 1,24,-1
 512 640 l 1,25,-1
 512 512 l 1,26,-1
 384 512 l 1,27,-1
 384 640 l 1,24,-1
512 640 m 1,28,-1
 640 640 l 1,29,-1
 640 512 l 1,30,-1
 512 512 l 1,31,-1
 512 640 l 1,28,-1
0 512 m 1,32,-1
 128 512 l 1,33,-1
 128 384 l 1,34,-1
 0 384 l 1,35,-1
 0 512 l 1,32,-1
128 512 m 1,36,-1
 256 512 l 1,37,-1
 256 384 l 1,38,-1
 128 384 l 1,39,-1
 128 512 l 1,36,-1
0 384 m 1,40,-1
 128 384 l 1,41,-1
 128 256 l 1,42,-1
 0 256 l 1,43,-1
 0 384 l 1,40,-1
128 384 m 1,44,-1
 256 384 l 1,45,-1
 256 256 l 1,46,-1
 128 256 l 1,47,-1
 128 384 l 1,44,-1
256 384 m 1,48,-1
 384 384 l 1,49,-1
 384 256 l 1,50,-1
 256 256 l 1,51,-1
 256 384 l 1,48,-1
0 256 m 1,52,-1
 128 256 l 1,53,-1
 128 128 l 1,54,-1
 0 128 l 1,55,-1
 0 256 l 1,52,-1
128 256 m 1,56,-1
 256 256 l 1,57,-1
 256 128 l 1,58,-1
 128 128 l 1,59,-1
 128 256 l 1,56,-1
0 128 m 1,60,-1
 128 128 l 1,61,-1
 128 0 l 1,62,-1
 0 0 l 1,63,-1
 0 128 l 1,60,-1
128 128 m 1,64,-1
 256 128 l 1,65,-1
 256 0 l 1,66,-1
 128 0 l 1,67,-1
 128 128 l 1,64,-1
256 128 m 1,68,-1
 384 128 l 1,69,-1
 384 0 l 1,70,-1
 256 0 l 1,71,-1
 256 128 l 1,68,-1
384 128 m 1,72,-1
 512 128 l 1,73,-1
 512 0 l 1,74,-1
 384 0 l 1,75,-1
 384 128 l 1,72,-1
512 128 m 1,76,-1
 640 128 l 1,77,-1
 640 0 l 1,78,-1
 512 0 l 1,79,-1
 512 128 l 1,76,-1
EndSplineSet
Validated: 5
EndChar

StartChar: Edieresis
Encoding: 203 203 126
Width: 768
GlyphClass: 1
Flags: W
LayerCount: 2
Fore
SplineSet
128 896 m 1,0,-1
 256 896 l 1,1,-1
 256 768 l 1,2,-1
 128 768 l 1,3,-1
 128 896 l 1,0,-1
384 896 m 1,4,-1
 512 896 l 1,5,-1
 512 768 l 1,6,-1
 384 768 l 1,7,-1
 384 896 l 1,4,-1
0 640 m 1,8,-1
 128 640 l 1,9,-1
 128 512 l 1,10,-1
 0 512 l 1,11,-1
 0 640 l 1,8,-1
128 640 m 1,12,-1
 256 640 l 1,13,-1
 256 512 l 1,14,-1
 128 512 l 1,15,-1
 128 640 l 1,12,-1
256 640 m 1,16,-1
 384 640 l 1,17,-1
 384 512 l 1,18,-1
 256 512 l 1,19,-1
 256 640 l 1,16,-1
384 640 m 1,20,-1
 512 640 l 1,21,-1
 512 512 l 1,22,-1
 384 512 l 1,23,-1
 384 640 l 1,20,-1
512 640 m 1,24,-1
 640 640 l 1,25,-1
 640 512 l 1,26,-1
 512 512 l 1,27,-1
 512 640 l 1,24,-1
0 512 m 1,28,-1
 128 512 l 1,29,-1
 128 384 l 1,30,-1
 0 384 l 1,31,-1
 0 512 l 1,28,-1
128 512 m 1,32,-1
 256 512 l 1,33,-1
 256 384 l 1,34,-1
 128 384 l 1,35,-1
 128 512 l 1,32,-1
0 384 m 1,36,-1
 128 384 l 1,37,-1
 128 256 l 1,38,-1
 0 256 l 1,39,-1
 0 384 l 1,36,-1
128 384 m 1,40,-1
 256 384 l 1,41,-1
 256 256 l 1,42,-1
 128 256 l 1,43,-1
 128 384 l 1,40,-1
256 384 m 1,44,-1
 384 384 l 1,45,-1
 384 256 l 1,46,-1
 256 256 l 1,47,-1
 256 384 l 1,44,-1
0 256 m 1,48,-1
 128 256 l 1,49,-1
 128 128 l 1,50,-1
 0 128 l 1,51,-1
 0 256 l 1,48,-1
128 256 m 1,52,-1
 256 256 l 1,53,-1
 256 128 l 1,54,-1
 128 128 l 1,55,-1
 128 256 l 1,52,-1
0 128 m 1,56,-1
 128 128 l 1,57,-1
 128 0 l 1,58,-1
 0 0 l 1,59,-1
 0 128 l 1,56,-1
128 128 m 1,60,-1
 256 128 l 1,61,-1
 256 0 l 1,62,-1
 128 0 l 1,63,-1
 128 128 l 1,60,-1
256 128 m 1,64,-1
 384 128 l 1,65,-1
 384 0 l 1,66,-1
 256 0 l 1,67,-1
 256 128 l 1,64,-1
384 128 m 1,68,-1
 512 128 l 1,69,-1
 512 0 l 1,70,-1
 384 0 l 1,71,-1
 384 128 l 1,68,-1
512 128 m 1,72,-1
 640 128 l 1,73,-1
 640 0 l 1,74,-1
 512 0 l 1,75,-1
 512 128 l 1,72,-1
EndSplineSet
Validated: 5
EndChar

StartChar: Igrave
Encoding: 204 204 127
Width: 768
GlyphClass: 1
Flags: W
LayerCount: 2
Fore
SplineSet
128 896 m 1,0,-1
 256 896 l 1,1,-1
 256 768 l 1,2,-1
 128 768 l 1,3,-1
 128 896 l 1,0,-1
256 768 m 1,4,-1
 384 768 l 1,5,-1
 384 640 l 1,6,-1
 256 640 l 1,7,-1
 256 768 l 1,4,-1
0 640 m 1,8,-1
 128 640 l 1,9,-1
 128 512 l 1,10,-1
 0 512 l 1,11,-1
 0 640 l 1,8,-1
128 640 m 1,12,-1
 256 640 l 1,13,-1
 256 512 l 1,14,-1
 128 512 l 1,15,-1
 128 640 l 1,12,-1
256 640 m 1,16,-1
 384 640 l 1,17,-1
 384 512 l 1,18,-1
 256 512 l 1,19,-1
 256 640 l 1,16,-1
384 640 m 1,20,-1
 512 640 l 1,21,-1
 512 512 l 1,22,-1
 384 512 l 1,23,-1
 384 640 l 1,20,-1
128 512 m 1,24,-1
 256 512 l 1,25,-1
 256 384 l 1,26,-1
 128 384 l 1,27,-1
 128 512 l 1,24,-1
256 512 m 1,28,-1
 384 512 l 1,29,-1
 384 384 l 1,30,-1
 256 384 l 1,31,-1
 256 512 l 1,28,-1
128 384 m 1,32,-1
 256 384 l 1,33,-1
 256 256 l 1,34,-1
 128 256 l 1,35,-1
 128 384 l 1,32,-1
256 384 m 1,36,-1
 384 384 l 1,37,-1
 384 256 l 1,38,-1
 256 256 l 1,39,-1
 256 384 l 1,36,-1
128 256 m 1,40,-1
 256 256 l 1,41,-1
 256 128 l 1,42,-1
 128 128 l 1,43,-1
 128 256 l 1,40,-1
256 256 m 1,44,-1
 384 256 l 1,45,-1
 384 128 l 1,46,-1
 256 128 l 1,47,-1
 256 256 l 1,44,-1
0 128 m 1,48,-1
 128 128 l 1,49,-1
 128 0 l 1,50,-1
 0 0 l 1,51,-1
 0 128 l 1,48,-1
128 128 m 1,52,-1
 256 128 l 1,53,-1
 256 0 l 1,54,-1
 128 0 l 1,55,-1
 128 128 l 1,52,-1
256 128 m 1,56,-1
 384 128 l 1,57,-1
 384 0 l 1,58,-1
 256 0 l 1,59,-1
 256 128 l 1,56,-1
384 128 m 1,60,-1
 512 128 l 1,61,-1
 512 0 l 1,62,-1
 384 0 l 1,63,-1
 384 128 l 1,60,-1
EndSplineSet
Validated: 5
EndChar

StartChar: Iacute
Encoding: 205 205 128
Width: 768
GlyphClass: 1
Flags: W
LayerCount: 2
Fore
SplineSet
384 896 m 1,0,-1
 512 896 l 1,1,-1
 512 768 l 1,2,-1
 384 768 l 1,3,-1
 384 896 l 1,0,-1
256 768 m 1,4,-1
 384 768 l 1,5,-1
 384 640 l 1,6,-1
 256 640 l 1,7,-1
 256 768 l 1,4,-1
0 640 m 1,8,-1
 128 640 l 1,9,-1
 128 512 l 1,10,-1
 0 512 l 1,11,-1
 0 640 l 1,8,-1
128 640 m 1,12,-1
 256 640 l 1,13,-1
 256 512 l 1,14,-1
 128 512 l 1,15,-1
 128 640 l 1,12,-1
256 640 m 1,16,-1
 384 640 l 1,17,-1
 384 512 l 1,18,-1
 256 512 l 1,19,-1
 256 640 l 1,16,-1
384 640 m 1,20,-1
 512 640 l 1,21,-1
 512 512 l 1,22,-1
 384 512 l 1,23,-1
 384 640 l 1,20,-1
128 512 m 1,24,-1
 256 512 l 1,25,-1
 256 384 l 1,26,-1
 128 384 l 1,27,-1
 128 512 l 1,24,-1
256 512 m 1,28,-1
 384 512 l 1,29,-1
 384 384 l 1,30,-1
 256 384 l 1,31,-1
 256 512 l 1,28,-1
128 384 m 1,32,-1
 256 384 l 1,33,-1
 256 256 l 1,34,-1
 128 256 l 1,35,-1
 128 384 l 1,32,-1
256 384 m 1,36,-1
 384 384 l 1,37,-1
 384 256 l 1,38,-1
 256 256 l 1,39,-1
 256 384 l 1,36,-1
128 256 m 1,40,-1
 256 256 l 1,41,-1
 256 128 l 1,42,-1
 128 128 l 1,43,-1
 128 256 l 1,40,-1
256 256 m 1,44,-1
 384 256 l 1,45,-1
 384 128 l 1,46,-1
 256 128 l 1,47,-1
 256 256 l 1,44,-1
0 128 m 1,48,-1
 128 128 l 1,49,-1
 128 0 l 1,50,-1
 0 0 l 1,51,-1
 0 128 l 1,48,-1
128 128 m 1,52,-1
 256 128 l 1,53,-1
 256 0 l 1,54,-1
 128 0 l 1,55,-1
 128 128 l 1,52,-1
256 128 m 1,56,-1
 384 128 l 1,57,-1
 384 0 l 1,58,-1
 256 0 l 1,59,-1
 256 128 l 1,56,-1
384 128 m 1,60,-1
 512 128 l 1,61,-1
 512 0 l 1,62,-1
 384 0 l 1,63,-1
 384 128 l 1,60,-1
EndSplineSet
Validated: 5
EndChar

StartChar: Icircumflex
Encoding: 206 206 129
Width: 768
GlyphClass: 1
Flags: W
LayerCount: 2
Fore
SplineSet
256 896 m 1,0,-1
 384 896 l 1,1,-1
 384 768 l 1,2,-1
 256 768 l 1,3,-1
 256 896 l 1,0,-1
128 768 m 1,4,-1
 256 768 l 1,5,-1
 256 640 l 1,6,-1
 128 640 l 1,7,-1
 128 768 l 1,4,-1
384 768 m 1,8,-1
 512 768 l 1,9,-1
 512 640 l 1,10,-1
 384 640 l 1,11,-1
 384 768 l 1,8,-1
0 640 m 1,12,-1
 128 640 l 1,13,-1
 128 512 l 1,14,-1
 0 512 l 1,15,-1
 0 640 l 1,12,-1
128 640 m 1,16,-1
 256 640 l 1,17,-1
 256 512 l 1,18,-1
 128 512 l 1,19,-1
 128 640 l 1,16,-1
256 640 m 1,20,-1
 384 640 l 1,21,-1
 384 512 l 1,22,-1
 256 512 l 1,23,-1
 256 640 l 1,20,-1
384 640 m 1,24,-1
 512 640 l 1,25,-1
 512 512 l 1,26,-1
 384 512 l 1,27,-1
 384 640 l 1,24,-1
128 512 m 1,28,-1
 256 512 l 1,29,-1
 256 384 l 1,30,-1
 128 384 l 1,31,-1
 128 512 l 1,28,-1
256 512 m 1,32,-1
 384 512 l 1,33,-1
 384 384 l 1,34,-1
 256 384 l 1,35,-1
 256 512 l 1,32,-1
128 384 m 1,36,-1
 256 384 l 1,37,-1
 256 256 l 1,38,-1
 128 256 l 1,39,-1
 128 384 l 1,36,-1
256 384 m 1,40,-1
 384 384 l 1,41,-1
 384 256 l 1,42,-1
 256 256 l 1,43,-1
 256 384 l 1,40,-1
128 256 m 1,44,-1
 256 256 l 1,45,-1
 256 128 l 1,46,-1
 128 128 l 1,47,-1
 128 256 l 1,44,-1
256 256 m 1,48,-1
 384 256 l 1,49,-1
 384 128 l 1,50,-1
 256 128 l 1,51,-1
 256 256 l 1,48,-1
0 128 m 1,52,-1
 128 128 l 1,53,-1
 128 0 l 1,54,-1
 0 0 l 1,55,-1
 0 128 l 1,52,-1
128 128 m 1,56,-1
 256 128 l 1,57,-1
 256 0 l 1,58,-1
 128 0 l 1,59,-1
 128 128 l 1,56,-1
256 128 m 1,60,-1
 384 128 l 1,61,-1
 384 0 l 1,62,-1
 256 0 l 1,63,-1
 256 128 l 1,60,-1
384 128 m 1,64,-1
 512 128 l 1,65,-1
 512 0 l 1,66,-1
 384 0 l 1,67,-1
 384 128 l 1,64,-1
EndSplineSet
Validated: 5
EndChar

StartChar: Idieresis
Encoding: 207 207 130
Width: 768
GlyphClass: 1
Flags: W
LayerCount: 2
Fore
SplineSet
128 896 m 1,0,-1
 256 896 l 1,1,-1
 256 768 l 1,2,-1
 128 768 l 1,3,-1
 128 896 l 1,0,-1
384 896 m 1,4,-1
 512 896 l 1,5,-1
 512 768 l 1,6,-1
 384 768 l 1,7,-1
 384 896 l 1,4,-1
0 640 m 1,8,-1
 128 640 l 1,9,-1
 128 512 l 1,10,-1
 0 512 l 1,11,-1
 0 640 l 1,8,-1
128 640 m 1,12,-1
 256 640 l 1,13,-1
 256 512 l 1,14,-1
 128 512 l 1,15,-1
 128 640 l 1,12,-1
256 640 m 1,16,-1
 384 640 l 1,17,-1
 384 512 l 1,18,-1
 256 512 l 1,19,-1
 256 640 l 1,16,-1
384 640 m 1,20,-1
 512 640 l 1,21,-1
 512 512 l 1,22,-1
 384 512 l 1,23,-1
 384 640 l 1,20,-1
128 512 m 1,24,-1
 256 512 l 1,25,-1
 256 384 l 1,26,-1
 128 384 l 1,27,-1
 128 512 l 1,24,-1
256 512 m 1,28,-1
 384 512 l 1,29,-1
 384 384 l 1,30,-1
 256 384 l 1,31,-1
 256 512 l 1,28,-1
128 384 m 1,32,-1
 256 384 l 1,33,-1
 256 256 l 1,34,-1
 128 256 l 1,35,-1
 128 384 l 1,32,-1
256 384 m 1,36,-1
 384 384 l 1,37,-1
 384 256 l 1,38,-1
 256 256 l 1,39,-1
 256 384 l 1,36,-1
128 256 m 1,40,-1
 256 256 l 1,41,-1
 256 128 l 1,42,-1
 128 128 l 1,43,-1
 128 256 l 1,40,-1
256 256 m 1,44,-1
 384 256 l 1,45,-1
 384 128 l 1,46,-1
 256 128 l 1,47,-1
 256 256 l 1,44,-1
0 128 m 1,48,-1
 128 128 l 1,49,-1
 128 0 l 1,50,-1
 0 0 l 1,51,-1
 0 128 l 1,48,-1
128 128 m 1,52,-1
 256 128 l 1,53,-1
 256 0 l 1,54,-1
 128 0 l 1,55,-1
 128 128 l 1,52,-1
256 128 m 1,56,-1
 384 128 l 1,57,-1
 384 0 l 1,58,-1
 256 0 l 1,59,-1
 256 128 l 1,56,-1
384 128 m 1,60,-1
 512 128 l 1,61,-1
 512 0 l 1,62,-1
 384 0 l 1,63,-1
 384 128 l 1,60,-1
EndSplineSet
Validated: 5
EndChar

StartChar: Ntilde
Encoding: 209 209 131
Width: 768
GlyphClass: 1
Flags: W
LayerCount: 2
Fore
SplineSet
128 896 m 1,0,-1
 256 896 l 1,1,-1
 256 768 l 1,2,-1
 128 768 l 1,3,-1
 128 896 l 1,0,-1
256 896 m 1,4,-1
 384 896 l 1,5,-1
 384 768 l 1,6,-1
 256 768 l 1,7,-1
 256 896 l 1,4,-1
512 896 m 1,8,-1
 640 896 l 1,9,-1
 640 768 l 1,10,-1
 512 768 l 1,11,-1
 512 896 l 1,8,-1
0 768 m 1,12,-1
 128 768 l 1,13,-1
 128 640 l 1,14,-1
 0 640 l 1,15,-1
 0 768 l 1,12,-1
256 768 m 1,16,-1
 384 768 l 1,17,-1
 384 640 l 1,18,-1
 256 640 l 1,19,-1
 256 768 l 1,16,-1
384 768 m 1,20,-1
 512 768 l 1,21,-1
 512 640 l 1,22,-1
 384 640 l 1,23,-1
 384 768 l 1,20,-1
0 640 m 1,24,-1
 128 640 l 1,25,-1
 128 512 l 1,26,-1
 0 512 l 1,27,-1
 0 640 l 1,24,-1
128 640 m 1,28,-1
 256 640 l 1,29,-1
 256 512 l 1,30,-1
 128 512 l 1,31,-1
 128 640 l 1,28,-1
512 640 m 1,32,-1
 640 640 l 1,33,-1
 640 512 l 1,34,-1
 512 512 l 1,35,-1
 512 640 l 1,32,-1
0 512 m 1,36,-1
 128 512 l 1,37,-1
 128 384 l 1,38,-1
 0 384 l 1,39,-1
 0 512 l 1,36,-1
128 512 m 1,40,-1
 256 512 l 1,41,-1
 256 384 l 1,42,-1
 128 384 l 1,43,-1
 128 512 l 1,40,-1
512 512 m 1,44,-1
 640 512 l 1,45,-1
 640 384 l 1,46,-1
 512 384 l 1,47,-1
 512 512 l 1,44,-1
0 384 m 1,48,-1
 128 384 l 1,49,-1
 128 256 l 1,50,-1
 0 256 l 1,51,-1
 0 384 l 1,48,-1
128 384 m 1,52,-1
 256 384 l 1,53,-1
 256 256 l 1,54,-1
 128 256 l 1,55,-1
 128 384 l 1,52,-1
256 384 m 1,56,-1
 384 384 l 1,57,-1
 384 256 l 1,58,-1
 256 256 l 1,59,-1
 256 384 l 1,56,-1
512 384 m 1,60,-1
 640 384 l 1,61,-1
 640 256 l 1,62,-1
 512 256 l 1,63,-1
 512 384 l 1,60,-1
0 256 m 1,64,-1
 128 256 l 1,65,-1
 128 128 l 1,66,-1
 0 128 l 1,67,-1
 0 256 l 1,64,-1
128 256 m 1,68,-1
 256 256 l 1,69,-1
 256 128 l 1,70,-1
 128 128 l 1,71,-1
 128 256 l 1,68,-1
384 256 m 1,72,-1
 512 256 l 1,73,-1
 512 128 l 1,74,-1
 384 128 l 1,75,-1
 384 256 l 1,72,-1
512 256 m 1,76,-1
 640 256 l 1,77,-1
 640 128 l 1,78,-1
 512 128 l 1,79,-1
 512 256 l 1,76,-1
0 128 m 1,80,-1
 128 128 l 1,81,-1
 128 0 l 1,82,-1
 0 0 l 1,83,-1
 0 128 l 1,80,-1
128 128 m 1,84,-1
 256 128 l 1,85,-1
 256 0 l 1,86,-1
 128 0 l 1,87,-1
 128 128 l 1,84,-1
512 128 m 1,88,-1
 640 128 l 1,89,-1
 640 0 l 1,90,-1
 512 0 l 1,91,-1
 512 128 l 1,88,-1
EndSplineSet
Validated: 5
EndChar

StartChar: Ograve
Encoding: 210 210 132
Width: 768
GlyphClass: 1
Flags: W
LayerCount: 2
Fore
SplineSet
128 896 m 1,0,-1
 256 896 l 1,1,-1
 256 768 l 1,2,-1
 128 768 l 1,3,-1
 128 896 l 1,0,-1
256 768 m 1,4,-1
 384 768 l 1,5,-1
 384 640 l 1,6,-1
 256 640 l 1,7,-1
 256 768 l 1,4,-1
128 640 m 1,8,-1
 256 640 l 1,9,-1
 256 512 l 1,10,-1
 128 512 l 1,11,-1
 128 640 l 1,8,-1
256 640 m 1,12,-1
 384 640 l 1,13,-1
 384 512 l 1,14,-1
 256 512 l 1,15,-1
 256 640 l 1,12,-1
384 640 m 1,16,-1
 512 640 l 1,17,-1
 512 512 l 1,18,-1
 384 512 l 1,19,-1
 384 640 l 1,16,-1
0 512 m 1,20,-1
 128 512 l 1,21,-1
 128 384 l 1,22,-1
 0 384 l 1,23,-1
 0 512 l 1,20,-1
128 512 m 1,24,-1
 256 512 l 1,25,-1
 256 384 l 1,26,-1
 128 384 l 1,27,-1
 128 512 l 1,24,-1
512 512 m 1,28,-1
 640 512 l 1,29,-1
 640 384 l 1,30,-1
 512 384 l 1,31,-1
 512 512 l 1,28,-1
0 384 m 1,32,-1
 128 384 l 1,33,-1
 128 256 l 1,34,-1
 0 256 l 1,35,-1
 0 384 l 1,32,-1
128 384 m 1,36,-1
 256 384 l 1,37,-1
 256 256 l 1,38,-1
 128 256 l 1,39,-1
 128 384 l 1,36,-1
512 384 m 1,40,-1
 640 384 l 1,41,-1
 640 256 l 1,42,-1
 512 256 l 1,43,-1
 512 384 l 1,40,-1
0 256 m 1,44,-1
 128 256 l 1,45,-1
 128 128 l 1,46,-1
 0 128 l 1,47,-1
 0 256 l 1,44,-1
128 256 m 1,48,-1
 256 256 l 1,49,-1
 256 128 l 1,50,-1
 128 128 l 1,51,-1
 128 256 l 1,48,-1
512 256 m 1,52,-1
 640 256 l 1,53,-1
 640 128 l 1,54,-1
 512 128 l 1,55,-1
 512 256 l 1,52,-1
128 128 m 1,56,-1
 256 128 l 1,57,-1
 256 0 l 1,58,-1
 128 0 l 1,59,-1
 128 128 l 1,56,-1
256 128 m 1,60,-1
 384 128 l 1,61,-1
 384 0 l 1,62,-1
 256 0 l 1,63,-1
 256 128 l 1,60,-1
384 128 m 1,64,-1
 512 128 l 1,65,-1
 512 0 l 1,66,-1
 384 0 l 1,67,-1
 384 128 l 1,64,-1
EndSplineSet
Validated: 5
EndChar

StartChar: Oacute
Encoding: 211 211 133
Width: 768
GlyphClass: 1
Flags: W
LayerCount: 2
Fore
SplineSet
384 896 m 1,0,-1
 512 896 l 1,1,-1
 512 768 l 1,2,-1
 384 768 l 1,3,-1
 384 896 l 1,0,-1
256 768 m 1,4,-1
 384 768 l 1,5,-1
 384 640 l 1,6,-1
 256 640 l 1,7,-1
 256 768 l 1,4,-1
128 640 m 1,8,-1
 256 640 l 1,9,-1
 256 512 l 1,10,-1
 128 512 l 1,11,-1
 128 640 l 1,8,-1
256 640 m 1,12,-1
 384 640 l 1,13,-1
 384 512 l 1,14,-1
 256 512 l 1,15,-1
 256 640 l 1,12,-1
384 640 m 1,16,-1
 512 640 l 1,17,-1
 512 512 l 1,18,-1
 384 512 l 1,19,-1
 384 640 l 1,16,-1
0 512 m 1,20,-1
 128 512 l 1,21,-1
 128 384 l 1,22,-1
 0 384 l 1,23,-1
 0 512 l 1,20,-1
128 512 m 1,24,-1
 256 512 l 1,25,-1
 256 384 l 1,26,-1
 128 384 l 1,27,-1
 128 512 l 1,24,-1
512 512 m 1,28,-1
 640 512 l 1,29,-1
 640 384 l 1,30,-1
 512 384 l 1,31,-1
 512 512 l 1,28,-1
0 384 m 1,32,-1
 128 384 l 1,33,-1
 128 256 l 1,34,-1
 0 256 l 1,35,-1
 0 384 l 1,32,-1
128 384 m 1,36,-1
 256 384 l 1,37,-1
 256 256 l 1,38,-1
 128 256 l 1,39,-1
 128 384 l 1,36,-1
512 384 m 1,40,-1
 640 384 l 1,41,-1
 640 256 l 1,42,-1
 512 256 l 1,43,-1
 512 384 l 1,40,-1
0 256 m 1,44,-1
 128 256 l 1,45,-1
 128 128 l 1,46,-1
 0 128 l 1,47,-1
 0 256 l 1,44,-1
128 256 m 1,48,-1
 256 256 l 1,49,-1
 256 128 l 1,50,-1
 128 128 l 1,51,-1
 128 256 l 1,48,-1
512 256 m 1,52,-1
 640 256 l 1,53,-1
 640 128 l 1,54,-1
 512 128 l 1,55,-1
 512 256 l 1,52,-1
128 128 m 1,56,-1
 256 128 l 1,57,-1
 256 0 l 1,58,-1
 128 0 l 1,59,-1
 128 128 l 1,56,-1
256 128 m 1,60,-1
 384 128 l 1,61,-1
 384 0 l 1,62,-1
 256 0 l 1,63,-1
 256 128 l 1,60,-1
384 128 m 1,64,-1
 512 128 l 1,65,-1
 512 0 l 1,66,-1
 384 0 l 1,67,-1
 384 128 l 1,64,-1
EndSplineSet
Validated: 5
EndChar

StartChar: Ocircumflex
Encoding: 212 212 134
Width: 768
GlyphClass: 1
Flags: W
LayerCount: 2
Fore
SplineSet
256 896 m 1,0,-1
 384 896 l 1,1,-1
 384 768 l 1,2,-1
 256 768 l 1,3,-1
 256 896 l 1,0,-1
128 768 m 1,4,-1
 256 768 l 1,5,-1
 256 640 l 1,6,-1
 128 640 l 1,7,-1
 128 768 l 1,4,-1
384 768 m 1,8,-1
 512 768 l 1,9,-1
 512 640 l 1,10,-1
 384 640 l 1,11,-1
 384 768 l 1,8,-1
128 640 m 1,12,-1
 256 640 l 1,13,-1
 256 512 l 1,14,-1
 128 512 l 1,15,-1
 128 640 l 1,12,-1
256 640 m 1,16,-1
 384 640 l 1,17,-1
 384 512 l 1,18,-1
 256 512 l 1,19,-1
 256 640 l 1,16,-1
384 640 m 1,20,-1
 512 640 l 1,21,-1
 512 512 l 1,22,-1
 384 512 l 1,23,-1
 384 640 l 1,20,-1
0 512 m 1,24,-1
 128 512 l 1,25,-1
 128 384 l 1,26,-1
 0 384 l 1,27,-1
 0 512 l 1,24,-1
128 512 m 1,28,-1
 256 512 l 1,29,-1
 256 384 l 1,30,-1
 128 384 l 1,31,-1
 128 512 l 1,28,-1
512 512 m 1,32,-1
 640 512 l 1,33,-1
 640 384 l 1,34,-1
 512 384 l 1,35,-1
 512 512 l 1,32,-1
0 384 m 1,36,-1
 128 384 l 1,37,-1
 128 256 l 1,38,-1
 0 256 l 1,39,-1
 0 384 l 1,36,-1
128 384 m 1,40,-1
 256 384 l 1,41,-1
 256 256 l 1,42,-1
 128 256 l 1,43,-1
 128 384 l 1,40,-1
512 384 m 1,44,-1
 640 384 l 1,45,-1
 640 256 l 1,46,-1
 512 256 l 1,47,-1
 512 384 l 1,44,-1
0 256 m 1,48,-1
 128 256 l 1,49,-1
 128 128 l 1,50,-1
 0 128 l 1,51,-1
 0 256 l 1,48,-1
128 256 m 1,52,-1
 256 256 l 1,53,-1
 256 128 l 1,54,-1
 128 128 l 1,55,-1
 128 256 l 1,52,-1
512 256 m 1,56,-1
 640 256 l 1,57,-1
 640 128 l 1,58,-1
 512 128 l 1,59,-1
 512 256 l 1,56,-1
128 128 m 1,60,-1
 256 128 l 1,61,-1
 256 0 l 1,62,-1
 128 0 l 1,63,-1
 128 128 l 1,60,-1
256 128 m 1,64,-1
 384 128 l 1,65,-1
 384 0 l 1,66,-1
 256 0 l 1,67,-1
 256 128 l 1,64,-1
384 128 m 1,68,-1
 512 128 l 1,69,-1
 512 0 l 1,70,-1
 384 0 l 1,71,-1
 384 128 l 1,68,-1
EndSplineSet
Validated: 5
EndChar

StartChar: Otilde
Encoding: 213 213 135
Width: 768
GlyphClass: 1
Flags: W
LayerCount: 2
Fore
SplineSet
128 896 m 1,0,-1
 256 896 l 1,1,-1
 256 768 l 1,2,-1
 128 768 l 1,3,-1
 128 896 l 1,0,-1
256 896 m 1,4,-1
 384 896 l 1,5,-1
 384 768 l 1,6,-1
 256 768 l 1,7,-1
 256 896 l 1,4,-1
512 896 m 1,8,-1
 640 896 l 1,9,-1
 640 768 l 1,10,-1
 512 768 l 1,11,-1
 512 896 l 1,8,-1
0 768 m 1,12,-1
 128 768 l 1,13,-1
 128 640 l 1,14,-1
 0 640 l 1,15,-1
 0 768 l 1,12,-1
256 768 m 1,16,-1
 384 768 l 1,17,-1
 384 640 l 1,18,-1
 256 640 l 1,19,-1
 256 768 l 1,16,-1
384 768 m 1,20,-1
 512 768 l 1,21,-1
 512 640 l 1,22,-1
 384 640 l 1,23,-1
 384 768 l 1,20,-1
128 640 m 1,24,-1
 256 640 l 1,25,-1
 256 512 l 1,26,-1
 128 512 l 1,27,-1
 128 640 l 1,24,-1
256 640 m 1,28,-1
 384 640 l 1,29,-1
 384 512 l 1,30,-1
 256 512 l 1,31,-1
 256 640 l 1,28,-1
384 640 m 1,32,-1
 512 640 l 1,33,-1
 512 512 l 1,34,-1
 384 512 l 1,35,-1
 384 640 l 1,32,-1
0 512 m 1,36,-1
 128 512 l 1,37,-1
 128 384 l 1,38,-1
 0 384 l 1,39,-1
 0 512 l 1,36,-1
128 512 m 1,40,-1
 256 512 l 1,41,-1
 256 384 l 1,42,-1
 128 384 l 1,43,-1
 128 512 l 1,40,-1
512 512 m 1,44,-1
 640 512 l 1,45,-1
 640 384 l 1,46,-1
 512 384 l 1,47,-1
 512 512 l 1,44,-1
0 384 m 1,48,-1
 128 384 l 1,49,-1
 128 256 l 1,50,-1
 0 256 l 1,51,-1
 0 384 l 1,48,-1
128 384 m 1,52,-1
 256 384 l 1,53,-1
 256 256 l 1,54,-1
 128 256 l 1,55,-1
 128 384 l 1,52,-1
512 384 m 1,56,-1
 640 384 l 1,57,-1
 640 256 l 1,58,-1
 512 256 l 1,59,-1
 512 384 l 1,56,-1
0 256 m 1,60,-1
 128 256 l 1,61,-1
 128 128 l 1,62,-1
 0 128 l 1,63,-1
 0 256 l 1,60,-1
128 256 m 1,64,-1
 256 256 l 1,65,-1
 256 128 l 1,66,-1
 128 128 l 1,67,-1
 128 256 l 1,64,-1
512 256 m 1,68,-1
 640 256 l 1,69,-1
 640 128 l 1,70,-1
 512 128 l 1,71,-1
 512 256 l 1,68,-1
128 128 m 1,72,-1
 256 128 l 1,73,-1
 256 0 l 1,74,-1
 128 0 l 1,75,-1
 128 128 l 1,72,-1
256 128 m 1,76,-1
 384 128 l 1,77,-1
 384 0 l 1,78,-1
 256 0 l 1,79,-1
 256 128 l 1,76,-1
384 128 m 1,80,-1
 512 128 l 1,81,-1
 512 0 l 1,82,-1
 384 0 l 1,83,-1
 384 128 l 1,80,-1
EndSplineSet
Validated: 5
EndChar

StartChar: Odieresis
Encoding: 214 214 136
Width: 768
GlyphClass: 1
Flags: W
LayerCount: 2
Fore
SplineSet
128 896 m 1,0,-1
 256 896 l 1,1,-1
 256 768 l 1,2,-1
 128 768 l 1,3,-1
 128 896 l 1,0,-1
384 896 m 1,4,-1
 512 896 l 1,5,-1
 512 768 l 1,6,-1
 384 768 l 1,7,-1
 384 896 l 1,4,-1
128 640 m 1,8,-1
 256 640 l 1,9,-1
 256 512 l 1,10,-1
 128 512 l 1,11,-1
 128 640 l 1,8,-1
256 640 m 1,12,-1
 384 640 l 1,13,-1
 384 512 l 1,14,-1
 256 512 l 1,15,-1
 256 640 l 1,12,-1
384 640 m 1,16,-1
 512 640 l 1,17,-1
 512 512 l 1,18,-1
 384 512 l 1,19,-1
 384 640 l 1,16,-1
0 512 m 1,20,-1
 128 512 l 1,21,-1
 128 384 l 1,22,-1
 0 384 l 1,23,-1
 0 512 l 1,20,-1
128 512 m 1,24,-1
 256 512 l 1,25,-1
 256 384 l 1,26,-1
 128 384 l 1,27,-1
 128 512 l 1,24,-1
512 512 m 1,28,-1
 640 512 l 1,29,-1
 640 384 l 1,30,-1
 512 384 l 1,31,-1
 512 512 l 1,28,-1
0 384 m 1,32,-1
 128 384 l 1,33,-1
 128 256 l 1,34,-1
 0 256 l 1,35,-1
 0 384 l 1,32,-1
128 384 m 1,36,-1
 256 384 l 1,37,-1
 256 256 l 1,38,-1
 128 256 l 1,39,-1
 128 384 l 1,36,-1
512 384 m 1,40,-1
 640 384 l 1,41,-1
 640 256 l 1,42,-1
 512 256 l 1,43,-1
 512 384 l 1,40,-1
0 256 m 1,44,-1
 128 256 l 1,45,-1
 128 128 l 1,46,-1
 0 128 l 1,47,-1
 0 256 l 1,44,-1
128 256 m 1,48,-1
 256 256 l 1,49,-1
 256 128 l 1,50,-1
 128 128 l 1,51,-1
 128 256 l 1,48,-1
512 256 m 1,52,-1
 640 256 l 1,53,-1
 640 128 l 1,54,-1
 512 128 l 1,55,-1
 512 256 l 1,52,-1
128 128 m 1,56,-1
 256 128 l 1,57,-1
 256 0 l 1,58,-1
 128 0 l 1,59,-1
 128 128 l 1,56,-1
256 128 m 1,60,-1
 384 128 l 1,61,-1
 384 0 l 1,62,-1
 256 0 l 1,63,-1
 256 128 l 1,60,-1
384 128 m 1,64,-1
 512 128 l 1,65,-1
 512 0 l 1,66,-1
 384 0 l 1,67,-1
 384 128 l 1,64,-1
EndSplineSet
Validated: 5
EndChar

StartChar: multiply
Encoding: 215 215 137
Width: 768
GlyphClass: 1
Flags: W
LayerCount: 2
Fore
SplineSet
128 512 m 1,0,-1
 256 512 l 1,1,-1
 256 384 l 1,2,-1
 128 384 l 1,3,-1
 128 512 l 1,0,-1
384 512 m 1,4,-1
 512 512 l 1,5,-1
 512 384 l 1,6,-1
 384 384 l 1,7,-1
 384 512 l 1,4,-1
256 384 m 1,8,-1
 384 384 l 1,9,-1
 384 256 l 1,10,-1
 256 256 l 1,11,-1
 256 384 l 1,8,-1
128 256 m 1,12,-1
 256 256 l 1,13,-1
 256 128 l 1,14,-1
 128 128 l 1,15,-1
 128 256 l 1,12,-1
384 256 m 1,16,-1
 512 256 l 1,17,-1
 512 128 l 1,18,-1
 384 128 l 1,19,-1
 384 256 l 1,16,-1
EndSplineSet
Validated: 5
EndChar

